<svg version="1.1" id="Layer_1" xmlns="http://www.w3.org/2000/svg" xmlns:xlink="http://www.w3.org/1999/xlink" x="0px" y="0px"
	 width="100%" viewBox="0 0 1024 535" enable-background="new 0 0 1024 535" xml:space="preserve">
<path fill="#000000" opacity="1.000000" stroke="none" 
	d="
M733.000000,536.000000 
	C488.666656,536.000000 244.833328,536.000000 1.000000,536.000000 
	C1.000000,357.666656 1.000000,179.333328 1.000000,1.000000 
	C342.333344,1.000000 683.666687,1.000000 1025.000000,1.000000 
	C1025.000000,179.333328 1025.000000,357.666656 1025.000000,536.000000 
	C927.833313,536.000000 830.666687,536.000000 733.000000,536.000000 
M658.003418,196.481659 
	C651.425354,169.605469 638.853271,146.134842 618.692871,126.134460 
	C608.292114,136.433914 598.417480,146.212418 588.202759,156.327698 
	C568.858337,136.990509 544.023682,126.632202 515.867432,126.261673 
	C487.449371,125.887711 462.243164,135.691711 441.383881,155.832672 
	C430.977722,145.889206 420.462524,135.841522 409.954834,125.801041 
	C342.962402,194.437149 362.233734,294.712067 410.839050,339.599182 
	C420.420288,328.876587 430.069641,318.077759 439.583832,307.430176 
	C460.849091,327.681580 484.493164,338.574646 512.670532,339.024658 
	C540.733887,339.472870 564.776123,329.557678 585.678040,311.125336 
	C595.953125,321.444550 606.182434,331.717712 616.435669,342.014984 
	C632.109985,327.221802 643.746948,309.686066 651.387207,289.825012 
	C655.684937,278.652924 658.927612,266.824890 660.695496,255.000778 
	C662.421204,243.458359 662.215271,231.525681 661.802246,219.801483 
	C661.537415,212.280212 659.362427,204.826202 658.003418,196.481659 
M502.035614,90.454338 
	C499.420319,90.642914 496.750641,90.557541 494.198517,91.064278 
	C476.949524,94.489151 460.170990,99.372383 445.258636,109.041939 
	C437.039307,114.371605 429.221771,120.320961 419.754211,127.032173 
	C422.230652,128.526260 423.284058,129.063156 424.221710,129.756607 
	C425.073486,130.386551 425.799347,131.186798 426.133362,131.496811 
	C451.914062,109.109932 480.787506,96.855354 515.044922,96.815872 
	C549.665283,96.775978 578.333801,110.413841 604.042297,132.183853 
	C605.878357,130.646362 607.531616,129.261993 608.977051,128.051590 
	C607.280945,126.511414 605.869568,125.183197 604.409302,123.911018 
	C590.150818,111.488724 574.033020,102.101196 556.162109,96.149223 
	C538.928772,90.409576 520.985168,89.063774 502.035614,90.454338 
M546.528809,372.003052 
	C568.937012,366.562592 588.629761,355.946350 606.502502,340.846863 
	C604.584290,339.172150 602.967712,337.760742 601.332764,336.333344 
	C546.114380,382.750549 473.956421,378.636841 424.372986,334.083130 
	C422.318939,335.319611 420.332886,336.515137 418.365540,337.699402 
	C420.256134,339.216400 421.341431,340.173340 422.511414,341.012207 
	C430.781433,346.941589 438.596161,353.699738 447.439209,358.599792 
	C474.051697,373.346283 502.719086,378.743896 532.974915,374.936737 
	C537.259766,374.397583 541.440063,373.027710 546.528809,372.003052 
M641.075012,421.503571 
	C643.638489,421.699219 646.201965,421.894867 648.752014,422.089478 
	C649.338196,412.462830 647.052002,410.000366 638.107666,410.000061 
	C631.941650,409.999847 625.771118,410.152985 619.610474,409.970184 
	C603.598145,409.495056 602.508606,410.714722 602.969116,426.853058 
	C603.159241,433.516052 606.489380,436.983643 613.264160,436.995911 
	C622.385681,437.012451 631.507202,437.000000 640.999817,437.000000 
	C640.999817,440.022400 640.890808,442.650574 641.029236,445.265686 
	C641.179504,448.104523 639.944031,449.070953 637.182068,449.037903 
	C628.533630,448.934326 619.883179,448.999847 611.280884,448.999847 
	C610.484863,443.383118 610.484863,443.383118 603.170715,445.553314 
	C602.804260,453.546967 606.083557,456.996429 614.060669,456.999298 
	C622.393127,457.002319 630.725647,457.022156 639.058044,456.992767 
	C645.331726,456.970642 648.960571,453.263763 648.997192,446.908234 
	C649.013550,444.075317 649.039062,441.241516 648.991577,438.409302 
	C648.896240,432.720428 645.135071,429.006683 639.496948,429.002106 
	C630.061523,428.994415 620.626038,429.000000 611.000732,429.000000 
	C611.000732,425.786682 610.607788,423.054565 611.158752,420.528381 
	C611.455078,419.170044 613.332275,417.206909 614.562744,417.157013 
	C622.216003,416.846588 629.894470,416.846100 637.547363,417.161407 
	C638.744995,417.210724 639.854614,419.396332 641.075012,421.503571 
M365.000000,433.501801 
	C365.000000,441.269165 365.000000,449.036530 365.000000,456.724518 
	C367.962189,456.724518 370.366058,456.724518 373.000122,456.724518 
	C373.000122,452.313782 373.129974,448.168762 372.956970,444.036377 
	C372.830200,441.008972 373.957520,439.892426 377.010712,439.951324 
	C384.666473,440.098969 392.328827,440.098419 399.984589,439.951569 
	C403.032318,439.893127 404.166779,440.999207 404.043640,444.031860 
	C403.870575,448.292908 403.999878,452.566223 403.999878,456.709534 
	C406.986389,456.709534 409.392303,456.709534 412.000000,456.709534 
	C412.000000,444.286957 412.016815,432.153717 411.993134,420.020538 
	C411.980835,413.722717 408.287842,410.024597 402.002563,410.006805 
	C392.679138,409.980438 383.339966,410.323822 374.038116,409.874817 
	C368.710297,409.617615 365.341034,413.336609 365.046692,419.019684 
	C364.814453,423.502930 365.000000,428.007782 365.000000,433.501801 
M546.292114,421.997284 
	C546.757996,421.874573 547.542358,421.873383 547.642395,421.611115 
	C549.455627,416.858002 544.934631,410.064484 539.859314,410.021393 
	C530.874023,409.945129 521.867920,410.364624 512.907959,409.881989 
	C506.028687,409.511383 501.556396,411.585968 501.079529,421.726685 
	C500.689087,430.028656 500.953369,438.363983 501.016571,446.683838 
	C501.057983,452.139191 505.827881,456.942108 511.266876,456.981750 
	C520.418762,457.048492 529.571777,456.963409 538.723755,457.018036 
	C542.384155,457.039856 545.618103,455.666077 546.236816,452.123047 
	C547.485840,444.970337 547.941711,437.679138 548.749756,430.214111 
	C541.481567,430.214111 535.411316,430.214111 529.207031,430.214111 
	C529.207031,432.835968 529.207031,435.240997 529.207031,438.000244 
	C531.699280,438.000244 533.996216,438.106659 536.280029,437.978210 
	C541.092041,437.707550 539.853577,441.201508 539.989136,443.816376 
	C540.131653,446.565582 540.379822,449.178711 536.146851,449.060364 
	C528.498108,448.846497 520.836060,448.873840 513.185791,449.057983 
	C509.827667,449.138855 508.875732,447.818115 508.946564,444.642914 
	C509.113525,437.158325 509.074890,429.666443 508.969055,422.179626 
	C508.914581,418.325928 510.695923,416.888092 514.410706,416.965240 
	C520.565063,417.093079 526.736877,417.241119 532.876709,416.915680 
	C537.004028,416.696869 539.864380,417.660889 540.571960,421.999847 
	C542.407104,421.999847 543.903320,421.999847 546.292114,421.997284 
M467.331848,437.000000 
	C468.551941,436.879242 469.772034,436.758514 470.779724,436.658813 
	C470.779724,433.887238 470.779724,431.611328 470.779724,428.953918 
	C461.821899,428.953918 453.074829,428.953918 444.344299,428.953918 
	C444.208710,417.095978 440.788208,416.993988 454.520233,416.999420 
	C462.288971,417.002502 470.057709,417.000000 477.718872,417.000000 
	C477.718872,414.369049 477.718872,412.299957 477.718872,410.272980 
	C463.705017,410.272980 449.974060,410.272980 436.262878,410.272980 
	C436.262878,425.943420 436.262878,441.339386 436.262878,456.751465 
	C450.263977,456.751465 464.000763,456.751465 477.752014,456.751465 
	C477.752014,454.092133 477.752014,451.688202 477.752014,448.903870 
	C466.436554,448.903870 455.362488,448.903870 444.243591,448.903870 
	C444.243591,444.771545 444.243591,441.034882 444.243591,437.000000 
	C451.777710,437.000000 459.072327,437.000000 467.331848,437.000000 
M565.375427,89.035561 
	C538.706970,79.288727 511.428833,77.349274 483.683868,83.133751 
	C450.093903,90.136833 418.723511,112.262077 412.730713,124.027275 
	C415.374115,122.159599 417.015015,121.015266 418.640381,119.849319 
	C428.229614,112.970650 437.231903,105.016106 447.516113,99.414467 
	C473.795074,85.100731 502.086792,80.379440 531.932007,83.869560 
	C548.175232,85.769051 563.354187,90.615456 577.967224,97.528595 
	C590.924927,103.658607 602.208069,112.348633 613.118530,121.541328 
	C613.722168,122.049896 614.771240,122.029785 615.612976,122.255753 
	C601.547485,107.169754 585.023132,96.406181 565.375427,89.035561 
M418.658752,346.971558 
	C416.054169,346.034454 415.480408,340.693604 411.069824,343.433807 
	C472.140961,402.057648 562.606873,396.849701 614.542297,344.770447 
	C613.328613,344.684235 612.049316,344.743683 611.194031,345.376343 
	C604.290527,350.483032 597.724304,356.088165 590.569580,360.804565 
	C570.515015,374.024658 548.145691,380.927734 524.376770,382.859558 
	C511.108063,383.937988 497.764893,383.046600 484.687622,379.996765 
	C460.249481,374.297394 438.260468,363.740692 418.658752,346.971558 
M565.969727,113.459518 
	C514.410217,89.294701 456.576721,107.267380 429.436523,137.338882 
	C486.703796,92.399879 543.533142,93.106438 599.937866,138.346039 
	C600.041504,133.962082 583.192688,121.551941 565.969727,113.459518 
M595.400085,331.065826 
	C594.817749,331.658234 594.299011,332.334473 593.643860,332.830841 
	C574.895996,347.035492 554.538635,357.117004 530.755676,360.238159 
	C517.929688,361.921356 505.257843,362.227966 492.819031,359.754852 
	C468.883942,354.996002 447.336456,344.871399 429.346313,327.929810 
	C428.963959,327.569763 427.945984,327.884613 426.515137,327.884613 
	C435.497986,337.760040 445.936310,344.288818 456.852325,349.877411 
	C471.575134,357.414948 487.298553,361.444550 503.885345,363.272461 
	C517.202576,364.740112 530.042297,363.129852 542.737305,360.464905 
	C556.733459,357.526825 569.869080,351.679077 581.972961,343.931946 
	C587.002563,340.712708 591.617126,336.828735 596.307373,333.104645 
	C597.801270,331.918427 597.634338,331.708191 595.400085,331.065826 
M572.000000,437.679138 
	C572.000000,444.099548 572.000000,450.519989 572.000000,456.662354 
	C575.071411,456.662354 577.478882,456.662354 579.694702,456.662354 
	C579.694702,440.930573 579.694702,425.537811 579.694702,410.304047 
	C576.641357,410.304047 573.900146,410.304047 570.781189,410.304047 
	C571.197205,419.321411 571.598633,428.022156 572.000000,437.679138 
M569.390076,476.916107 
	C566.759216,473.900970 565.774292,468.905609 559.999756,468.970581 
	C559.999756,474.636871 559.919006,479.939270 560.075989,485.234650 
	C560.103577,486.164124 561.128662,487.064026 561.693115,487.977600 
	C562.128662,487.100372 562.905396,486.236450 562.940063,485.343658 
	C563.082764,481.674194 562.999756,477.995941 562.999756,473.386383 
	C565.965942,476.894318 568.148926,479.475983 570.468628,482.219330 
	C572.966309,479.384399 575.242737,476.800629 578.174927,473.472595 
	C578.174927,479.000641 578.174927,483.422485 578.174927,487.844330 
	C579.843018,486.996185 580.850830,485.783478 580.919678,484.519623 
	C581.136108,480.545715 581.143555,476.544220 580.912781,472.571930 
	C580.842651,471.364380 579.738098,470.216888 579.107300,469.041901 
	C578.045959,469.806183 576.885803,470.465820 575.943542,471.356140 
	C573.881348,473.304810 571.929688,475.370544 569.390076,476.916107 
M385.284698,485.810425 
	C390.843689,489.312683 398.347870,489.008606 398.515289,484.999664 
	C395.878082,484.999664 393.236938,485.111023 390.614594,484.937836 
	C389.725067,484.879120 388.882965,484.102020 388.019196,483.653137 
	C388.946472,483.102142 389.840240,482.158447 390.807526,482.075928 
	C393.408112,481.854065 396.040070,482.000122 398.998779,482.000122 
	C398.998779,480.997162 398.990845,480.379669 399.000000,479.762451 
	C399.087891,473.834229 397.915771,472.859344 390.156952,473.034302 
	C386.064545,473.126556 384.416565,475.412384 384.960785,479.488678 
	C385.200348,481.283142 385.013824,483.134491 385.284698,485.810425 
M381.998688,472.892242 
	C380.776398,471.597260 379.660919,469.334625 378.312134,469.185699 
	C373.972137,468.706604 369.546051,469.007324 365.231079,469.007324 
	C365.231079,475.698700 365.231079,481.768066 365.231079,487.837433 
	C365.766541,487.987366 366.301971,488.137329 366.837433,488.287262 
	C367.414917,485.986084 367.992401,483.684875 368.666168,481.000000 
	C370.535156,481.000000 372.652435,481.000061 374.769714,480.999939 
	C381.998932,480.999634 381.998932,480.999634 381.998688,472.892242 
M460.051056,476.772552 
	C462.204224,476.432800 464.357361,476.093079 467.340118,475.622437 
	C467.340118,480.201691 467.340118,484.095703 467.340118,487.989716 
	C467.809143,488.015228 468.278168,488.040771 468.747192,488.066315 
	C468.972137,486.362183 469.618134,484.587982 469.348206,482.966217 
	C468.255402,476.400421 468.999298,475.547424 476.000397,476.524323 
	C476.000397,479.447845 475.899506,482.418793 476.061768,485.375336 
	C476.110535,486.264038 476.891937,487.112549 477.337708,487.979492 
	C477.891724,487.055176 478.812958,486.172852 478.924377,485.197906 
	C479.167908,483.067627 478.816254,480.871002 479.040802,478.736542 
	C479.434479,474.994110 477.927826,473.693390 474.220642,473.919373 
	C471.708954,474.072479 469.145752,473.502045 466.614227,473.185974 
	C457.048370,471.991669 456.991211,472.033112 457.000763,481.854645 
	C457.002045,483.182617 456.750031,484.587952 457.108704,485.813019 
	C457.375580,486.724670 458.440094,487.402771 460.003723,489.127075 
	C460.003723,484.324341 460.003723,481.019165 460.051056,476.772552 
M482.046204,480.680542 
	C481.217163,488.311310 485.612762,488.884338 497.203400,487.421051 
	C495.745789,483.077454 499.886444,477.130432 494.362305,474.446259 
	C491.376160,472.995270 486.505981,470.993958 482.808533,475.218414 
	C486.315521,477.577637 491.358734,473.783661 494.419373,478.395355 
	C489.920074,478.993683 486.240479,479.483032 482.046204,480.680542 
M541.500122,473.053345 
	C534.770813,473.166962 534.720581,477.502167 534.851562,482.661591 
	C534.940002,486.142822 536.648560,487.473877 539.330505,487.898590 
	C541.917664,488.308258 544.626648,488.097046 547.265747,487.917511 
	C547.870483,487.876373 548.407959,486.847809 548.976440,486.273712 
	C548.423218,485.851288 547.892334,485.104340 547.312683,485.064362 
	C545.168396,484.916473 542.989868,485.164856 540.861694,484.927734 
	C539.868713,484.817017 538.961609,483.935913 538.015625,483.403992 
	C539.025391,482.936035 540.010620,482.142761 541.049744,482.064331 
	C543.633606,481.869293 546.242065,482.000153 548.805237,482.000153 
	C549.175476,474.440765 549.175476,474.440765 541.500122,473.053345 
M599.000000,480.498108 
	C599.046631,477.601074 599.603943,474.594025 595.796021,473.275665 
	C589.121582,470.964813 583.983765,474.394592 583.999878,481.313965 
	C584.013123,487.002350 584.999634,487.949677 590.962280,488.000000 
	C598.150024,488.060669 598.912292,487.434143 599.000000,480.498108 
M641.360901,473.956177 
	C639.955078,474.521973 637.434387,474.939575 637.336121,475.679199 
	C636.906372,478.911865 636.925537,482.271545 637.354126,485.509369 
	C637.480591,486.464661 639.399475,487.669952 640.646851,487.883026 
	C642.896912,488.267303 645.457886,488.548187 647.515381,487.818512 
	C649.277344,487.193665 651.441345,485.306854 651.830505,483.611603 
	C653.752563,475.238373 650.692993,472.238464 641.360901,473.956177 
M430.012299,487.978912 
	C431.008850,487.985931 432.072357,488.223114 432.989319,487.956451 
	C435.648590,487.183044 439.861694,486.840271 440.516602,485.171448 
	C441.666199,482.242035 441.828888,477.523102 440.124542,475.309235 
	C438.700836,473.459900 434.024109,473.906494 430.770813,473.780548 
	C429.536835,473.732819 427.208557,474.864563 427.166656,475.565613 
	C426.918762,479.710114 425.511139,484.189667 430.012299,487.978912 
M612.999634,478.659973 
	C612.999756,479.491547 612.864136,480.350586 613.025757,481.149475 
	C613.489319,483.440460 614.073303,485.707031 614.609924,487.983215 
	C615.073303,485.633698 615.755615,483.302979 615.959167,480.931152 
	C616.584167,473.647522 614.845398,472.987427 608.363586,472.852661 
	C603.417725,472.749817 601.248718,473.952698 601.933289,479.173615 
	C602.306824,482.022186 602.000000,484.959961 602.000000,488.269165 
	C604.311890,486.597931 604.311890,486.597931 605.480469,475.270660 
	C608.096680,476.121704 610.546448,476.918610 612.999634,478.659973 
M514.731140,478.754272 
	C514.204285,475.915955 513.426147,473.199677 509.869507,473.046967 
	C506.727234,472.912018 503.574554,473.018738 500.001129,473.018738 
	C500.001129,477.374969 499.917542,481.505096 500.073303,485.626251 
	C500.103668,486.429993 501.063904,487.198578 501.595306,487.983398 
	C502.063293,487.133942 502.888397,486.303528 502.934875,485.431580 
	C503.099854,482.336121 502.999268,479.226471 502.999268,476.000427 
	C504.403656,476.000427 505.243866,476.114563 506.042969,475.981720 
	C510.979309,475.161377 512.675842,477.354828 512.041626,482.086334 
	C511.788391,483.975067 511.999908,485.926086 511.999908,488.166290 
	C514.964539,486.205750 515.035156,485.848175 514.731140,478.754272 
M528.180786,473.001770 
	C517.901917,472.997681 517.901917,472.997681 517.999878,482.963898 
	C518.001465,483.129761 518.022949,483.299347 517.996704,483.460938 
	C517.473511,486.680267 519.252136,487.882080 522.092957,487.979004 
	C524.743774,488.069550 527.406494,488.097687 530.049622,487.928619 
	C530.724304,487.885498 531.344482,486.991516 531.989746,486.488464 
	C531.336853,485.993073 530.705078,485.106812 530.027344,485.070068 
	C527.103943,484.911713 524.167053,485.002289 521.243896,485.002289 
	C521.243896,481.747314 521.243896,479.015747 521.243896,475.747314 
	C524.958679,475.747314 528.447388,475.747314 531.936096,475.747314 
	C531.996155,475.440918 532.056213,475.134552 532.116272,474.828156 
	C531.097229,474.227203 530.078247,473.626251 528.180786,473.001770 
M419.000092,482.342529 
	C419.000092,480.377655 419.000092,478.412811 419.000092,476.272156 
	C420.827698,476.056732 422.386078,475.873047 423.944427,475.689362 
	C424.074341,475.255371 424.204254,474.821411 424.334167,474.387421 
	C422.514709,473.585327 420.695221,472.783203 417.516235,471.381775 
	C420.323395,471.168549 421.618134,471.174286 422.859619,470.920105 
	C423.300568,470.829834 423.870300,470.131683 423.913544,469.667450 
	C423.961365,469.154449 423.619263,468.339386 423.193512,468.091827 
	C420.750671,466.671539 416.243042,468.561951 416.097870,471.348907 
	C415.811401,476.848602 416.013397,482.373749 416.013397,487.888336 
	C416.623566,487.980072 417.233734,488.071808 417.843903,488.163544 
	C418.229309,486.527924 418.614716,484.892334 419.000092,482.342529 
M626.000061,473.731323 
	C626.004944,477.391815 625.450928,481.185730 626.278076,484.649841 
	C626.629639,486.122101 629.819946,487.032776 631.850708,487.889221 
	C632.254944,488.059723 633.253418,486.821472 633.977844,486.232819 
	C632.579468,485.802979 631.173401,485.395691 629.789429,484.923523 
	C629.528015,484.834320 629.354736,484.486847 629.000000,484.108398 
	C629.000000,482.963837 629.000000,481.640228 629.000000,480.316650 
	C629.000000,479.013428 629.000000,477.710175 629.000000,476.380981 
	C630.893066,476.044647 632.478943,475.762878 635.013855,475.312469 
	C627.832642,472.761658 627.832642,472.761658 626.946106,468.782318 
	C626.630737,470.124847 626.315430,471.467377 626.000061,473.731323 
M595.271240,449.054688 
	C592.549622,449.054688 589.828003,449.054688 587.283936,449.054688 
	C587.283936,452.031128 587.283936,454.418915 587.283936,457.000000 
	C588.856567,457.000000 590.152649,457.000000 591.448669,457.000000 
	C592.872437,457.000000 594.296143,457.000000 595.592590,457.000000 
	C595.811768,456.223755 595.966675,455.926819 595.968201,455.629120 
	C595.978210,453.657928 595.955322,451.686584 595.271240,449.054688 
M485.998779,453.065948 
	C485.239075,457.420837 485.516449,457.548279 493.797729,456.569000 
	C493.797729,454.174835 493.797729,451.766968 493.797729,448.634369 
	C491.197205,450.663574 486.442566,445.644867 485.998779,453.065948 
M562.337830,449.003845 
	C560.275635,449.003845 558.213440,449.003845 556.264160,449.003845 
	C556.264160,452.001648 556.264160,454.383667 556.264160,456.775024 
	C558.918579,456.775024 561.300659,456.775024 564.267212,456.775024 
	C563.915894,454.028656 563.597839,451.542542 562.337830,449.003845 
M664.942261,449.720123 
	C662.347412,449.433777 659.752563,449.147430 657.295044,448.876282 
	C657.295044,452.059570 657.295044,454.445312 657.295044,456.744568 
	C659.982849,456.744568 662.369141,456.744568 664.996094,456.744568 
	C664.996094,454.548889 664.996094,452.605957 664.942261,449.720123 
M420.003876,450.662231 
	C420.003876,452.724426 420.003876,454.786591 420.003876,456.735779 
	C423.000549,456.735779 425.387390,456.735779 427.774994,456.735779 
	C427.774994,454.081329 427.774994,451.699249 427.774994,448.732819 
	C425.020844,449.085175 422.538635,449.402771 420.003876,450.662231 
M443.999939,479.698303 
	C443.999969,481.361572 443.795654,483.059357 444.069031,484.676422 
	C444.264679,485.833771 445.100433,486.882874 445.650635,487.980255 
	C446.100311,486.948395 446.873291,485.936249 446.937836,484.880859 
	C447.116455,481.958313 446.999695,479.017731 446.999695,475.778564 
	C450.024689,475.778564 452.436646,475.778564 454.848602,475.778564 
	C454.934937,475.191803 455.021271,474.605011 455.107635,474.018250 
	C452.897766,473.747681 450.623596,473.020020 448.494019,473.319733 
	C445.688538,473.714539 443.041107,474.952179 443.999939,479.698303 
M660.767578,476.000092 
	C662.153625,475.775696 663.549133,475.588867 664.905151,475.245911 
	C664.999756,475.221985 665.030945,473.863556 664.696960,473.429138 
	C663.637146,472.050568 655.338257,473.935028 655.205811,475.717926 
	C654.903625,479.785675 655.110474,483.891205 655.110474,487.981354 
	C655.609497,487.993439 656.108521,488.005524 656.607605,488.017578 
	C656.992188,485.103210 657.216187,482.153931 657.838318,479.291168 
	C658.097290,478.099457 659.204895,477.092163 660.767578,476.000092 
M403.004639,486.507416 
	C403.664581,486.535156 404.324554,486.562897 404.984528,486.590668 
	C404.989685,484.603912 405.142731,482.603973 404.966827,480.633392 
	C404.670776,477.316895 405.717621,475.520691 409.364166,475.978516 
	C410.472565,476.117676 411.613251,476.000092 412.739136,476.000092 
	C412.928650,475.515686 413.118134,475.031250 413.307617,474.546844 
	C412.308044,474.031372 411.209991,472.951447 410.327209,473.105438 
	C407.592255,473.582611 403.485840,471.943359 403.052155,476.756531 
	C402.787170,479.697327 403.001282,482.681244 403.004639,486.507416 
M622.000000,480.498749 
	C622.000000,478.012268 622.000000,475.525787 622.000000,471.793671 
	C617.794983,477.613678 618.107422,485.811737 622.000000,488.044312 
	C622.000000,485.694458 622.000000,483.563934 622.000000,480.498749 
z"/>
<path fill="#FFFFFF" opacity="1.000000" stroke="none" 
	d="
M658.023560,196.911850 
	C659.362427,204.826202 661.537415,212.280212 661.802246,219.801483 
	C662.215271,231.525681 662.421204,243.458359 660.695496,255.000778 
	C658.927612,266.824890 655.684937,278.652924 651.387207,289.825012 
	C643.746948,309.686066 632.109985,327.221802 616.435669,342.014984 
	C606.182434,331.717712 595.953125,321.444550 585.678040,311.125336 
	C564.776123,329.557678 540.733887,339.472870 512.670532,339.024658 
	C484.493164,338.574646 460.849091,327.681580 439.583832,307.430176 
	C430.069641,318.077759 420.420288,328.876587 410.839050,339.599182 
	C362.233734,294.712067 342.962402,194.437149 409.954834,125.801041 
	C420.462524,135.841522 430.977722,145.889206 441.383881,155.832672 
	C462.243164,135.691711 487.449371,125.887711 515.867432,126.261673 
	C544.023682,126.632202 568.858337,136.990509 588.202759,156.327698 
	C598.417480,146.212418 608.292114,136.433914 618.692871,126.134460 
	C638.853271,146.134842 651.425354,169.605469 658.023560,196.911850 
M604.997437,326.003601 
	C604.997437,326.003601 604.909790,325.920227 604.360962,326.515991 
	C607.586670,329.867615 610.872253,333.164246 614.016724,336.590363 
	C616.070435,338.828003 617.664917,338.170715 619.319092,336.186188 
	C630.831482,322.374512 641.075684,307.789917 648.038513,291.050446 
	C653.839417,277.104492 657.704712,262.676056 658.883606,247.662811 
	C659.533936,239.380203 659.484131,230.968582 658.867065,222.680862 
	C658.218567,213.970657 657.056824,205.218781 655.163574,196.697433 
	C650.929321,177.639740 642.651306,160.299149 631.042114,144.608963 
	C627.402588,139.690018 623.327820,135.093124 618.552368,129.247116 
	C607.885254,139.941833 598.069824,149.782669 588.391418,159.486130 
	C585.576721,157.105286 582.485718,154.402664 579.302612,151.813126 
	C563.664307,139.090683 545.844482,131.041443 525.806580,129.167328 
	C509.271301,127.620781 492.659424,129.044739 477.159515,135.492599 
	C456.972107,143.890411 440.105560,156.763336 427.956024,175.323151 
	C414.774139,195.460022 408.416687,217.254272 410.937714,241.469131 
	C412.117676,252.803116 414.810608,263.652802 419.503815,273.996979 
	C427.391418,291.381927 438.965546,305.704224 454.438507,317.058838 
	C470.498199,328.844055 488.420685,335.664948 508.087036,336.733032 
	C517.903015,337.266144 528.073730,335.929565 537.730713,333.820709 
	C562.807739,328.344482 582.587341,314.389587 597.757080,293.759613 
	C605.846985,282.757843 611.454834,270.620728 615.022095,257.463257 
	C618.955505,242.955383 619.440918,228.170288 616.651184,213.617981 
	C613.157532,195.394012 605.461792,178.812363 593.156372,164.614380 
	C592.703918,164.092377 592.839539,163.060715 592.701111,162.266556 
	C603.118530,171.641876 609.552551,183.117462 613.978210,195.747665 
	C618.885376,209.752243 622.000061,224.066650 619.982971,239.043320 
	C619.098267,245.612000 618.525208,252.278854 616.940002,258.685699 
	C613.219421,273.722717 606.636536,287.410522 596.384033,299.229553 
	C593.360474,302.715088 588.144104,307.173889 588.751709,310.227844 
	C589.566406,314.322693 594.977539,317.577759 598.587585,321.012177 
	C600.569153,322.897369 602.904724,324.410461 604.997437,326.003601 
M405.963470,331.442657 
	C407.083710,332.657288 408.203979,333.871918 408.545593,334.242310 
	C418.332581,324.479095 427.953430,314.881592 437.475006,305.383148 
	C418.300659,284.655762 407.824585,259.718994 408.155518,230.968155 
	C408.485291,202.320343 419.422272,177.573242 437.999939,158.881882 
	C428.714081,148.153854 420.055908,138.150970 410.568695,127.190331 
	C402.910278,138.031921 395.937500,147.190842 389.726898,156.840286 
	C375.997803,178.171097 370.112122,202.026505 369.167664,227.067245 
	C368.804779,236.688293 369.952820,246.425491 371.089020,256.029724 
	C372.703125,269.673096 376.750122,282.667694 382.548828,295.180939 
	C388.571014,308.176239 396.222046,320.045807 405.963470,331.442657 
z"/>
<path fill="#FFFFFF" opacity="1.000000" stroke="none" 
	d="
M502.455872,90.243164 
	C520.985168,89.063774 538.928772,90.409576 556.162109,96.149223 
	C574.033020,102.101196 590.150818,111.488724 604.409302,123.911018 
	C605.869568,125.183197 607.280945,126.511414 608.977051,128.051590 
	C607.531616,129.261993 605.878357,130.646362 604.042297,132.183853 
	C578.333801,110.413841 549.665283,96.775978 515.044922,96.815872 
	C480.787506,96.855354 451.914062,109.109932 426.133362,131.496811 
	C425.799347,131.186798 425.073486,130.386551 424.221710,129.756607 
	C423.284058,129.063156 422.230652,128.526260 419.754211,127.032173 
	C429.221771,120.320961 437.039307,114.371605 445.258636,109.041939 
	C460.170990,99.372383 476.949524,94.489151 494.198517,91.064278 
	C496.750641,90.557541 499.420319,90.642914 502.455872,90.243164 
z"/>
<path fill="#FFFFFF" opacity="1.000000" stroke="none" 
	d="
M546.098755,372.022705 
	C541.440063,373.027710 537.259766,374.397583 532.974915,374.936737 
	C502.719086,378.743896 474.051697,373.346283 447.439209,358.599792 
	C438.596161,353.699738 430.781433,346.941589 422.511414,341.012207 
	C421.341431,340.173340 420.256134,339.216400 418.365540,337.699402 
	C420.332886,336.515137 422.318939,335.319611 424.372986,334.083130 
	C473.956421,378.636841 546.114380,382.750549 601.332764,336.333344 
	C602.967712,337.760742 604.584290,339.172150 606.502502,340.846863 
	C588.629761,355.946350 568.937012,366.562592 546.098755,372.022705 
z"/>
<path fill="#FFFFFF" opacity="1.000000" stroke="none" 
	d="
M641.040039,421.048859 
	C639.854614,419.396332 638.744995,417.210724 637.547363,417.161407 
	C629.894470,416.846100 622.216003,416.846588 614.562744,417.157013 
	C613.332275,417.206909 611.455078,419.170044 611.158752,420.528381 
	C610.607788,423.054565 611.000732,425.786682 611.000732,429.000000 
	C620.626038,429.000000 630.061523,428.994415 639.496948,429.002106 
	C645.135071,429.006683 648.896240,432.720428 648.991577,438.409302 
	C649.039062,441.241516 649.013550,444.075317 648.997192,446.908234 
	C648.960571,453.263763 645.331726,456.970642 639.058044,456.992767 
	C630.725647,457.022156 622.393127,457.002319 614.060669,456.999298 
	C606.083557,456.996429 602.804260,453.546967 603.170715,445.553314 
	C610.484863,443.383118 610.484863,443.383118 611.280884,448.999847 
	C619.883179,448.999847 628.533630,448.934326 637.182068,449.037903 
	C639.944031,449.070953 641.179504,448.104523 641.029236,445.265686 
	C640.890808,442.650574 640.999817,440.022400 640.999817,437.000000 
	C631.507202,437.000000 622.385681,437.012451 613.264160,436.995911 
	C606.489380,436.983643 603.159241,433.516052 602.969116,426.853058 
	C602.508606,410.714722 603.598145,409.495056 619.610474,409.970184 
	C625.771118,410.152985 631.941650,409.999847 638.107666,410.000061 
	C647.052002,410.000366 649.338196,412.462830 648.752014,422.089478 
	C646.201965,421.894867 643.638489,421.699219 641.040039,421.048859 
z"/>
<path fill="#FFFFFF" opacity="1.000000" stroke="none" 
	d="
M365.000000,433.002441 
	C365.000000,428.007782 364.814453,423.502930 365.046692,419.019684 
	C365.341034,413.336609 368.710297,409.617615 374.038116,409.874817 
	C383.339966,410.323822 392.679138,409.980438 402.002563,410.006805 
	C408.287842,410.024597 411.980835,413.722717 411.993134,420.020538 
	C412.016815,432.153717 412.000000,444.286957 412.000000,456.709534 
	C409.392303,456.709534 406.986389,456.709534 403.999878,456.709534 
	C403.999878,452.566223 403.870575,448.292908 404.043640,444.031860 
	C404.166779,440.999207 403.032318,439.893127 399.984589,439.951569 
	C392.328827,440.098419 384.666473,440.098969 377.010712,439.951324 
	C373.957520,439.892426 372.830200,441.008972 372.956970,444.036377 
	C373.129974,448.168762 373.000122,452.313782 373.000122,456.724518 
	C370.366058,456.724518 367.962189,456.724518 365.000000,456.724518 
	C365.000000,449.036530 365.000000,441.269165 365.000000,433.002441 
M373.004211,430.304596 
	C373.606903,430.868561 374.204376,431.917450 374.813049,431.923981 
	C384.421539,432.027191 394.031525,431.996490 403.999725,431.996490 
	C403.999725,427.962250 403.893921,424.334198 404.033478,420.715607 
	C404.143372,417.866974 402.916901,416.892639 400.167603,416.963562 
	C395.175598,417.092407 390.177917,417.000000 385.182587,417.000000 
	C372.998901,417.000000 372.998901,417.000000 373.004211,430.304596 
z"/>
<path fill="#FFFFFF" opacity="1.000000" stroke="none" 
	d="
M545.845825,421.998566 
	C543.903320,421.999847 542.407104,421.999847 540.571960,421.999847 
	C539.864380,417.660889 537.004028,416.696869 532.876709,416.915680 
	C526.736877,417.241119 520.565063,417.093079 514.410706,416.965240 
	C510.695923,416.888092 508.914581,418.325928 508.969055,422.179626 
	C509.074890,429.666443 509.113525,437.158325 508.946564,444.642914 
	C508.875732,447.818115 509.827667,449.138855 513.185791,449.057983 
	C520.836060,448.873840 528.498108,448.846497 536.146851,449.060364 
	C540.379822,449.178711 540.131653,446.565582 539.989136,443.816376 
	C539.853577,441.201508 541.092041,437.707550 536.280029,437.978210 
	C533.996216,438.106659 531.699280,438.000244 529.207031,438.000244 
	C529.207031,435.240997 529.207031,432.835968 529.207031,430.214111 
	C535.411316,430.214111 541.481567,430.214111 548.749756,430.214111 
	C547.941711,437.679138 547.485840,444.970337 546.236816,452.123047 
	C545.618103,455.666077 542.384155,457.039856 538.723755,457.018036 
	C529.571777,456.963409 520.418762,457.048492 511.266876,456.981750 
	C505.827881,456.942108 501.057983,452.139191 501.016571,446.683838 
	C500.953369,438.363983 500.689087,430.028656 501.079529,421.726685 
	C501.556396,411.585968 506.028687,409.511383 512.907959,409.881989 
	C521.867920,410.364624 530.874023,409.945129 539.859314,410.021393 
	C544.934631,410.064484 549.455627,416.858002 547.642395,421.611115 
	C547.542358,421.873383 546.757996,421.874573 545.845825,421.998566 
z"/>
<path fill="#FFFFFF" opacity="1.000000" stroke="none" 
	d="
M466.849396,437.000000 
	C459.072327,437.000000 451.777710,437.000000 444.243591,437.000000 
	C444.243591,441.034882 444.243591,444.771545 444.243591,448.903870 
	C455.362488,448.903870 466.436554,448.903870 477.752014,448.903870 
	C477.752014,451.688202 477.752014,454.092133 477.752014,456.751465 
	C464.000763,456.751465 450.263977,456.751465 436.262878,456.751465 
	C436.262878,441.339386 436.262878,425.943420 436.262878,410.272980 
	C449.974060,410.272980 463.705017,410.272980 477.718872,410.272980 
	C477.718872,412.299957 477.718872,414.369049 477.718872,417.000000 
	C470.057709,417.000000 462.288971,417.002502 454.520233,416.999420 
	C440.788208,416.993988 444.208710,417.095978 444.344299,428.953918 
	C453.074829,428.953918 461.821899,428.953918 470.779724,428.953918 
	C470.779724,431.611328 470.779724,433.887238 470.779724,436.658813 
	C469.772034,436.758514 468.551941,436.879242 466.849396,437.000000 
z"/>
<path fill="#FFFFFF" opacity="1.000000" stroke="none" 
	d="
M565.695679,89.279343 
	C585.023132,96.406181 601.547485,107.169754 615.612976,122.255753 
	C614.771240,122.029785 613.722168,122.049896 613.118530,121.541328 
	C602.208069,112.348633 590.924927,103.658607 577.967224,97.528595 
	C563.354187,90.615456 548.175232,85.769051 531.932007,83.869560 
	C502.086792,80.379440 473.795074,85.100731 447.516113,99.414467 
	C437.231903,105.016106 428.229614,112.970650 418.640381,119.849319 
	C417.015015,121.015266 415.374115,122.159599 412.730713,124.027275 
	C418.723511,112.262077 450.093903,90.136833 483.683868,83.133751 
	C511.428833,77.349274 538.706970,79.288727 565.695679,89.279343 
z"/>
<path fill="#FFFFFF" opacity="1.000000" stroke="none" 
	d="
M419.018127,347.002106 
	C438.260468,363.740692 460.249481,374.297394 484.687622,379.996765 
	C497.764893,383.046600 511.108063,383.937988 524.376770,382.859558 
	C548.145691,380.927734 570.515015,374.024658 590.569580,360.804565 
	C597.724304,356.088165 604.290527,350.483032 611.194031,345.376343 
	C612.049316,344.743683 613.328613,344.684235 614.542297,344.770447 
	C562.606873,396.849701 472.140961,402.057648 411.069824,343.433807 
	C415.480408,340.693604 416.054169,346.034454 419.018127,347.002106 
z"/>
<path fill="#FFFFFF" opacity="1.000000" stroke="none" 
	d="
M566.270630,113.709602 
	C583.192688,121.551941 600.041504,133.962082 599.937866,138.346039 
	C543.533142,93.106438 486.703796,92.399879 429.436523,137.338882 
	C456.576721,107.267380 514.410217,89.294701 566.270630,113.709602 
z"/>
<path fill="#FFFFFF" opacity="1.000000" stroke="none" 
	d="
M595.664307,330.839844 
	C597.634338,331.708191 597.801270,331.918427 596.307373,333.104645 
	C591.617126,336.828735 587.002563,340.712708 581.972961,343.931946 
	C569.869080,351.679077 556.733459,357.526825 542.737305,360.464905 
	C530.042297,363.129852 517.202576,364.740112 503.885345,363.272461 
	C487.298553,361.444550 471.575134,357.414948 456.852325,349.877411 
	C445.936310,344.288818 435.497986,337.760040 426.515137,327.884613 
	C427.945984,327.884613 428.963959,327.569763 429.346313,327.929810 
	C447.336456,344.871399 468.883942,354.996002 492.819031,359.754852 
	C505.257843,362.227966 517.929688,361.921356 530.755676,360.238159 
	C554.538635,357.117004 574.895996,347.035492 593.643860,332.830841 
	C594.299011,332.334473 594.817749,331.658234 595.664307,330.839844 
z"/>
<path fill="#FFFFFF" opacity="1.000000" stroke="none" 
	d="
M572.000000,437.201019 
	C571.598633,428.022156 571.197205,419.321411 570.781189,410.304047 
	C573.900146,410.304047 576.641357,410.304047 579.694702,410.304047 
	C579.694702,425.537811 579.694702,440.930573 579.694702,456.662354 
	C577.478882,456.662354 575.071411,456.662354 572.000000,456.662354 
	C572.000000,450.519989 572.000000,444.099548 572.000000,437.201019 
z"/>
<path fill="#FFFFFF" opacity="1.000000" stroke="none" 
	d="
M569.661438,477.152283 
	C571.929688,475.370544 573.881348,473.304810 575.943542,471.356140 
	C576.885803,470.465820 578.045959,469.806183 579.107300,469.041901 
	C579.738098,470.216888 580.842651,471.364380 580.912781,472.571930 
	C581.143555,476.544220 581.136108,480.545715 580.919678,484.519623 
	C580.850830,485.783478 579.843018,486.996185 578.174927,487.844330 
	C578.174927,483.422485 578.174927,479.000641 578.174927,473.472595 
	C575.242737,476.800629 572.966309,479.384399 570.468628,482.219330 
	C568.148926,479.475983 565.965942,476.894318 562.999756,473.386383 
	C562.999756,477.995941 563.082764,481.674194 562.940063,485.343658 
	C562.905396,486.236450 562.128662,487.100372 561.693115,487.977600 
	C561.128662,487.064026 560.103577,486.164124 560.075989,485.234650 
	C559.919006,479.939270 559.999756,474.636871 559.999756,468.970581 
	C565.774292,468.905609 566.759216,473.900970 569.661438,477.152283 
z"/>
<path fill="#FFFFFF" opacity="1.000000" stroke="none" 
	d="
M385.152710,485.385193 
	C385.013824,483.134491 385.200348,481.283142 384.960785,479.488678 
	C384.416565,475.412384 386.064545,473.126556 390.156952,473.034302 
	C397.915771,472.859344 399.087891,473.834229 399.000000,479.762451 
	C398.990845,480.379669 398.998779,480.997162 398.998779,482.000122 
	C396.040070,482.000122 393.408112,481.854065 390.807526,482.075928 
	C389.840240,482.158447 388.946472,483.102142 388.019196,483.653137 
	C388.882965,484.102020 389.725067,484.879120 390.614594,484.937836 
	C393.236938,485.111023 395.878082,484.999664 398.515289,484.999664 
	C398.347870,489.008606 390.843689,489.312683 385.152710,485.385193 
z"/>
<path fill="#FFFFFF" opacity="1.000000" stroke="none" 
	d="
M381.999420,473.336426 
	C381.998932,480.999634 381.998932,480.999634 374.769714,480.999939 
	C372.652435,481.000061 370.535156,481.000000 368.666168,481.000000 
	C367.992401,483.684875 367.414917,485.986084 366.837433,488.287262 
	C366.301971,488.137329 365.766541,487.987366 365.231079,487.837433 
	C365.231079,481.768066 365.231079,475.698700 365.231079,469.007324 
	C369.546051,469.007324 373.972137,468.706604 378.312134,469.185699 
	C379.660919,469.334625 380.776398,471.597260 381.999420,473.336426 
M370.674622,477.999756 
	C373.410583,477.999756 376.146545,477.999756 378.725647,477.999756 
	C378.725647,475.682434 378.725647,473.958099 378.725647,472.223572 
	C375.065247,472.223572 371.682922,472.223572 367.067413,472.223572 
	C368.137634,474.542664 368.934631,476.269623 370.674622,477.999756 
z"/>
<path fill="#FFFFFF" opacity="1.000000" stroke="none" 
	d="
M460.027405,477.243286 
	C460.003723,481.019165 460.003723,484.324341 460.003723,489.127075 
	C458.440094,487.402771 457.375580,486.724670 457.108704,485.813019 
	C456.750031,484.587952 457.002045,483.182617 457.000763,481.854645 
	C456.991211,472.033112 457.048370,471.991669 466.614227,473.185974 
	C469.145752,473.502045 471.708954,474.072479 474.220642,473.919373 
	C477.927826,473.693390 479.434479,474.994110 479.040802,478.736542 
	C478.816254,480.871002 479.167908,483.067627 478.924377,485.197906 
	C478.812958,486.172852 477.891724,487.055176 477.337708,487.979492 
	C476.891937,487.112549 476.110535,486.264038 476.061768,485.375336 
	C475.899506,482.418793 476.000397,479.447845 476.000397,476.524323 
	C468.999298,475.547424 468.255402,476.400421 469.348206,482.966217 
	C469.618134,484.587982 468.972137,486.362183 468.747192,488.066315 
	C468.278168,488.040771 467.809143,488.015228 467.340118,487.989716 
	C467.340118,484.095703 467.340118,480.201691 467.340118,475.622437 
	C464.357361,476.093079 462.204224,476.432800 460.027405,477.243286 
z"/>
<path fill="#FFFFFF" opacity="1.000000" stroke="none" 
	d="
M482.303528,480.326477 
	C486.240479,479.483032 489.920074,478.993683 494.419373,478.395355 
	C491.358734,473.783661 486.315521,477.577637 482.808533,475.218414 
	C486.505981,470.993958 491.376160,472.995270 494.362305,474.446259 
	C499.886444,477.130432 495.745789,483.077454 497.203400,487.421051 
	C485.612762,488.884338 481.217163,488.311310 482.303528,480.326477 
M493.990540,483.501343 
	C491.224854,483.044434 488.462585,482.560944 485.684052,482.203979 
	C485.534882,482.184814 484.923492,483.398499 485.101044,483.739258 
	C485.387573,484.289093 486.159088,484.945679 486.713135,484.934387 
	C489.122681,484.885559 491.527649,484.611633 493.990540,483.501343 
z"/>
<path fill="#FFFFFF" opacity="1.000000" stroke="none" 
	d="
M541.810303,473.350830 
	C549.175476,474.440765 549.175476,474.440765 548.805237,482.000153 
	C546.242065,482.000153 543.633606,481.869293 541.049744,482.064331 
	C540.010620,482.142761 539.025391,482.936035 538.015625,483.403992 
	C538.961609,483.935913 539.868713,484.817017 540.861694,484.927734 
	C542.989868,485.164856 545.168396,484.916473 547.312683,485.064362 
	C547.892334,485.104340 548.423218,485.851288 548.976440,486.273712 
	C548.407959,486.847809 547.870483,487.876373 547.265747,487.917511 
	C544.626648,488.097046 541.917664,488.308258 539.330505,487.898590 
	C536.648560,487.473877 534.940002,486.142822 534.851562,482.661591 
	C534.720581,477.502167 534.770813,473.166962 541.810303,473.350830 
M538.282837,478.810242 
	C541.121399,479.074158 544.194214,480.082916 545.923950,476.738251 
	C543.278381,477.304199 539.792419,473.379364 538.282837,478.810242 
z"/>
<path fill="#FFFFFF" opacity="1.000000" stroke="none" 
	d="
M599.000000,480.946075 
	C598.912292,487.434143 598.150024,488.060669 590.962280,488.000000 
	C584.999634,487.949677 584.013123,487.002350 583.999878,481.313965 
	C583.983765,474.394592 589.121582,470.964813 595.796021,473.275665 
	C599.603943,474.594025 599.046631,477.601074 599.000000,480.946075 
M587.668335,476.061676 
	C587.378723,478.922546 587.089050,481.783417 586.763367,484.999939 
	C588.549255,484.999939 589.707275,484.852600 590.815002,485.025940 
	C595.173462,485.707825 596.313965,483.685883 596.066040,479.633545 
	C595.698853,473.633545 591.234985,476.865356 587.668335,476.061676 
z"/>
<path fill="#FFFFFF" opacity="1.000000" stroke="none" 
	d="
M641.708130,473.689972 
	C650.692993,472.238464 653.752563,475.238373 651.830505,483.611603 
	C651.441345,485.306854 649.277344,487.193665 647.515381,487.818512 
	C645.457886,488.548187 642.896912,488.267303 640.646851,487.883026 
	C639.399475,487.669952 637.480591,486.464661 637.354126,485.509369 
	C636.925537,482.271545 636.906372,478.911865 637.336121,475.679199 
	C637.434387,474.939575 639.955078,474.521973 641.708130,473.689972 
M640.000183,478.635071 
	C640.000183,480.730408 640.000183,482.825745 640.000183,486.278076 
	C643.653870,484.875000 646.752258,484.353241 648.767578,482.592072 
	C649.608582,481.857178 648.415588,476.745483 647.680908,476.631500 
	C645.235779,476.252197 642.579102,477.237000 640.000183,478.635071 
z"/>
<path fill="#FFFFFF" opacity="1.000000" stroke="none" 
	d="
M429.598145,487.845337 
	C425.511139,484.189667 426.918762,479.710114 427.166656,475.565613 
	C427.208557,474.864563 429.536835,473.732819 430.770813,473.780548 
	C434.024109,473.906494 438.700836,473.459900 440.124542,475.309235 
	C441.828888,477.523102 441.666199,482.242035 440.516602,485.171448 
	C439.861694,486.840271 435.648590,487.183044 432.989319,487.956451 
	C432.072357,488.223114 431.008850,487.985931 429.598145,487.845337 
M437.999847,482.364868 
	C437.999847,480.269501 437.999847,478.174133 437.999847,474.721954 
	C434.346436,476.124847 431.247925,476.646515 429.232452,478.407623 
	C428.391449,479.142548 429.584351,484.254395 430.319092,484.368408 
	C432.764191,484.747772 435.420929,483.762939 437.999847,482.364868 
z"/>
<path fill="#FFFFFF" opacity="1.000000" stroke="none" 
	d="
M612.997925,478.187744 
	C610.546448,476.918610 608.096680,476.121704 605.480469,475.270660 
	C604.311890,486.597931 604.311890,486.597931 602.000000,488.269165 
	C602.000000,484.959961 602.306824,482.022186 601.933289,479.173615 
	C601.248718,473.952698 603.417725,472.749817 608.363586,472.852661 
	C614.845398,472.987427 616.584167,473.647522 615.959167,480.931152 
	C615.755615,483.302979 615.073303,485.633698 614.609924,487.983215 
	C614.073303,485.707031 613.489319,483.440460 613.025757,481.149475 
	C612.864136,480.350586 612.999756,479.491547 612.997925,478.187744 
z"/>
<path fill="#FFFFFF" opacity="1.000000" stroke="none" 
	d="
M514.481384,478.998993 
	C515.035156,485.848175 514.964539,486.205750 511.999908,488.166290 
	C511.999908,485.926086 511.788391,483.975067 512.041626,482.086334 
	C512.675842,477.354828 510.979309,475.161377 506.042969,475.981720 
	C505.243866,476.114563 504.403656,476.000427 502.999268,476.000427 
	C502.999268,479.226471 503.099854,482.336121 502.934875,485.431580 
	C502.888397,486.303528 502.063293,487.133942 501.595276,487.983398 
	C501.063904,487.198578 500.103668,486.429993 500.073303,485.626251 
	C499.917542,481.505096 500.001129,477.374969 500.001129,473.018738 
	C503.574554,473.018738 506.727234,472.912018 509.869507,473.046967 
	C513.426147,473.199677 514.204285,475.915955 514.481384,478.998993 
z"/>
<path fill="#FFFFFF" opacity="1.000000" stroke="none" 
	d="
M528.619995,473.013550 
	C530.078247,473.626251 531.097229,474.227203 532.116272,474.828156 
	C532.056213,475.134552 531.996155,475.440918 531.936096,475.747314 
	C528.447388,475.747314 524.958679,475.747314 521.243896,475.747314 
	C521.243896,479.015747 521.243896,481.747314 521.243896,485.002289 
	C524.167053,485.002289 527.103943,484.911713 530.027344,485.070068 
	C530.705078,485.106812 531.336853,485.993073 531.989746,486.488464 
	C531.344482,486.991516 530.724304,487.885498 530.049622,487.928619 
	C527.406494,488.097687 524.743774,488.069550 522.092957,487.979004 
	C519.252136,487.882080 517.473511,486.680267 517.996704,483.460938 
	C518.022949,483.299347 518.001465,483.129761 517.999878,482.963898 
	C517.901917,472.997681 517.901917,472.997681 528.619995,473.013550 
z"/>
<path fill="#FFFFFF" opacity="1.000000" stroke="none" 
	d="
M419.000122,482.799622 
	C418.614716,484.892334 418.229309,486.527924 417.843903,488.163544 
	C417.233734,488.071808 416.623566,487.980072 416.013397,487.888336 
	C416.013397,482.373749 415.811401,476.848602 416.097870,471.348907 
	C416.243042,468.561951 420.750671,466.671539 423.193512,468.091827 
	C423.619263,468.339386 423.961365,469.154449 423.913544,469.667450 
	C423.870300,470.131683 423.300568,470.829834 422.859619,470.920105 
	C421.618134,471.174286 420.323395,471.168549 417.516235,471.381775 
	C420.695221,472.783203 422.514709,473.585327 424.334167,474.387421 
	C424.204254,474.821411 424.074341,475.255371 423.944427,475.689362 
	C422.386078,475.873047 420.827698,476.056732 419.000092,476.272156 
	C419.000092,478.412811 419.000092,480.377655 419.000122,482.799622 
z"/>
<path fill="#FFFFFF" opacity="1.000000" stroke="none" 
	d="
M626.000122,473.270630 
	C626.315430,471.467377 626.630737,470.124847 626.946106,468.782318 
	C627.832642,472.761658 627.832642,472.761658 635.013855,475.312469 
	C632.478943,475.762878 630.893066,476.044647 629.000000,476.380981 
	C629.000000,477.710175 629.000000,479.013428 629.000000,480.316650 
	C629.000000,481.640228 629.000000,482.963837 629.000000,484.108398 
	C629.354736,484.486847 629.528015,484.834320 629.789429,484.923523 
	C631.173401,485.395691 632.579468,485.802979 633.977844,486.232819 
	C633.253418,486.821472 632.254944,488.059723 631.850708,487.889221 
	C629.819946,487.032776 626.629639,486.122101 626.278076,484.649841 
	C625.450928,481.185730 626.004944,477.391815 626.000122,473.270630 
z"/>
<path fill="#FFFFFF" opacity="1.000000" stroke="none" 
	d="
M595.607178,449.384979 
	C595.955322,451.686584 595.978210,453.657928 595.968201,455.629120 
	C595.966675,455.926819 595.811768,456.223755 595.592590,457.000000 
	C594.296143,457.000000 592.872437,457.000000 591.448669,457.000000 
	C590.152649,457.000000 588.856567,457.000000 587.283936,457.000000 
	C587.283936,454.418915 587.283936,452.031128 587.283936,449.054688 
	C589.828003,449.054688 592.549622,449.054688 595.607178,449.384979 
z"/>
<path fill="#FFFFFF" opacity="1.000000" stroke="none" 
	d="
M485.999359,452.629456 
	C486.442566,445.644867 491.197205,450.663574 493.797729,448.634369 
	C493.797729,451.766968 493.797729,454.174835 493.797729,456.569000 
	C485.516449,457.548279 485.239075,457.420837 485.999359,452.629456 
z"/>
<path fill="#FFFFFF" opacity="1.000000" stroke="none" 
	d="
M562.808838,449.030151 
	C563.597839,451.542542 563.915894,454.028656 564.267212,456.775024 
	C561.300659,456.775024 558.918579,456.775024 556.264160,456.775024 
	C556.264160,454.383667 556.264160,452.001648 556.264160,449.003845 
	C558.213440,449.003845 560.275635,449.003845 562.808838,449.030151 
z"/>
<path fill="#FFFFFF" opacity="1.000000" stroke="none" 
	d="
M664.969177,450.191589 
	C664.996094,452.605957 664.996094,454.548889 664.996094,456.744568 
	C662.369141,456.744568 659.982849,456.744568 657.295044,456.744568 
	C657.295044,454.445312 657.295044,452.059570 657.295044,448.876282 
	C659.752563,449.147430 662.347412,449.433777 664.969177,450.191589 
z"/>
<path fill="#FFFFFF" opacity="1.000000" stroke="none" 
	d="
M420.030151,450.191284 
	C422.538635,449.402771 425.020844,449.085175 427.774994,448.732819 
	C427.774994,451.699249 427.774994,454.081329 427.774994,456.735779 
	C425.387390,456.735779 423.000549,456.735779 420.003876,456.735779 
	C420.003876,454.786591 420.003876,452.724426 420.030151,450.191284 
z"/>
<path fill="#FFFFFF" opacity="1.000000" stroke="none" 
	d="
M443.999939,479.239014 
	C443.041107,474.952179 445.688538,473.714539 448.494019,473.319733 
	C450.623596,473.020020 452.897766,473.747681 455.107635,474.018250 
	C455.021271,474.605011 454.934937,475.191803 454.848602,475.778564 
	C452.436646,475.778564 450.024689,475.778564 446.999695,475.778564 
	C446.999695,479.017731 447.116455,481.958313 446.937836,484.880859 
	C446.873291,485.936249 446.100311,486.948395 445.650635,487.980255 
	C445.100433,486.882874 444.264679,485.833771 444.069031,484.676422 
	C443.795654,483.059357 443.999969,481.361572 443.999939,479.239014 
z"/>
<path fill="#FFFFFF" opacity="1.000000" stroke="none" 
	d="
M660.347046,476.000549 
	C659.204895,477.092163 658.097290,478.099457 657.838318,479.291168 
	C657.216187,482.153931 656.992188,485.103210 656.607605,488.017578 
	C656.108521,488.005524 655.609497,487.993439 655.110474,487.981354 
	C655.110474,483.891205 654.903625,479.785675 655.205811,475.717926 
	C655.338257,473.935028 663.637146,472.050568 664.696960,473.429138 
	C665.030945,473.863556 664.999756,475.221985 664.905151,475.245911 
	C663.549133,475.588867 662.153625,475.775696 660.347046,476.000549 
z"/>
<path fill="#FFFFFF" opacity="1.000000" stroke="none" 
	d="
M403.002441,486.076599 
	C403.001282,482.681244 402.787170,479.697327 403.052155,476.756531 
	C403.485840,471.943359 407.592255,473.582611 410.327209,473.105438 
	C411.209991,472.951447 412.308044,474.031372 413.307617,474.546844 
	C413.118134,475.031250 412.928650,475.515686 412.739136,476.000092 
	C411.613251,476.000092 410.472565,476.117676 409.364166,475.978516 
	C405.717621,475.520691 404.670776,477.316895 404.966827,480.633392 
	C405.142731,482.603973 404.989685,484.603912 404.984497,486.590668 
	C404.324554,486.562897 403.664581,486.535156 403.002441,486.076599 
z"/>
<path fill="#FFFFFF" opacity="1.000000" stroke="none" 
	d="
M622.000000,480.966064 
	C622.000000,483.563934 622.000000,485.694458 622.000000,488.044312 
	C618.107422,485.811737 617.794983,477.613678 622.000000,471.793671 
	C622.000000,475.525787 622.000000,478.012268 622.000000,480.966064 
z"/>
<path fill="#000000" opacity="1.000000" stroke="none" 
	d="
M605.080750,326.091339 
	C602.904724,324.410461 600.569153,322.897369 598.587585,321.012177 
	C594.977539,317.577759 589.566406,314.322693 588.751709,310.227844 
	C588.144104,307.173889 593.360474,302.715088 596.384033,299.229553 
	C606.636536,287.410522 613.219421,273.722717 616.940002,258.685699 
	C618.525208,252.278854 619.098267,245.612000 619.982971,239.043320 
	C622.000061,224.066650 618.885376,209.752243 613.978210,195.747665 
	C609.552551,183.117462 603.118530,171.641876 592.701111,162.266556 
	C592.839539,163.060715 592.703918,164.092377 593.156372,164.614380 
	C605.461792,178.812363 613.157532,195.394012 616.651184,213.617981 
	C619.440918,228.170288 618.955505,242.955383 615.022095,257.463257 
	C611.454834,270.620728 605.846985,282.757843 597.757080,293.759613 
	C582.587341,314.389587 562.807739,328.344482 537.730713,333.820709 
	C528.073730,335.929565 517.903015,337.266144 508.087036,336.733032 
	C488.420685,335.664948 470.498199,328.844055 454.438507,317.058838 
	C438.965546,305.704224 427.391418,291.381927 419.503815,273.996979 
	C414.810608,263.652802 412.117676,252.803116 410.937714,241.469131 
	C408.416687,217.254272 414.774139,195.460022 427.956024,175.323151 
	C440.105560,156.763336 456.972107,143.890411 477.159515,135.492599 
	C492.659424,129.044739 509.271301,127.620781 525.806580,129.167328 
	C545.844482,131.041443 563.664307,139.090683 579.302612,151.813126 
	C582.485718,154.402664 585.576721,157.105286 588.391418,159.486130 
	C598.069824,149.782669 607.885254,139.941833 618.552368,129.247116 
	C623.327820,135.093124 627.402588,139.690018 631.042114,144.608963 
	C642.651306,160.299149 650.929321,177.639740 655.163574,196.697433 
	C657.056824,205.218781 658.218567,213.970657 658.867065,222.680862 
	C659.484131,230.968582 659.533936,239.380203 658.883606,247.662811 
	C657.704712,262.676056 653.839417,277.104492 648.038513,291.050446 
	C641.075684,307.789917 630.831482,322.374512 619.319092,336.186188 
	C617.664917,338.170715 616.070435,338.828003 614.016724,336.590363 
	C610.872253,333.164246 607.586670,329.867615 604.995544,326.253967 
	C615.650085,317.697845 622.757324,307.108643 628.973511,295.896637 
	C637.342163,280.802124 643.197754,264.789368 643.912292,247.402283 
	C644.424805,234.929916 645.388611,222.216003 643.621399,209.975082 
	C641.354248,194.272003 636.131409,179.085190 627.162537,165.594650 
	C622.518799,158.609695 617.745911,151.710587 613.031311,144.772675 
	C612.455139,145.052292 611.878967,145.331894 611.302734,145.611496 
	C611.556458,146.592590 611.508606,147.843750 612.109131,148.514236 
	C620.919556,158.351151 627.517700,169.568451 632.875977,181.557190 
	C638.654907,194.487030 641.819519,208.176270 642.843689,222.179977 
	C643.753479,234.619537 642.798889,247.043137 640.125061,259.395325 
	C635.266235,281.841064 625.416443,301.538574 610.039307,318.564484 
	C608.048767,320.768463 606.717468,323.567780 605.080750,326.091339 
M510.241943,155.017456 
	C487.704071,163.824646 465.130402,172.517395 440.562561,176.593643 
	C440.562561,192.651138 440.562561,208.668106 440.562561,224.788025 
	C442.179321,224.788025 443.921600,224.788025 446.239929,224.788025 
	C445.808868,220.494476 445.033264,216.464813 445.075439,212.443710 
	C445.172485,203.194427 445.537659,193.940735 446.148376,184.712265 
	C446.234528,183.410233 448.093933,181.548157 449.493744,181.116592 
	C461.739960,177.340988 474.104034,173.948593 486.359863,170.202744 
	C494.604706,167.682816 502.730896,164.774796 510.993073,162.876251 
	C510.982025,171.877426 505.092346,178.772858 501.558105,187.362595 
	C505.069733,185.204041 507.712189,183.579773 510.335205,181.967468 
	C510.210419,184.058334 510.018311,185.822205 510.014008,187.586533 
	C509.986389,198.915192 509.785095,210.250000 510.105103,221.569672 
	C510.234070,226.131699 508.644897,227.217514 504.376465,227.110397 
	C498.970764,226.974716 493.548309,227.816833 488.126923,227.923950 
	C480.111816,228.082291 472.091278,227.964859 463.321930,227.964859 
	C465.666229,224.560211 467.393707,222.051392 469.693878,218.710800 
	C462.800781,221.808060 457.179810,224.866180 451.205170,226.869492 
	C445.154755,228.898224 438.754486,229.883774 433.617340,231.069977 
	C444.912018,234.814255 456.942780,238.802567 468.778473,242.726196 
	C467.668427,240.825027 466.164246,238.248856 464.426422,235.272491 
	C468.379791,235.556854 471.460388,235.943817 474.544006,235.969681 
	C484.372650,236.052078 494.217316,236.322510 504.025696,235.869202 
	C509.211945,235.629517 510.094116,237.867447 510.049225,242.197708 
	C509.912842,255.357590 509.928375,268.520447 510.049072,281.680634 
	C510.080170,285.068512 510.716156,288.450775 511.183533,292.868011 
	C507.250031,289.975616 504.428223,287.900665 501.606445,285.825714 
	C501.280121,286.118561 500.953766,286.411438 500.627441,286.704315 
	C511.539093,298.997040 511.336121,314.784851 514.517029,329.567108 
	C517.539307,314.644043 517.521240,298.942810 528.501770,286.528137 
	C528.095337,286.297607 527.688904,286.067108 527.282532,285.836609 
	C524.669617,287.777710 522.056702,289.718842 519.001465,291.988556 
	C519.001465,274.071320 518.940002,256.648590 519.148743,239.229111 
	C519.161804,238.144135 521.280212,236.170181 522.442688,236.152390 
	C536.482971,235.937454 550.527710,236.013138 564.785889,236.013138 
	C562.679932,239.168732 560.889343,241.851852 559.098755,244.534973 
	C559.343872,244.907181 559.589050,245.279404 559.834229,245.651611 
	C570.467590,236.379501 583.738586,234.479919 596.057190,231.889572 
	C584.593262,228.238266 572.703003,224.451187 560.957886,220.710312 
	C562.006714,222.401505 563.387024,224.627060 565.221436,227.584869 
	C562.992798,227.758270 561.437012,228.016220 559.888550,227.978058 
	C547.973328,227.684341 536.059021,227.097275 524.145508,227.122498 
	C519.730652,227.131836 518.782898,225.575256 518.925293,221.594254 
	C519.181213,214.440109 519.152588,207.264221 518.920837,200.107834 
	C518.727539,194.137726 518.073364,188.182541 517.536011,181.064240 
	C521.292480,183.683212 523.823059,185.447479 526.353638,187.211746 
	C526.806274,186.948898 527.258911,186.686066 527.711609,186.423233 
	C517.657410,174.436050 517.719788,159.466080 514.725769,145.248657 
	C513.415283,148.737854 512.207886,151.952621 510.241943,155.017456 
M601.508911,315.917725 
	C612.007690,304.548279 620.488098,291.948425 626.220459,277.449493 
	C634.308899,256.991516 636.858765,235.879227 633.869507,214.228424 
	C631.833862,199.484161 626.807129,185.532867 619.166077,172.711258 
	C614.860596,165.486557 609.869080,158.670700 605.761597,152.530273 
	C602.994934,154.753189 600.948364,156.397552 598.920227,158.027069 
	C635.028870,197.592514 638.944214,264.724335 595.252380,310.807800 
	C597.141296,312.340393 599.058960,313.896271 601.508911,315.917725 
M589.000000,191.671173 
	C588.666138,187.425797 588.487183,183.158493 587.891785,178.950134 
	C587.739258,177.872528 586.439270,176.399643 585.380981,176.092636 
	C572.457153,172.343552 559.390259,169.066666 546.547119,165.067917 
	C537.346802,162.203369 528.427673,158.436081 519.209167,155.006851 
	C518.478638,159.411804 519.971069,161.784729 523.982117,163.067108 
	C541.501160,168.668182 558.897156,174.664963 576.492249,180.009811 
	C581.504822,181.532471 583.089722,184.158295 583.036438,188.914429 
	C582.919067,199.399109 582.944275,209.886551 583.045227,220.371567 
	C583.066467,222.572662 581.774048,225.839966 585.886780,225.967484 
	C590.031738,226.096008 588.949097,222.863815 588.967773,220.599915 
	C589.044739,211.279648 589.000000,201.958405 589.000000,191.671173 
M544.951355,305.564087 
	C554.858215,297.154510 564.166992,288.202515 571.312134,277.210571 
	C579.256897,264.988495 584.210388,251.641434 587.125122,237.200424 
	C581.085693,238.632828 581.156250,238.651901 579.960693,243.072998 
	C575.059753,261.197540 566.762329,277.575043 552.876221,290.362579 
	C544.677063,297.913025 535.620728,304.731232 526.173401,310.636627 
	C522.006226,313.241425 520.427002,315.559235 520.812927,320.780121 
	C528.888550,315.696350 536.612915,310.833710 544.951355,305.564087 
M452.401947,254.923492 
	C451.274475,251.246887 450.022736,247.602844 449.048798,243.886002 
	C447.606110,238.380478 447.689972,238.358505 441.895355,237.442307 
	C449.530518,276.887756 473.200378,303.062256 508.958130,320.623291 
	C508.405304,317.505585 508.020172,315.333832 507.633667,313.159088 
	C483.871002,302.116638 461.364136,279.803955 452.401947,254.923492 
M559.807495,219.174637 
	C560.164307,219.103226 560.521057,219.031815 560.877869,218.960403 
	C560.802917,218.717163 560.685791,218.257568 560.659302,218.262711 
	C560.163879,218.359299 559.679260,218.511047 559.807495,219.174637 
z"/>
<path fill="#000000" opacity="1.000000" stroke="none" 
	d="
M405.699188,331.200409 
	C396.222046,320.045807 388.571014,308.176239 382.548828,295.180939 
	C376.750122,282.667694 372.703125,269.673096 371.089020,256.029724 
	C369.952820,246.425491 368.804779,236.688293 369.167664,227.067245 
	C370.112122,202.026505 375.997803,178.171097 389.726898,156.840286 
	C395.937500,147.190842 402.910278,138.031921 410.568695,127.190331 
	C420.055908,138.150970 428.714081,148.153854 437.999939,158.881882 
	C419.422272,177.573242 408.485291,202.320343 408.155518,230.968155 
	C407.824585,259.718994 418.300659,284.655762 437.475006,305.383148 
	C427.953430,314.881592 418.332581,324.479095 408.545593,334.242310 
	C408.203979,333.871918 407.083710,332.657288 405.699188,331.200409 
M386.000000,224.583282 
	C387.802734,214.078278 388.548370,203.249756 391.642303,193.139923 
	C397.020935,175.564499 406.000183,159.717010 419.000031,146.389038 
	C419.891357,145.475174 420.026489,143.823730 420.513306,142.515305 
	C366.625244,195.816223 377.852570,282.941193 417.384735,319.270020 
	C416.703949,317.397705 415.828522,315.574158 414.548645,314.102295 
	C406.529816,304.880524 400.754272,294.366699 395.941956,283.190887 
	C387.999481,264.745819 385.104889,245.498016 386.000000,224.583282 
z"/>
<path fill="#000000" opacity="1.000000" stroke="none" 
	d="
M373.002289,429.825745 
	C372.998901,417.000000 372.998901,417.000000 385.182587,417.000000 
	C390.177917,417.000000 395.175598,417.092407 400.167603,416.963562 
	C402.916901,416.892639 404.143372,417.866974 404.033478,420.715607 
	C403.893921,424.334198 403.999725,427.962250 403.999725,431.996490 
	C394.031525,431.996490 384.421539,432.027191 374.813049,431.923981 
	C374.204376,431.917450 373.606903,430.868561 373.002289,429.825745 
z"/>
<path fill="#000000" opacity="1.000000" stroke="none" 
	d="
M370.203125,477.998169 
	C368.934631,476.269623 368.137634,474.542664 367.067413,472.223572 
	C371.682922,472.223572 375.065247,472.223572 378.725647,472.223572 
	C378.725647,473.958099 378.725647,475.682434 378.725647,477.999756 
	C376.146545,477.999756 373.410583,477.999756 370.203125,477.998169 
z"/>
<path fill="#000000" opacity="1.000000" stroke="none" 
	d="
M493.962402,483.960419 
	C491.527649,484.611633 489.122681,484.885559 486.713135,484.934387 
	C486.159088,484.945679 485.387573,484.289093 485.101044,483.739258 
	C484.923492,483.398499 485.534882,482.184814 485.684052,482.203979 
	C488.462585,482.560944 491.224854,483.044434 493.962402,483.960419 
z"/>
<path fill="#000000" opacity="1.000000" stroke="none" 
	d="
M538.151733,478.407379 
	C539.792419,473.379364 543.278381,477.304199 545.923950,476.738251 
	C544.194214,480.082916 541.121399,479.074158 538.151733,478.407379 
z"/>
<path fill="#000000" opacity="1.000000" stroke="none" 
	d="
M588.131592,476.033081 
	C591.234985,476.865356 595.698853,473.633545 596.066040,479.633545 
	C596.313965,483.685883 595.173462,485.707825 590.815002,485.025940 
	C589.707275,484.852600 588.549255,484.999939 586.763367,484.999939 
	C587.089050,481.783417 587.378723,478.922546 588.131592,476.033081 
z"/>
<path fill="#000000" opacity="1.000000" stroke="none" 
	d="
M640.001831,478.166992 
	C642.579102,477.237000 645.235779,476.252197 647.680908,476.631500 
	C648.415588,476.745483 649.608582,481.857178 648.767578,482.592072 
	C646.752258,484.353241 643.653870,484.875000 640.000183,486.278076 
	C640.000183,482.825745 640.000183,480.730408 640.001831,478.166992 
z"/>
<path fill="#000000" opacity="1.000000" stroke="none" 
	d="
M437.998199,482.832947 
	C435.420929,483.762939 432.764191,484.747772 430.319092,484.368408 
	C429.584351,484.254395 428.391449,479.142548 429.232452,478.407623 
	C431.247925,476.646515 434.346436,476.124847 437.999847,474.721954 
	C437.999847,478.174133 437.999847,480.269501 437.998199,482.832947 
z"/>
<path fill="#FFFFFF" opacity="1.000000" stroke="none" 
	d="
M511.000488,155.167389 
	C512.207886,151.952621 513.415283,148.737854 514.725769,145.248657 
	C517.719788,159.466080 517.657410,174.436050 527.711609,186.423233 
	C527.258911,186.686066 526.806274,186.948898 526.353638,187.211746 
	C523.823059,185.447479 521.292480,183.683212 517.536011,181.064240 
	C518.073364,188.182541 518.727539,194.137726 518.920837,200.107834 
	C519.152588,207.264221 519.181213,214.440109 518.925293,221.594254 
	C518.782898,225.575256 519.730652,227.131836 524.145508,227.122498 
	C536.059021,227.097275 547.973328,227.684341 559.888550,227.978058 
	C561.437012,228.016220 562.992798,227.758270 565.221436,227.584869 
	C563.387024,224.627060 562.006714,222.401505 560.957886,220.710312 
	C572.703003,224.451187 584.593262,228.238266 596.057190,231.889572 
	C583.738586,234.479919 570.467590,236.379501 559.834229,245.651611 
	C559.589050,245.279404 559.343872,244.907181 559.098755,244.534973 
	C560.889343,241.851852 562.679932,239.168732 564.785889,236.013138 
	C550.527710,236.013138 536.482971,235.937454 522.442688,236.152390 
	C521.280212,236.170181 519.161804,238.144135 519.148743,239.229111 
	C518.940002,256.648590 519.001465,274.071320 519.001465,291.988556 
	C522.056702,289.718842 524.669617,287.777710 527.282532,285.836609 
	C527.688904,286.067108 528.095337,286.297607 528.501770,286.528137 
	C517.521240,298.942810 517.539307,314.644043 514.517029,329.567108 
	C511.336121,314.784851 511.539093,298.997040 500.627441,286.704315 
	C500.953766,286.411438 501.280121,286.118561 501.606445,285.825714 
	C504.428223,287.900665 507.250031,289.975616 511.183533,292.868011 
	C510.716156,288.450775 510.080170,285.068512 510.049072,281.680634 
	C509.928375,268.520447 509.912842,255.357590 510.049225,242.197708 
	C510.094116,237.867447 509.211945,235.629517 504.025696,235.869202 
	C494.217316,236.322510 484.372650,236.052078 474.544006,235.969681 
	C471.460388,235.943817 468.379791,235.556854 464.426422,235.272491 
	C466.164246,238.248856 467.668427,240.825027 468.778473,242.726196 
	C456.942780,238.802567 444.912018,234.814255 433.617340,231.069977 
	C438.754486,229.883774 445.154755,228.898224 451.205170,226.869492 
	C457.179810,224.866180 462.800781,221.808060 469.693878,218.710800 
	C467.393707,222.051392 465.666229,224.560211 463.321930,227.964859 
	C472.091278,227.964859 480.111816,228.082291 488.126923,227.923950 
	C493.548309,227.816833 498.970764,226.974716 504.376465,227.110397 
	C508.644897,227.217514 510.234070,226.131699 510.105103,221.569672 
	C509.785095,210.250000 509.986389,198.915192 510.014008,187.586533 
	C510.018311,185.822205 510.210419,184.058334 510.335205,181.967468 
	C507.712189,183.579773 505.069733,185.204041 501.558105,187.362595 
	C505.092346,178.772858 510.982025,171.877426 511.236755,162.233307 
	C511.320465,159.449387 511.160461,157.308380 511.000488,155.167389 
z"/>
<path fill="#FFFFFF" opacity="1.000000" stroke="none" 
	d="
M601.242737,315.684937 
	C599.058960,313.896271 597.141296,312.340393 595.252380,310.807800 
	C638.944214,264.724335 635.028870,197.592514 598.920227,158.027069 
	C600.948364,156.397552 602.994934,154.753189 605.761597,152.530273 
	C609.869080,158.670700 614.860596,165.486557 619.166077,172.711258 
	C626.807129,185.532867 631.833862,199.484161 633.869507,214.228424 
	C636.858765,235.879227 634.308899,256.991516 626.220459,277.449493 
	C620.488098,291.948425 612.007690,304.548279 601.242737,315.684937 
z"/>
<path fill="#FFFFFF" opacity="1.000000" stroke="none" 
	d="
M589.000000,192.154343 
	C589.000000,201.958405 589.044739,211.279648 588.967773,220.599915 
	C588.949097,222.863815 590.031738,226.096008 585.886780,225.967484 
	C581.774048,225.839966 583.066467,222.572662 583.045227,220.371567 
	C582.944275,209.886551 582.919067,199.399109 583.036438,188.914429 
	C583.089722,184.158295 581.504822,181.532471 576.492249,180.009811 
	C558.897156,174.664963 541.501160,168.668182 523.982117,163.067108 
	C519.971069,161.784729 518.478638,159.411804 519.209167,155.006851 
	C528.427673,158.436081 537.346802,162.203369 546.547119,165.067917 
	C559.390259,169.066666 572.457153,172.343552 585.380981,176.092636 
	C586.439270,176.399643 587.739258,177.872528 587.891785,178.950134 
	C588.487183,183.158493 588.666138,187.425797 589.000000,192.154343 
z"/>
<path fill="#FFFFFF" opacity="1.000000" stroke="none" 
	d="
M510.621216,155.092422 
	C511.160461,157.308380 511.320465,159.449387 511.195312,161.815384 
	C502.730896,164.774796 494.604706,167.682816 486.359863,170.202744 
	C474.104034,173.948593 461.739960,177.340988 449.493744,181.116592 
	C448.093933,181.548157 446.234528,183.410233 446.148376,184.712265 
	C445.537659,193.940735 445.172485,203.194427 445.075439,212.443710 
	C445.033264,216.464813 445.808868,220.494476 446.239929,224.788025 
	C443.921600,224.788025 442.179321,224.788025 440.562561,224.788025 
	C440.562561,208.668106 440.562561,192.651138 440.562561,176.593643 
	C465.130402,172.517395 487.704071,163.824646 510.621216,155.092422 
z"/>
<path fill="#FFFFFF" opacity="1.000000" stroke="none" 
	d="
M544.644287,305.767578 
	C536.612915,310.833710 528.888550,315.696350 520.812927,320.780121 
	C520.427002,315.559235 522.006226,313.241425 526.173401,310.636627 
	C535.620728,304.731232 544.677063,297.913025 552.876221,290.362579 
	C566.762329,277.575043 575.059753,261.197540 579.960693,243.072998 
	C581.156250,238.651901 581.085693,238.632828 587.125122,237.200424 
	C584.210388,251.641434 579.256897,264.988495 571.312134,277.210571 
	C564.166992,288.202515 554.858215,297.154510 544.644287,305.767578 
z"/>
<path fill="#FFFFFF" opacity="1.000000" stroke="none" 
	d="
M452.678223,255.222107 
	C461.364136,279.803955 483.871002,302.116638 507.634338,313.160583 
	C508.020172,315.333832 508.405304,317.505585 508.958130,320.623291 
	C473.200378,303.062256 449.530518,276.887756 441.895355,237.442307 
	C447.689972,238.358505 447.606110,238.380478 449.048798,243.886002 
	C450.022736,247.602844 451.274475,251.246887 452.678223,255.222107 
z"/>
<path fill="#FFFFFF" opacity="1.000000" stroke="none" 
	d="
M605.039062,326.047485 
	C606.717468,323.567780 608.048767,320.768463 610.039307,318.564484 
	C625.416443,301.538574 635.266235,281.841064 640.125061,259.395325 
	C642.798889,247.043137 643.753479,234.619537 642.843689,222.179977 
	C641.819519,208.176270 638.654907,194.487030 632.875977,181.557190 
	C627.517700,169.568451 620.919556,158.351151 612.109131,148.514236 
	C611.508606,147.843750 611.556458,146.592590 611.302734,145.611496 
	C611.878967,145.331894 612.455139,145.052292 613.031311,144.772675 
	C617.745911,151.710587 622.518799,158.609695 627.162537,165.594650 
	C636.131409,179.085190 641.354248,194.272003 643.621399,209.975082 
	C645.388611,222.216003 644.424805,234.929916 643.912292,247.402283 
	C643.197754,264.789368 637.342163,280.802124 628.973511,295.896637 
	C622.757324,307.108643 615.650085,317.697845 605.269958,325.956116 
	C604.909790,325.920227 604.997437,326.003601 605.039062,326.047485 
z"/>
<path fill="#FFFFFF" opacity="1.000000" stroke="none" 
	d="
M559.499878,218.912933 
	C559.679260,218.511047 560.163879,218.359299 560.659302,218.262711 
	C560.685791,218.257568 560.802917,218.717163 560.877869,218.960403 
	C560.521057,219.031815 560.164307,219.103226 559.499878,218.912933 
z"/>
<path fill="#FFFFFF" opacity="1.000000" stroke="none" 
	d="
M386.000000,225.073059 
	C385.104889,245.498016 387.999481,264.745819 395.941956,283.190887 
	C400.754272,294.366699 406.529816,304.880524 414.548645,314.102295 
	C415.828522,315.574158 416.703949,317.397705 417.384735,319.270020 
	C377.852570,282.941193 366.625244,195.816223 420.513306,142.515305 
	C420.026489,143.823730 419.891357,145.475174 419.000031,146.389038 
	C406.000183,159.717010 397.020935,175.564499 391.642303,193.139923 
	C388.548370,203.249756 387.802734,214.078278 386.000000,225.073059 
z"/>
</svg>