<?xml version="1.0" encoding="UTF-8"?>
<svg width="962" height="1024" viewBox="0 0 962 1024" xmlns="http://www.w3.org/2000/svg">
  <defs>
    <filter id="glow" x="-50%" y="-50%" width="200%" height="200%">
      <feGaussianBlur stdDeviation="4" result="blur"/>
      <feMerge>
        <feMergeNode in="blur"/>
        <feMergeNode in="SourceGraphic"/>
      </feMerge>
    </filter>
    <mask id="cutout-mask">
      <rect x="0" y="0" width="962" height="1024" fill="white"/>
      <path fill="black" d="M711.804504,359.795959 C698.737183,366.287842 685.668213,372.776520 672.605103,379.276703 C671.288513,379.931793 670.006653,380.656647 668.701843,381.352753 C665.091309,373.227661 666.149048,366.895599 672.064514,360.755035 C686.030457,346.257690 703.872559,338.773743 722.700684,333.387695 C732.066162,330.708588 741.736267,329.094299 752.580750,326.709808 C751.407654,331.071533 750.796082,334.219116 749.722351,337.200226 C740.748840,362.114685 726.515076,382.981567 703.278687,396.763336 C700.454956,398.438141 697.374329,399.769379 694.274902,400.872345 C686.030762,403.806030 677.711365,406.527954 669.050354,409.459869 C669.050354,404.898285 668.708252,399.976837 669.237549,395.150970 C669.420593,393.482269 671.560486,391.777618 673.161865,390.554596 C686.100159,380.673676 699.123108,370.903625 712.576294,360.701477 C713.262878,359.967346 713.493408,359.631439 713.723938,359.295532 C713.084106,359.462341 712.444336,359.629150 711.804504,359.795959 z" />
      <path fill="black" d="M243.183182,361.635742 C253.846573,370.069397 264.285156,378.812775 275.277832,386.792816 C280.048859,390.256317 283.072327,393.432831 281.600525,399.679352 C280.894592,402.675415 281.156677,405.899597 280.977997,409.061920 C235.197968,396.994568 213.004929,369.574707 203.599014,327.209808 C211.919159,328.957672 219.855774,330.343170 227.642853,332.318237 C244.979462,336.715454 261.502136,342.969604 275.338196,354.839691 C276.347626,355.705658 277.297485,356.643890 278.334137,357.474792 C286.078644,363.682129 288.475616,371.162323 283.564606,380.364563 C270.857574,373.906647 257.943542,367.343536 244.448608,360.445862 C243.289139,360.082672 242.710556,360.054047 242.131973,360.025391 C242.482376,360.562164 242.832779,361.098969 243.183182,361.635742 z" />
      <path fill="black" d="M655.495361,455.576874 C657.605347,453.618958 659.251404,451.266235 661.454529,450.485596 C675.924744,445.358398 690.519653,440.583679 705.060181,435.653381 C706.678650,435.104553 708.210693,434.300934 709.782837,433.615509 C709.666809,433.079681 709.550781,432.543854 709.434753,432.008057 C694.103394,434.168610 678.772095,436.329193 663.088196,438.539459 C663.922241,432.625458 665.297241,427.545166 671.332031,424.044800 C694.310852,410.716400 718.572327,408.425842 744.013367,414.406952 C747.374207,415.197113 750.707275,416.105591 754.426147,417.054443 C739.174438,440.780090 719.505493,457.780670 691.758606,463.941559 C689.559631,464.429810 687.163818,464.326447 684.890320,464.133911 C674.325928,463.239288 663.772461,462.216339 652.730347,461.194458 C653.388062,459.835938 654.338623,457.872559 655.495361,455.576874 z" />
      <path fill="black" d="M267.071716,417.882904 C269.089508,418.780396 270.741333,419.557251 272.407562,420.301971 C280.166321,423.769897 285.069397,429.196991 284.609650,438.446259 C270.365051,436.299957 256.009827,434.136993 241.654572,431.974030 C241.514465,432.417603 241.374359,432.861145 241.234253,433.304718 C242.042847,433.822693 242.788467,434.516235 243.669495,434.832245 C255.969284,439.243683 268.104340,444.268066 280.668549,447.732147 C288.481903,449.886383 292.119934,454.485138 294.089325,461.268860 C282.490936,462.241547 270.707214,464.995667 259.344177,463.788727 C239.966721,461.730591 225.273132,449.713776 212.386551,435.853271 C207.213470,430.289215 202.943192,423.885742 197.688904,417.127167 C221.497620,410.672058 244.133408,408.262909 267.071716,417.882904 z" />
      <path fill="black" d="M503.363708,406.264801 C496.678040,405.225800 491.718048,401.973602 490.389252,395.709290 C489.202637,390.114990 487.045929,385.930359 481.397095,383.825500 C481.586151,383.418365 481.775177,383.011261 481.964233,382.604156 C486.270233,383.518372 490.645111,384.193787 494.863708,385.410980 C499.480164,386.743073 503.941925,388.605286 508.490082,390.181702 C512.876587,391.702026 517.287292,393.152557 522.058350,394.758667 C516.975220,400.335663 512.660767,406.829987 503.363708,406.264801 z" />
      <path fill="black" d="M285.220337,344.757233 C285.433868,344.986755 285.555725,345.318268 285.677582,345.649780 C285.454895,345.629608 285.232239,345.609436 284.976013,345.324890 C284.942444,345.060516 285.128662,344.859222 285.220337,344.757233 z" />
      <path fill="black" d="M668.896362,343.937256 C668.943237,344.267303 669.029297,344.616058 669.115417,344.964783 C668.888489,344.737488 668.661499,344.510162 668.721069,344.143860 C669.007568,344.004822 668.935669,343.955933 668.896362,343.937256 z" />
      <path fill="black" d="M823.667053,435.544006 C823.928040,435.529388 824.364319,435.755127 824.517761,436.106049 C824.104065,436.082306 823.973206,435.933319 823.667053,435.544006 z" />
      <path fill="black" d="M711.964661,359.976685 C712.444336,359.629150 713.084106,359.462341 713.723938,359.295532 C713.493408,359.631439 713.262878,359.967346 712.735962,360.413574 C712.439453,360.523926 712.124817,360.157410 711.964661,359.976685 z" />
      <path fill="black" d="M243.473633,361.405029 C242.832779,361.098969 242.482376,360.562164 242.131973,360.025391 C242.710556,360.054047 243.289139,360.082672 244.089569,360.392426 C244.128967,360.840454 243.946518,361.007385 243.473633,361.405029 z" />
    </mask>
  </defs>
  <!-- Eagle Head Profile -->
  <g filter="url(#glow)">
    <rect x="0" y="0" width="962" height="1024" fill="#4dc9ff" mask="url(#cutout-mask)" opacity="0.9"/>
  </g>
</svg>