<?xml version="1.0" encoding="UTF-8"?>
<svg width="962" height="1024" viewBox="0 0 962 1024" xmlns="http://www.w3.org/2000/svg">
  <defs>
    <filter id="glow" x="-50%" y="-50%" width="200%" height="200%">
      <feGaussianBlur stdDeviation="3" result="blur"/>
      <feMerge>
        <feMergeNode in="blur"/>
        <feMergeNode in="SourceGraphic"/>
      </feMerge>
    </filter>
    <mask id="eagle-mask">
      <!-- White background = visible, black paths = cut out -->
      <rect x="0" y="0" width="962" height="1024" fill="white"/>
      <path fill="black" d="M481.468689,1025.000000 C492.878235,1020.043396 504.870819,1015.342407 516.615662,1010.087646 C583.855652,980.004028 645.732971,941.339539 701.387573,893.033508 C750.161011,850.700073 793.075439,803.028625 829.177856,749.378784 C869.879395,688.894409 900.989258,623.732910 924.085388,554.643127 C937.964966,513.123718 948.163330,470.697571 956.065186,427.691895 C958.404846,414.958740 960.206970,402.126862 962.627686,389.170105 C963.000000,600.917114 963.000000,812.834229 963.000000,1025.000000 C802.645874,1025.000000 642.291565,1025.000000 481.468689,1025.000000 z" />
      <path fill="black" d="M0.999999,421.468658 C2.273468,428.091400 3.639346,435.167633 4.805599,442.276642 C13.111098,492.903595 25.878307,542.257263 45.210468,589.914001 C73.642685,660.003784 111.357231,724.634888 157.664658,784.340210 C198.398605,836.859497 244.924652,883.612122 297.773315,923.924988 C349.325806,963.249268 404.947083,995.569824 465.383057,1019.355713 C469.849396,1021.113586 474.413086,1022.624146 478.965759,1024.624756 C319.731049,1025.000000 160.462097,1025.000000 1.000000,1025.000000 C1.000000,823.979126 1.000000,622.958252 0.999999,421.468658 z" />
      <path fill="black" d="M341.531342,0.999999 C333.122345,2.626133 324.257721,4.327801 315.364868,5.866140 C257.757935,15.831361 201.303909,30.190399 146.325974,50.173832 C136.021347,53.919369 125.724991,57.696823 115.521042,61.704536 C112.477432,62.899952 110.772186,62.405300 108.998711,59.666721 C96.451538,40.291573 83.777306,20.998705 71.071800,1.339798 C161.020889,1.000000 251.041794,1.000000 341.531342,0.999999 z" />
      <path fill="black" d="M891.531372,0.999998 C891.473450,2.412582 891.187012,3.981508 890.384338,5.214245 C878.944763,22.780640 867.330933,40.234566 856.019836,57.882706 C853.349731,62.048794 850.840759,62.524429 846.299927,60.777493 C790.549194,39.329159 733.559509,21.960779 674.962769,10.186703 C657.892029,6.756608 640.581787,4.518192 623.190674,1.366768 C712.354248,1.000000 801.708435,1.000000 891.531372,0.999998 z" />
      <path fill="black" d="M963.000000,113.531342 C962.318481,110.494453 959.882935,108.835541 956.785706,107.464035 C945.576721,102.500549 934.501160,97.234695 923.271179,92.320740 C920.864807,91.267792 920.094360,90.038261 920.146973,87.522461 C920.298096,80.293106 920.200195,73.058540 919.356506,65.693031 C915.443298,72.143555 911.530090,78.594078 907.375610,85.442299 C904.868469,84.368408 902.644714,83.415901 900.119080,82.334106 C904.625122,55.363220 905.636475,28.568289 899.952026,1.413247 C920.947693,1.000000 941.895325,1.000000 963.000000,1.000000 C963.000000,38.354092 963.000000,75.708389 963.000000,113.531342 z" />
      <path fill="black" d="M61.531342,1.000000 C61.030643,8.891866 59.195621,16.791704 59.268208,24.673973 C59.430210,42.265533 60.064484,59.889050 61.551682,77.410820 C62.020950,82.939636 60.622643,84.993454 55.212917,86.274155 C51.096302,79.270058 46.863472,72.068230 42.630646,64.866402 C42.316898,64.870094 42.003151,64.873779 41.689404,64.877472 C41.689404,72.557800 41.536381,80.242599 41.760761,87.916374 C41.857639,91.229431 40.728580,92.792107 37.655491,94.179550 C28.440897,98.339790 19.523621,103.156822 10.323807,107.352440 C6.795456,108.961548 5.422062,111.371864 5.054122,114.918533 C3.991844,125.158127 2.849199,135.389389 1.369056,145.811951 C1.000000,103.312439 1.000000,60.624878 1.437442,17.469276 C8.738209,16.996145 10.205256,15.966206 10.996285,11.012108 C11.532526,7.653716 12.323148,4.335941 13.000000,1.000000 C29.020895,1.000000 45.041790,1.000000 61.531342,1.000000 z" />
      <path fill="black" d="M12.520824,1.000000 C12.323148,4.335941 11.532526,7.653716 10.996285,11.012108 C10.205256,15.966206 8.738209,16.996145 1.437442,17.000618 C1.000000,11.755559 1.000000,6.511118 1.000000,1.000000 C4.676376,1.000000 8.359013,1.000000 12.520824,1.000000 z" />
      <path fill="black" d="M277.430847,632.455200 C287.246002,626.654358 297.061188,620.853577 307.388702,614.749939 C307.481567,616.086060 307.651337,616.998657 307.592224,617.896240 C303.656097,677.644653 317.313904,733.683777 342.729340,787.402100 C362.245087,828.650879 387.172058,866.484497 414.094543,903.126099 C415.244385,904.691040 416.303375,906.322693 417.766266,908.448914 C383.415833,898.427795 274.501892,804.761963 228.228210,747.231628 C175.632889,681.841919 134.062103,610.386902 105.613510,531.201843 C128.175858,554.062073 154.823242,567.718689 188.208588,569.281860 C173.148682,586.615906 161.251572,604.923157 155.375565,627.449524 C179.851013,638.876404 205.048950,643.537109 232.262650,635.589478 C232.922043,635.894531 233.038651,636.022827 233.155258,636.151184 C223.910187,653.144836 219.056656,671.512695 216.158356,690.491150 C215.985855,691.620605 215.870956,692.758789 215.634537,694.651123 C232.010483,692.158630 247.587677,688.428955 262.903870,681.014038 C258.986786,697.349670 258.890656,712.948914 262.647339,728.505798 C267.275696,747.672546 275.870331,765.016968 287.762939,780.620972 C308.570953,807.922546 333.140930,831.531677 360.018188,852.792603 C360.738281,853.362244 361.617249,853.731079 362.962677,853.846741 C338.286285,812.956238 317.555481,770.394165 304.845062,724.711304 C300.757141,736.194397 296.577454,747.935364 292.081116,760.565796 C276.984344,737.526611 271.128143,713.771240 275.536224,687.557434 C277.264496,677.279846 280.947113,668.499329 289.650299,662.260742 C292.675812,660.091980 293.969208,657.282288 293.398041,653.234314 C292.802094,649.010925 293.265015,644.638123 292.749878,639.792297 C277.635803,660.176514 257.037628,671.500916 231.913574,677.860962 C233.678970,671.497803 234.884369,665.694702 236.893875,660.184937 C242.809799,643.964050 252.458969,630.084839 264.920441,618.256775 C270.896362,612.584595 275.968872,606.451721 279.949158,599.204590 C287.231201,585.946106 294.945740,572.925232 302.457916,559.792664 C303.238251,558.428467 303.870483,556.979492 304.725067,555.260925 C297.533264,556.542603 291.000122,557.706970 283.548431,559.034973 C284.143341,556.615662 284.296204,555.355347 284.756134,554.219482 C291.528076,537.495850 303.443604,526.165527 320.627319,520.626709 C323.906738,519.569641 325.984467,517.920532 327.496460,514.850159 C330.362122,509.030731 333.423889,503.289734 336.747711,497.721191 C338.648590,494.536652 338.207275,492.667999 335.420441,490.172821 C321.157532,477.402557 308.813629,463.115753 301.699921,444.983368 C294.254944,426.006592 292.411713,406.560059 297.141663,386.646179 C299.848877,375.248383 302.123291,363.869690 299.852264,352.077179 C296.146332,332.833710 284.845398,318.298218 271.033783,305.309662 C269.480408,303.848877 267.676910,302.654083 265.511597,301.822113 C274.187775,315.033478 281.934235,328.431946 285.269409,344.369324 C285.128662,344.859222 284.942444,345.060516 284.942444,345.060516 C275.957367,338.860840 265.797028,333.831940 258.221863,326.227753 C240.169678,308.106384 230.386276,285.452911 227.120636,260.104431 C226.146683,252.544296 225.847229,244.897293 226.359863,236.749557 C228.541046,239.040604 230.758240,241.298553 232.897812,243.627823 C254.688461,267.350494 278.557373,288.753571 303.321716,309.371307 C323.871338,326.480011 330.653931,349.224152 323.078766,375.466522 C319.439148,388.075012 315.074646,400.467560 315.303162,413.913727 C315.706940,437.669434 325.659576,457.052002 342.071625,474.384918 C344.434723,470.129669 346.782135,466.353180 348.584839,462.332428 C349.023010,461.355133 347.962250,459.353973 347.093567,458.196808 C338.054901,446.156616 331.231903,433.234863 330.136047,417.847839 C329.410522,407.660706 331.502655,397.974945 334.976654,388.504181 C341.958435,369.470398 343.463684,350.337372 336.219086,330.985504 C330.451080,315.577911 320.844391,303.058258 307.811554,293.145508 C280.089203,272.059875 255.521881,247.580673 233.141037,221.097000 C207.798355,191.108505 183.722488,160.049423 159.106003,129.447617 C158.613312,128.835114 158.246078,128.121689 157.463394,126.896751 C259.297028,87.174133 363.865753,63.083958 473.776001,62.489197 C473.776001,154.956299 473.776001,247.188721 473.776001,340.100616 C479.153076,339.772064 484.019073,339.474731 489.395691,339.146179 C489.395691,246.780197 489.395691,154.705795 489.395691,62.440941 C599.198975,62.786564 703.862671,85.763000 805.762939,126.529900 C801.881653,131.750778 798.265625,136.803192 794.457764,141.706696 C768.710754,174.862045 742.539429,207.663940 712.609863,237.228653 C692.216309,257.373627 670.984985,276.480804 647.517883,293.148895 C625.663269,308.671600 613.841614,330.642853 612.410522,357.385956 C611.942444,366.131622 613.892883,375.253876 616.102661,383.852997 C625.714600,421.256195 615.453308,452.983887 589.633301,480.563080 C588.156555,482.140411 586.567566,483.612671 584.571777,485.479248 C583.771240,486.082001 583.429810,486.339264 583.088379,486.596558 C583.880127,486.574219 584.671875,486.551880 585.463623,486.529541 C613.165161,471.311646 642.698547,434.900879 632.626709,389.403900 C630.727112,380.823059 627.970642,372.269196 627.410156,363.586670 C626.008972,341.884399 634.124878,323.145996 651.058044,310.060120 C679.409668,288.150055 707.115845,265.667908 732.384155,238.089264 C732.715515,255.771774 729.339783,271.301025 723.413696,286.319366 C712.965881,312.797302 694.995483,332.388092 669.094116,344.341492 C668.935669,343.955933 669.007568,344.004822 669.007568,344.004822 C672.568298,330.296265 679.760925,318.377808 687.399231,306.677979 C688.538452,304.932983 689.648926,303.169220 691.097290,300.907227 C689.718445,301.110260 688.650879,300.935913 688.223511,301.379028 C678.425293,311.537994 668.278687,321.365509 661.213379,333.858704 C653.145996,348.123535 651.062622,363.175629 653.946716,379.134186 C660.836670,417.258911 648.722229,449.639862 623.391235,477.656219 C606.067444,496.816498 585.276367,510.677094 559.630798,516.426270 C545.382996,519.620422 531.568054,517.461365 517.818542,513.679077 C515.820862,513.129517 513.806213,512.641174 509.827820,511.616882 C528.899780,540.530090 520.124634,563.363220 497.192413,584.579712 C496.925415,582.313599 496.636414,580.981689 496.630737,579.648621 C496.492920,547.322510 496.358704,514.996277 496.341370,482.670044 C496.340363,480.814697 496.867065,478.611023 497.942841,477.157806 C507.336243,464.469086 518.040222,452.904572 532.270203,445.765320 C539.071960,442.352844 547.048401,441.223236 554.552917,439.293091 C558.722961,438.220581 563.083435,437.877838 567.239319,436.763184 C574.056091,434.934906 578.933960,437.493530 582.647827,442.964569 C584.836731,446.189117 586.792236,449.572083 590.263550,452.974121 C592.394104,443.018127 594.731384,433.098358 596.489014,423.076935 C596.861694,420.951538 595.387695,418.321228 594.308472,416.150269 C584.046448,395.508179 584.146484,395.062164 562.262817,388.957306 C553.569763,386.532196 546.814087,383.205719 543.437073,374.515167 C541.518372,369.577332 537.400757,367.467499 532.485535,366.173065 C520.315063,362.967957 508.358307,358.710052 496.027618,356.439697 C487.853149,354.934631 479.176575,355.945251 470.732666,356.152313 C437.270935,356.972900 403.812378,357.921661 370.352448,358.816528 C369.041260,358.851593 367.728333,358.821014 365.860657,359.824829 C378.389862,368.161621 390.919067,376.498444 403.781708,385.057098 C392.477966,393.485443 381.648224,401.560394 369.774872,410.413452 C379.948730,410.413452 388.634460,410.413452 398.016907,410.413452 C358.978821,484.915009 320.384766,559.328491 276.486115,631.522522 C276.201965,632.361938 276.274414,632.719543 276.346863,633.077148 C276.708191,632.869873 277.069519,632.662537 277.430847,632.455200 M296.711914,697.255310 C296.711914,691.853333 296.711914,686.451416 296.711914,681.049438 C295.942322,681.026550 295.172699,681.003601 294.403107,680.980713 C293.339905,690.184998 292.276703,699.389343 291.213501,708.593628 C291.678802,708.644775 292.144104,708.695923 292.609406,708.747009 C292.697144,708.606812 292.814758,708.477112 292.868195,708.324829 C294.071472,704.895386 295.267731,701.463440 296.711914,697.255310 z" />
      <path fill="black" d="M865.702393,600.692322 C842.642029,655.164001 814.448425,706.315857 779.391479,753.552795 C757.807312,782.636047 733.713013,809.516724 707.761414,834.808899 C655.882324,885.369873 597.525879,926.886475 533.481384,960.498535 C517.751953,968.753723 501.546661,976.098938 485.633453,984.009888 C482.522125,985.556641 479.814209,985.531494 476.661255,984.229126 C445.859222,971.505493 416.386444,956.183105 387.777679,939.138550 C356.405548,920.447815 326.817047,899.239197 298.733368,875.934753 C259.230469,843.154358 224.070862,806.199768 192.152130,765.994873 C144.054398,705.411072 105.510727,639.297424 77.012520,567.485291 C56.407131,515.562134 42.779099,461.731171 35.737724,406.180908 C29.228554,354.829315 26.115879,303.339600 28.272387,251.668030 C29.645823,218.759476 32.957920,185.931320 35.440079,153.070099 C35.766129,148.753571 36.625038,144.459381 36.692146,140.146362 C36.756626,136.002060 38.694324,134.154068 41.714340,133.687134 C44.731239,153.530136 48.015373,173.178482 50.541500,192.923813 C51.309227,198.924698 50.078968,205.200455 49.604229,211.337967 C45.999374,257.941956 46.173920,304.527588 49.523323,351.151855 C52.582134,393.731110 58.232124,435.908966 68.597748,477.329376 C84.626450,541.379211 110.127983,601.540649 143.365692,658.580627 C178.270309,718.481323 219.857468,773.141113 269.226349,821.809082 C329.700989,881.425110 398.944153,928.164551 476.661285,962.389038 C479.830536,963.784668 482.358917,963.796143 485.527740,962.303772 C540.728943,936.306885 592.873657,905.353149 640.723755,867.338806 C691.380737,827.094604 736.002869,781.097595 772.994934,727.947876 C825.780518,652.106323 862.321899,568.808167 886.099609,479.703491 C897.352539,437.534332 904.633301,394.681854 909.444092,351.335602 C915.066040,300.680939 916.191284,249.917740 912.926697,199.118866 C912.021118,185.027588 915.510315,171.735901 916.604248,158.045517 C917.289124,149.474930 918.472839,140.944214 919.454529,132.201126 C924.783020,133.807663 927.964172,135.934509 928.626587,142.563370 C933.554138,191.876114 935.757690,241.277664 933.753357,290.785706 C929.931213,385.196228 912.684692,477.046356 879.789917,565.774109 C875.473083,577.417908 870.516846,588.824585 865.702393,600.692322 z" />
      <path fill="black" d="M535.708496,903.709900 C559.386047,877.577515 571.752441,847.069336 573.931763,811.309631 C584.933044,824.870056 596.390137,836.718506 611.224243,845.519714 C643.348022,816.081238 658.355713,780.228577 652.876282,735.349243 C669.180054,749.752197 687.016052,759.132141 707.620544,764.234009 C731.642517,723.602295 736.685791,681.933899 715.014160,637.947021 C744.463989,648.055725 772.088928,643.532532 799.137817,630.109131 C792.414734,607.201904 781.825562,587.034546 764.377563,569.783386 C798.545715,568.056152 826.491333,554.926086 848.915039,529.717651 C848.679565,544.714844 798.903809,648.478882 774.585144,686.802612 C743.246033,736.189758 705.981689,780.558105 663.090576,820.176880 C623.602234,856.652527 540.400940,914.635498 519.618896,920.240479 C525.517273,914.178040 530.487671,909.069397 535.708496,903.709900 z" />
      <path fill="black" d="M703.049561,53.049820 C741.429321,63.979065 779.284546,75.219101 815.973328,90.012146 C820.257202,91.739441 824.500427,93.567795 829.261169,95.557693 C825.643311,100.573090 822.397827,105.384422 818.747986,109.866516 C818.025452,110.753746 815.485718,111.011093 814.227722,110.489174 C773.222046,93.477066 730.856323,80.638733 687.934631,69.611046 C653.597473,60.788940 618.736511,54.723869 583.501892,50.577633 C545.376953,46.091282 507.168976,44.205082 468.805603,44.716255 C415.353546,45.428478 362.453857,51.148373 310.189728,62.348061 C255.602264,74.045624 202.219299,89.816765 150.458008,110.846512 C146.998276,112.252144 145.016037,111.798714 143.112640,108.611809 C141.069382,105.190704 138.549728,102.055061 136.259232,98.779991 C135.701157,97.982033 135.226212,97.125931 134.341278,95.695770 C145.127014,91.489311 155.617249,87.116478 166.299820,83.279160 C221.256424,63.538097 277.125092,46.870396 334.842804,37.562660 C364.527588,32.775604 394.557709,29.921829 424.516937,27.097832 C461.910583,23.573057 499.442444,23.996588 536.886108,26.293653 C589.979431,29.550779 642.405212,37.523773 693.992310,50.686577 C696.884460,51.424530 699.761230,52.222641 703.049561,53.049820 z" />
      <path fill="black" d="M849.758423,236.756989 C839.047791,247.679901 828.863770,259.189819 817.499756,269.384460 C801.529114,283.711700 784.696899,297.079773 768.176819,310.790131 C767.104858,311.679718 765.599365,312.310699 764.214294,312.517487 C752.547913,314.259338 740.863281,315.879333 729.180603,317.510620 C728.636353,317.586609 728.058533,317.422485 726.596802,317.286469 C740.617737,305.802124 754.198730,295.144928 767.261292,283.886261 C799.304077,256.268524 831.654846,228.915253 857.085632,194.637924 C874.154419,171.631561 888.549500,146.964401 902.032410,121.740601 C902.651672,120.582062 903.292603,119.435089 904.903381,118.385162 C904.559204,124.505997 904.410461,130.645203 903.837158,136.744492 C901.328491,163.434174 897.476135,189.878998 890.106995,215.750046 C877.888428,258.645691 853.035950,292.375519 816.384644,317.390076 C797.595093,330.213989 778.266785,342.248566 759.181946,354.639893 C758.802368,354.276855 758.422729,353.913849 758.043152,353.550842 C759.747192,348.696869 761.996094,343.956207 763.034607,338.963806 C764.840759,330.281860 769.401123,324.150635 776.278992,318.464691 C795.278809,302.757629 813.831299,286.416809 829.501465,267.257294 C837.064819,258.009674 843.583008,247.907257 850.812012,237.594040 C850.951538,236.722473 850.853577,236.448761 850.755554,236.175064 C850.423218,236.369049 850.090820,236.563019 849.758423,236.756989 z" />
      <path fill="black" d="M79.299362,239.769852 C71.301239,220.389771 66.426849,200.479141 63.410622,180.258713 C60.471092,160.552475 59.154232,140.604065 57.139038,120.760536 C57.060875,119.990898 57.129070,119.206390 58.034412,118.104286 C59.545757,120.908768 61.070366,123.706184 62.566437,126.518784 C81.503159,162.119629 102.192070,196.546875 129.626511,226.441391 C148.577927,247.092209 169.159561,266.038391 190.385544,284.300507 C201.746552,294.075134 213.192505,303.751038 224.594727,313.477814 C226.188477,314.837372 227.751343,316.233124 230.019058,318.215942 C221.238693,316.698730 213.407257,314.037628 205.670227,314.288483 C190.839462,314.769318 181.505753,305.807587 171.522125,297.345154 C150.387329,279.430725 130.540070,260.231445 112.736168,238.965347 C111.958511,238.036469 110.880852,237.358765 109.942940,236.564041 C109.535988,236.888702 109.129028,237.213364 108.722069,237.538025 C113.584862,244.842560 118.108559,252.402084 123.373917,259.403900 C139.264267,280.534607 158.157593,298.844421 177.870087,316.346893 C180.983948,319.111664 184.153152,321.825562 187.104446,324.756592 C188.342270,325.985931 189.495224,327.598816 189.973358,329.244598 C192.316574,337.310181 194.419556,345.445557 196.633682,353.653503 C196.756073,353.588715 196.399170,353.907013 196.263809,353.830963 C166.895432,337.331085 138.660461,319.281982 114.814308,295.092712 C99.163696,279.216858 88.019211,260.511475 79.299362,239.769852 z" />
      <path fill="black" d="M203.437790,278.561676 C172.040985,249.563522 142.061691,219.704208 118.969406,183.846756 C90.580696,139.765060 73.382050,92.001678 73.321068,38.920521 C73.319778,37.796043 73.320908,36.671562 74.222939,35.004646 C75.281349,36.468952 76.363518,37.916748 77.394676,39.400002 C97.903915,68.900917 117.641411,98.977509 139.119232,127.755302 C162.307816,158.825348 187.132828,188.673645 211.193710,219.094650 C212.253967,220.435181 213.553391,222.205185 213.484619,223.718002 C213.088150,232.438324 212.312988,241.141434 211.594635,250.813583 C180.640305,217.747665 152.854904,182.820282 127.016846,146.277420 C126.510429,146.594208 126.004005,146.910995 125.497589,147.227798 C127.630226,151.342239 129.645828,155.522415 131.913666,159.560928 C153.777893,198.496216 180.784912,233.662003 210.636993,266.731262 C214.857758,271.406891 220.929413,287.047607 220.919708,294.051208 C215.032822,288.835083 209.367340,283.815125 203.437790,278.561676 z" />
      <path fill="black" d="M771.736328,261.733643 C759.880920,272.447693 748.276855,282.911804 736.672852,293.375916 C736.328796,293.146851 735.984741,292.917786 735.640686,292.688721 C739.750977,283.692505 740.248962,273.608521 747.992859,265.624939 C779.844910,232.787216 807.887756,196.933807 830.476074,157.010635 C832.716187,153.051453 834.495117,148.831360 835.875916,144.450592 C821.710144,162.683167 807.992004,181.287308 793.253235,199.044266 C778.396179,216.943649 762.525635,234.001709 747.099121,251.428391 C746.715576,251.256927 746.331970,251.085464 745.948425,250.914001 C745.948425,246.581009 746.661987,242.101273 745.807007,237.944122 C743.716675,227.780472 748.692810,221.171143 754.785706,213.781235 C780.185425,182.974777 805.610046,152.138016 829.633240,120.263145 C849.640442,93.716827 867.704407,65.706032 886.633484,38.346962 C886.991150,37.830021 887.402893,37.350536 888.902710,36.948597 C888.902710,38.440441 888.919861,39.932507 888.900146,41.424088 C888.314026,85.832001 875.845947,126.915878 853.706665,165.138535 C833.396606,200.202988 806.330383,229.713882 776.746338,257.067383 C775.157410,258.536530 773.573853,260.011444 771.736328,261.733643 z" />
      <path fill="black" d="M462.275726,848.999817 C462.273315,764.700012 462.166718,680.900024 462.327545,597.100586 C462.380554,569.469055 466.788757,542.512451 477.092072,516.704956 C477.887756,514.711914 478.855530,512.786926 479.766449,510.841125 C479.942474,510.465118 480.226501,510.139709 480.888489,509.154053 C480.888489,653.577393 480.888489,797.243286 480.888489,942.013672 C474.756042,939.154297 469.054932,936.718994 463.632446,933.771240 C462.602142,933.211121 462.299377,930.622437 462.295166,928.968079 C462.227753,902.478821 462.263428,875.989319 462.275726,848.999817 z" />
      <path fill="black" d="M807.568604,371.621399 C818.475403,364.132294 829.080444,356.850311 839.685486,349.568359 C839.253906,348.830750 838.822327,348.093140 838.390747,347.355530 C803.082092,367.751617 765.421021,382.715332 727.605225,397.321869 C727.350769,396.977509 727.096252,396.633179 726.841797,396.288818 C727.574524,395.374176 728.255737,394.411957 729.048523,393.552734 C733.631409,388.585388 738.137146,383.540344 742.880676,378.730469 C745.603638,375.969391 748.393433,373.002991 751.722351,371.153503 C779.295776,355.834503 807.474670,341.545715 834.534058,325.378204 C861.025085,309.550262 883.524719,288.734802 901.962708,263.779602 C902.346313,263.260406 902.781250,262.779144 904.246155,262.478149 C903.481079,267.165558 902.846130,271.878540 901.929016,276.536011 C897.411194,299.478729 890.847290,321.653595 878.880798,342.042725 C861.747253,371.235748 835.978882,389.584381 805.192749,401.758606 C794.448181,406.007477 783.501587,409.745544 771.759583,414.041626 C772.406128,411.462677 772.750427,410.089355 773.276245,407.992096 C765.271973,405.761139 757.383179,403.562378 749.532959,401.374359 C768.790466,391.519165 788.028625,381.673828 807.568604,371.621399 z" />
      <path fill="black" d="M59.039330,281.077454 C58.175522,274.821289 57.333950,269.000702 56.492378,263.180115 C56.870773,263.018829 57.249172,262.857513 57.627567,262.696198 C61.193073,267.157318 64.728859,271.642578 68.328880,276.075653 C92.743927,306.140656 123.221169,328.687958 156.935303,347.124023 C172.076019,355.403534 187.478592,363.204071 202.755539,371.234894 C204.218887,372.004150 206.012222,372.547607 207.010056,373.735474 C213.686951,381.683838 220.189575,389.778625 227.036942,398.179443 C190.052078,383.207001 152.757858,369.568420 118.955475,348.115082 C118.599411,348.712097 118.243347,349.309082 117.887283,349.906067 C124.421768,354.995575 130.751144,360.380981 137.547775,365.092285 C144.502441,369.913147 151.792221,374.290375 159.161850,378.461578 C166.508179,382.619568 174.073776,386.407074 181.657166,390.124603 C189.199127,393.821777 196.882767,397.229889 205.206772,401.090607 C196.667557,403.360016 188.899475,405.424500 180.842224,407.565826 C181.290573,409.670502 181.650360,411.359436 182.417160,414.959045 C166.300842,408.332977 151.088669,402.786499 136.485519,395.940857 C94.179893,376.108856 73.020332,340.123413 62.154800,296.614990 C60.910915,291.634155 60.082577,286.549530 59.039330,281.077454 z" />
      <path fill="black" d="M823.491821,435.303680 C795.582886,442.566803 767.674011,449.829926 739.765076,457.093048 C739.554993,456.604950 739.344910,456.116882 739.134888,455.628784 C739.515015,455.070770 739.831482,454.453827 740.284912,453.963623 C746.487854,447.258209 752.572510,440.434326 758.999634,433.950195 C761.316772,431.612579 764.215210,429.277344 767.276794,428.339233 C801.671570,417.800110 836.157593,407.559204 870.598389,397.169525 C876.300659,395.449341 881.903564,393.399780 888.431519,391.207184 C887.831726,393.259796 887.612244,394.639954 887.045410,395.858551 C873.623108,424.717743 854.882935,448.943176 826.724670,464.945160 C810.524414,474.151611 792.795837,478.592041 774.557983,480.878967 C760.046936,482.698578 745.415161,483.637421 730.811218,484.561127 C727.984497,484.739899 724.779785,483.515167 722.205200,482.105499 C717.592224,479.579712 713.325500,476.421600 708.280701,473.112335 C748.337585,464.449585 788.487000,458.051880 824.365967,436.419189 C824.364319,435.755127 823.928040,435.529388 823.491821,435.303680 z" />
      <path fill="black" d="M103.256012,446.743805 C87.457626,430.979736 75.902405,412.937500 68.235863,391.766327 C69.566963,391.895782 70.504242,391.827118 71.336189,392.090790 C109.123291,404.066101 146.926346,415.992828 184.636917,428.205017 C187.997925,429.293518 191.193710,431.832733 193.700439,434.435669 C200.230820,441.216797 206.335266,448.408112 213.696442,456.653107 C198.604156,453.245300 184.516098,450.374237 170.597961,446.835022 C156.480331,443.245087 142.530502,438.995239 128.118866,434.924774 C141.744583,444.747711 155.728348,451.365723 182.319458,458.951721 C201.414917,464.399414 220.833344,468.714996 240.229401,473.566101 C234.771729,477.194519 229.194199,480.945343 223.550400,484.593597 C222.936066,484.990723 221.931808,484.912292 221.121124,484.859406 C198.056274,483.354004 174.908554,482.355225 152.555984,475.656311 C133.916809,470.070221 117.346046,460.843964 103.256012,446.743805 z" />
      <path fill="black" d="M726.525635,550.461914 C712.195679,547.474670 699.065125,542.922546 688.307373,532.255127 C698.303284,529.126770 708.086731,527.424194 718.523071,528.401794 C738.090271,530.234558 757.723816,531.042847 777.306091,528.219604 C779.716248,527.872192 782.103088,527.363464 784.420532,526.229797 C765.276855,523.975647 746.133240,521.721436 725.796021,519.326721 C733.096741,515.051453 739.382019,511.370789 746.051025,507.465454 C743.366150,504.016083 741.165283,501.188568 738.465210,497.719666 C775.177490,494.814728 809.582275,502.003601 844.203308,512.571472 C832.462219,527.852356 818.413086,539.144897 801.538330,546.726196 C778.781067,556.950378 755.172974,556.736145 731.288513,551.540466 C729.831970,551.223633 728.370850,550.928284 726.525635,550.461914 z" />
      <path fill="black" d="M219.702972,528.895935 C226.305023,528.290344 232.511856,526.876038 238.550461,527.400146 C245.695892,528.020386 252.696152,530.313354 260.116394,531.960510 C229.463440,559.674011 152.217346,569.831543 109.867577,512.665588 C142.599075,502.574677 175.337906,494.684143 210.538605,497.538940 C208.070557,500.643127 205.962433,503.294647 203.186768,506.785736 C209.429977,510.750397 215.461655,514.580688 222.212387,518.867615 C204.258911,521.270508 186.963425,523.585327 169.667938,525.900208 C186.101562,530.203552 202.668182,529.559387 219.702972,528.895935 z" />
      <path fill="black" d="M551.186768,851.210083 C540.747437,880.221008 520.227112,900.696899 496.770203,920.163635 C496.770203,880.576843 496.770203,842.071411 496.770203,803.565979 C497.080017,803.410950 497.389862,803.255920 497.699677,803.100891 C499.442902,805.376587 501.133148,807.695435 502.942413,809.917419 C505.361450,812.888245 507.504639,816.232239 510.416931,818.623596 C517.665527,824.575684 519.009766,832.167725 518.240173,840.906799 C517.737732,846.612488 518.145386,852.398315 518.145386,858.148193 C518.608459,858.245300 519.071533,858.342407 519.534607,858.439514 C522.086975,847.905151 524.934937,837.430420 527.076172,826.813110 C528.280884,820.839111 531.065430,816.353760 535.005310,811.743042 C542.302124,803.203674 548.574280,793.787231 555.234680,784.707886 C556.015747,783.643188 556.529541,782.385254 557.225830,781.252991 C557.364441,781.027588 557.770813,780.966736 558.706421,780.514587 C560.282959,804.604553 559.940063,828.124695 551.186768,851.210083 z" />
      <path fill="black" d="M635.573792,781.503784 C630.442627,798.953186 621.750793,813.856384 609.417297,826.622803 C585.249878,812.055847 560.960266,769.525085 568.568237,743.548889 C569.407898,744.165039 570.159912,744.655334 570.843262,745.227722 C581.009094,753.740967 591.191711,762.234558 601.283936,770.834290 C602.282959,771.685608 603.006409,773.121887 603.360840,774.422180 C604.752747,779.529114 605.945679,784.690308 607.212524,789.831360 C607.634338,789.831726 608.056091,789.832092 608.477905,789.832520 C608.985535,782.338440 609.248535,774.816162 610.109680,767.362915 C610.507751,763.917786 611.352112,760.124084 613.232788,757.318787 C621.972961,744.281616 628.365845,730.240662 632.789246,715.100708 C640.588867,736.855896 642.188171,758.799866 635.573792,781.503784 z" />
      <path fill="black" d="M711.804504,359.795959 C698.737183,366.287842 685.668213,372.776520 672.605103,379.276703 C671.288513,379.931793 670.006653,380.656647 668.701843,381.352753 C665.091309,373.227661 666.149048,366.895599 672.064514,360.755035 C686.030457,346.257690 703.872559,338.773743 722.700684,333.387695 C732.066162,330.708588 741.736267,329.094299 752.580750,326.709808 C751.407654,331.071533 750.796082,334.219116 749.722351,337.200226 C740.748840,362.114685 726.515076,382.981567 703.278687,396.763336 C700.454956,398.438141 697.374329,399.769379 694.274902,400.872345 C686.030762,403.806030 677.711365,406.527954 669.050354,409.459869 C669.050354,404.898285 668.708252,399.976837 669.237549,395.150970 C669.420593,393.482269 671.560486,391.777618 673.161865,390.554596 C686.100159,380.673676 699.123108,370.903625 712.576294,360.701477 C713.262878,359.967346 713.493408,359.631439 713.723938,359.295532 C713.084106,359.462341 712.444336,359.629150 711.804504,359.795959 z" />
      <path fill="black" d="M243.183182,361.635742 C253.846573,370.069397 264.285156,378.812775 275.277832,386.792816 C280.048859,390.256317 283.072327,393.432831 281.600525,399.679352 C280.894592,402.675415 281.156677,405.899597 280.977997,409.061920 C235.197968,396.994568 213.004929,369.574707 203.599014,327.209808 C211.919159,328.957672 219.855774,330.343170 227.642853,332.318237 C244.979462,336.715454 261.502136,342.969604 275.338196,354.839691 C276.347626,355.705658 277.297485,356.643890 278.334137,357.474792 C286.078644,363.682129 288.475616,371.162323 283.564606,380.364563 C270.857574,373.906647 257.943542,367.343536 244.448608,360.445862 C243.289139,360.082672 242.710556,360.054047 242.131973,360.025391 C242.482376,360.562164 242.832779,361.098969 243.183182,361.635742 z" />
      <path fill="black" d="M666.926758,693.181519 C675.937378,694.881775 681.684998,699.783691 684.809204,708.044250 C685.763977,710.568909 687.650391,712.741211 690.244141,714.654175 C689.428467,710.754211 688.441833,706.878906 687.873596,702.943176 C687.612061,701.131775 687.687195,698.980042 688.431458,697.360168 C695.910156,681.082947 701.607117,664.399719 701.089600,646.155518 C701.083191,645.930908 701.402893,645.697021 701.850525,645.083557 C720.430725,679.283569 717.105591,712.912598 701.096924,746.514771 C671.415161,739.869385 633.887268,700.014893 634.267456,676.696411 C644.816956,682.055054 655.682129,687.574097 666.926758,693.181519 z" />
      <path fill="black" d="M655.495361,455.576874 C657.605347,453.618958 659.251404,451.266235 661.454529,450.485596 C675.924744,445.358398 690.519653,440.583679 705.060181,435.653381 C706.678650,435.104553 708.210693,434.300934 709.782837,433.615509 C709.666809,433.079681 709.550781,432.543854 709.434753,432.008057 C694.103394,434.168610 678.772095,436.329193 663.088196,438.539459 C663.922241,432.625458 665.297241,427.545166 671.332031,424.044800 C694.310852,410.716400 718.572327,408.425842 744.013367,414.406952 C747.374207,415.197113 750.707275,416.105591 754.426147,417.054443 C739.174438,440.780090 719.505493,457.780670 691.758606,463.941559 C689.559631,464.429810 687.163818,464.326447 684.890320,464.133911 C674.325928,463.239288 663.772461,462.216339 652.730347,461.194458 C653.388062,459.835938 654.338623,457.872559 655.495361,455.576874 z" />
      <path fill="black" d="M510.398254,796.562317 C500.860352,782.382751 495.696655,767.286438 496.422424,750.337830 C496.749817,742.692505 496.510803,735.022949 496.527374,727.364380 C496.530762,725.797424 496.527863,724.230408 497.651947,722.343201 C499.631439,724.922668 501.577026,727.529114 503.601044,730.073181 C505.258331,732.156189 506.685120,734.609009 508.773010,736.131470 C519.263916,743.781494 521.964966,754.447388 520.620300,766.833191 C521.045898,766.883545 521.471497,766.933960 521.897095,766.984375 C522.463379,765.866028 523.427795,764.784607 523.535645,763.623657 C524.961060,748.276611 530.436584,734.977478 541.745544,724.042175 C545.314148,720.591553 547.344666,715.550293 550.207458,711.034485 C557.470154,723.944153 555.518799,737.277344 552.828186,750.371338 C548.190430,772.940796 536.993164,791.985168 519.815063,808.285950 C516.606323,804.288269 513.617432,800.564636 510.398254,796.562317 z" />
      <path fill="black" d="M746.304932,605.696167 C741.757568,602.099854 737.386047,598.244446 732.601746,594.997253 C729.350708,592.790649 727.797607,590.325439 726.794128,586.409729 C724.797607,578.618530 721.613464,571.131714 718.827271,563.257202 C729.267029,564.661865 739.149536,567.652466 747.916260,574.586060 C763.377869,586.814636 773.605652,602.566284 780.754395,620.613220 C780.926697,621.048157 780.829773,621.589783 780.856873,622.056213 C752.682251,637.506042 696.769653,624.348755 684.037781,598.937012 C688.669983,599.632874 693.030701,600.769470 697.407776,600.836365 C704.542847,600.945557 711.757263,600.857788 718.806702,599.892822 C723.856140,599.201660 728.189697,600.009399 732.684937,601.996643 C736.604004,603.729065 740.749023,604.950134 745.395752,606.659180 C746.264221,606.850037 746.531067,606.778870 746.797974,606.707642 C746.633606,606.370483 746.469238,606.033325 746.304932,605.696167 z" />
      <path fill="black" d="M592.966309,714.712341 C593.493103,716.095032 593.917847,717.105530 594.342590,718.116089 C594.716187,718.093567 595.089783,718.071045 595.463379,718.048523 C595.463379,711.350281 595.187134,704.635559 595.583923,697.960815 C595.772461,694.789673 596.578247,691.271484 598.251282,688.639465 C605.059570,677.928467 610.726868,666.794189 613.811523,654.177856 C620.136414,670.430847 623.532104,687.066833 620.865479,704.608215 C618.181580,722.263000 610.402466,737.617737 600.051208,751.814148 C581.303955,743.445496 552.035034,702.103394 560.838196,676.478943 C561.936768,677.279785 562.953735,677.940002 563.879333,678.710083 C567.587891,681.795654 570.892029,685.593445 575.032471,687.889709 C585.624390,693.764343 590.842407,702.882507 592.966309,714.712341 z" />
      <path fill="black" d="M267.071716,417.882904 C269.089508,418.780396 270.741333,419.557251 272.407562,420.301971 C280.166321,423.769897 285.069397,429.196991 284.609650,438.446259 C270.365051,436.299957 256.009827,434.136993 241.654572,431.974030 C241.514465,432.417603 241.374359,432.861145 241.234253,433.304718 C242.042847,433.822693 242.788467,434.516235 243.669495,434.832245 C255.969284,439.243683 268.104340,444.268066 280.668549,447.732147 C288.481903,449.886383 292.119934,454.485138 294.089325,461.268860 C282.490936,462.241547 270.707214,464.995667 259.344177,463.788727 C239.966721,461.730591 225.273132,449.713776 212.386551,435.853271 C207.213470,430.289215 202.943192,423.885742 197.688904,417.127167 C221.497620,410.672058 244.133408,408.262909 267.071716,417.882904 z" />
      <path fill="black" d="M697.288208,516.319885 C669.857849,523.320007 644.930664,518.097290 621.691650,503.275604 C620.734009,502.664856 619.840027,501.954346 618.665955,501.110291 C623.377991,496.293060 627.480103,492.435333 635.289856,493.912567 C647.843079,496.287079 660.680115,497.168243 673.402161,498.637665 C676.195435,498.960327 679.009399,499.103821 681.813843,499.329773 C681.962830,498.792206 682.111816,498.254639 682.260864,497.717072 C667.175476,493.045746 652.090088,488.374390 636.994873,483.700012 C640.042114,475.527252 647.685242,475.832733 654.307861,475.170288 C682.918030,472.308502 705.986084,483.669861 726.164185,504.003357 C716.921143,509.513336 707.620789,513.562866 697.288208,516.319885 z" />
      <path fill="black" d="M247.904572,515.122742 C239.490204,511.610931 231.457520,508.218048 222.698898,504.518524 C234.648209,491.633972 247.670792,482.921051 263.233856,478.199463 C274.647614,474.736786 286.159607,473.365509 298.107941,475.786041 C303.323578,476.842621 306.909973,479.022369 309.144562,483.898743 C294.630981,488.458984 280.102417,493.023926 265.573853,497.588898 C265.677246,498.154022 265.780670,498.719147 265.884064,499.284271 C271.138367,498.782806 276.406250,498.393219 281.644135,497.756836 C292.858612,496.394257 304.032379,494.287598 315.277710,493.827484 C318.828583,493.682220 322.553986,497.803101 327.149994,500.536957 C302.096252,518.119080 276.562897,524.105164 247.904572,515.122742 z" />
      <path fill="black" d="M178.162872,620.796143 C176.415421,620.139221 175.069809,619.567139 173.758347,619.009644 C180.170486,596.124390 206.506760,562.768616 230.863571,563.143982 C228.016724,571.939880 225.277542,580.918457 222.115494,589.745483 C221.470367,591.546448 219.342392,592.907043 217.713150,594.245728 C214.282455,597.064636 210.729309,599.734497 207.640350,603.562378 C211.999466,602.012695 216.306763,600.288330 220.735977,598.975098 C223.665909,598.106384 226.840012,597.119141 229.785507,597.406738 C243.104263,598.707275 256.314514,599.074829 269.456482,595.154419 C258.952271,617.406921 211.520584,630.731628 178.162872,620.796143 z" />
      <path fill="black" d="M572.573120,629.387085 C574.982849,635.528748 577.255859,641.304688 579.528870,647.080688 C579.922729,646.973450 580.316589,646.866211 580.710510,646.759033 C579.995911,639.511841 579.281250,632.264709 578.520691,624.551636 C580.881104,624.961914 582.739441,625.284851 585.509277,625.766235 C586.954224,614.624390 588.388306,603.565918 589.818298,592.538879 C607.754883,611.257324 606.774719,653.138000 587.252319,680.503113 C575.988403,672.473389 565.912415,663.533936 558.859497,651.320557 C552.082581,639.585144 548.729492,627.574768 554.057617,613.893677 C560.531006,618.299500 571.068359,617.782166 572.573120,629.387085 z" />
      <path fill="black" d="M680.476929,618.570740 C691.284363,638.949829 689.516968,659.204407 681.517883,679.521729 C680.767700,681.426941 680.282227,683.565125 676.985840,682.497253 C652.052856,674.420105 631.826111,660.856445 621.070557,635.026123 C622.460754,635.434509 623.425232,635.721069 624.391602,636.001099 C632.476074,638.344299 640.444763,641.326782 648.683350,642.820007 C654.935547,643.953125 660.109314,645.580017 663.390015,651.374390 C664.418762,653.191345 666.060303,654.661377 668.351929,655.895813 C667.655212,653.508423 666.729126,651.160583 666.309814,648.725464 C665.450256,643.733398 663.974243,638.628479 664.341187,633.688110 C665.200500,622.116577 664.787292,610.755737 662.006042,599.488708 C661.865906,598.921204 661.932434,598.302734 661.840149,596.453247 C669.735657,603.188660 675.676880,610.133118 680.476929,618.570740 z" />
      <path fill="black" d="M522.378418,680.435913 C523.368286,677.933655 523.920593,675.542236 525.277649,673.765442 C531.103333,666.137756 537.165771,658.690796 543.208069,651.094849 C546.668213,655.385437 548.039673,660.768860 547.782227,666.802246 C546.804993,689.699707 538.585999,709.493042 522.703552,726.060364 C522.137085,726.651184 521.487183,727.161926 520.913635,727.676331 C503.991943,716.993591 493.369171,686.033325 497.090302,657.923096 C497.957062,658.623840 498.710388,659.087280 499.280823,659.716553 C505.078613,666.112488 511.005737,672.402771 516.529419,679.028748 C518.266907,681.113037 518.899109,684.118713 520.443237,687.624695 C521.140869,685.086548 521.725952,682.958008 522.378418,680.435913 z" />
      <path fill="black" d="M536.045532,600.061401 C539.733337,602.889221 540.383057,606.364746 540.251038,610.475891 C539.615112,630.280396 530.743835,646.489014 518.276611,661.812500 C507.034210,650.165833 499.106964,637.045654 497.038025,620.974609 C494.942963,604.700745 497.351898,599.923462 511.507843,590.106201 C513.020142,601.445190 514.520752,612.697083 516.021423,623.948975 C516.616211,623.965332 517.210938,623.981689 517.805725,623.998047 C518.911560,609.695007 520.017456,595.391907 521.106567,581.305969 C525.944336,587.402405 530.864441,593.602722 536.045532,600.061401 z" />
      <path fill="black" d="M533.214600,574.654785 C528.013550,566.092163 530.221008,557.745361 532.956177,548.436462 C540.494507,558.352844 547.718750,567.855896 554.942932,577.359009 C555.428040,577.067261 555.913147,576.775513 556.398193,576.483704 C550.688049,561.019348 542.710938,546.629883 533.994141,532.349487 C560.717102,534.147949 584.395813,578.543457 574.687866,608.323547 C556.039612,603.212097 542.606750,591.734985 533.214600,574.654785 z" />
      <path fill="black" d="M628.208557,600.791626 C624.055054,594.270447 619.901611,587.749268 615.561829,580.935547 C622.047913,580.231262 628.130493,579.293091 634.238831,579.074829 C636.094666,579.008606 638.665466,580.454224 639.815247,582.013672 C650.177368,596.068542 653.057617,612.066223 651.571594,629.810486 C649.646057,629.615601 647.795715,629.803528 646.244324,629.209900 C636.834961,625.609253 627.452759,621.927917 618.167603,618.021362 C616.491638,617.316162 614.358459,615.630493 614.047729,614.075500 C611.619873,601.925537 605.411926,591.546265 599.295105,581.093323 C598.986328,580.565674 598.900024,579.907898 598.710144,579.310669 C599.061584,578.914795 599.412964,578.518921 599.764404,578.123047 C608.797607,585.866333 617.830811,593.609619 627.476685,601.771118 C628.486755,601.957275 628.884155,601.725220 628.994141,601.568604 C628.822937,601.918884 628.939209,602.193787 629.055542,602.468689 C629.098267,602.209534 629.141052,601.950378 629.081421,601.489868 C628.830566,600.956360 628.573730,600.790710 628.208557,600.791626 z" />
      <path fill="black" d="M661.130615,577.866028 C658.134155,576.126953 655.490906,574.507812 651.846924,572.275635 C663.580200,570.901062 674.099365,569.668762 685.259705,568.361389 C677.350586,564.749573 678.522095,556.479004 675.609497,550.186523 C673.768127,546.208374 671.945923,542.221375 670.021912,538.035645 C692.286255,546.802063 707.249634,563.493408 713.864624,587.479126 C695.362122,589.375000 677.914551,586.668762 661.130615,577.866028 z" />
      <path fill="black" d="M95.042770,498.985535 C90.421638,481.324158 85.854210,464.060547 81.315559,446.789337 C81.211426,446.393036 81.432381,445.911316 81.612289,444.764282 C98.476433,464.790436 118.492485,479.544922 144.375092,488.254761 C139.050995,489.522644 135.071045,490.434875 131.110199,491.423645 C127.103439,492.423798 123.098434,493.438721 119.123329,494.556244 C112.592682,496.392242 106.114311,498.423187 99.547508,500.114075 C98.216057,500.456879 96.590134,499.656006 95.042770,498.985535 z" />
      <path fill="black" d="M811.558838,487.684113 C835.381592,479.497986 855.383850,466.349335 871.416809,447.308014 C871.585388,447.107819 872.009155,447.122406 873.792480,446.620850 C868.939941,465.273438 864.285767,483.163605 859.586670,501.226593 C857.617188,500.955048 856.469055,500.919006 855.388977,500.629333 C841.305176,496.851440 827.227966,493.048676 813.163147,489.200714 C812.454590,489.006805 811.874268,488.344238 811.558838,487.684113 z" />
      <path fill="black" d="M632.886658,540.354919 C620.567322,532.978027 608.247986,525.601135 596.346619,518.474487 C626.343323,514.588623 657.338135,530.641479 664.769836,558.549377 C657.060913,558.549377 649.564453,558.678040 642.074585,558.511536 C635.201843,558.358704 630.347229,555.433533 627.906921,548.482605 C626.757568,545.208862 624.097168,542.465637 621.612549,538.713440 C625.276855,539.697815 628.109009,540.458679 631.526550,541.522400 C632.933411,541.875000 633.754822,541.924622 635.995117,542.059998 C634.134338,541.039307 633.510498,540.697144 632.886658,540.354919 z" />
      <path fill="black" d="M593.077942,547.926453 C589.828308,544.415344 586.723938,540.753845 583.288208,537.435486 C579.846985,534.111755 576.074768,531.130798 572.356689,526.656311 C575.521667,526.656311 578.846619,526.016479 581.825439,526.761047 C600.006958,531.306030 617.232666,548.343384 622.638550,567.176941 C608.691589,568.275269 595.360962,567.647766 583.552673,559.230591 C582.144165,558.226562 581.286316,556.418823 580.248840,554.930908 C576.124084,549.015320 572.029419,543.078796 567.715027,536.848877 C569.315857,537.258728 571.347351,537.417664 573.024109,538.272461 C579.356018,541.500488 585.572632,544.954712 592.396484,548.606201 C593.224243,548.847046 593.488037,548.805847 593.751831,548.764648 C593.527222,548.485229 593.302551,548.205872 593.077942,547.926453 z" />
      <path fill="black" d="M239.250031,577.274170 C246.907684,557.605957 261.361908,545.164551 279.353943,536.083801 C274.607574,547.046143 269.958252,557.784485 265.184784,568.809387 C272.480865,569.671753 280.433929,570.611755 288.162170,571.525146 C281.149231,581.007568 252.447342,588.830139 236.535126,585.038452 C237.411240,582.545898 238.272247,580.096375 239.250031,577.274170 z" />
      <path fill="black" d="M503.363708,406.264801 C496.678040,405.225800 491.718048,401.973602 490.389252,395.709290 C489.202637,390.114990 487.045929,385.930359 481.397095,383.825500 C481.586151,383.418365 481.775177,383.011261 481.964233,382.604156 C486.270233,383.518372 490.645111,384.193787 494.863708,385.410980 C499.480164,386.743073 503.941925,388.605286 508.490082,390.181702 C512.876587,391.702026 517.287292,393.152557 522.058350,394.758667 C516.975220,400.335663 512.660767,406.829987 503.363708,406.264801 z" />
      <path fill="black" d="M873.450073,380.373993 C870.889893,381.156769 868.717285,381.829010 865.738953,382.750488 C873.908508,372.762360 881.460083,363.529663 889.727112,353.422363 C888.929016,360.980591 888.347656,367.654388 887.391296,374.274017 C887.249268,375.256744 885.458862,376.293060 884.224487,376.770294 C880.820801,378.086182 877.307495,379.118774 873.450073,380.373993 z" />
      <path fill="black" d="M88.501297,378.773499 C89.286385,380.223938 89.806023,381.409210 90.588333,383.193573 C84.184402,380.999603 78.715164,379.280975 73.394814,377.184479 C72.197388,376.712616 70.880211,375.006592 70.710938,373.724457 C69.890266,367.508728 69.441811,361.243805 68.824295,354.596130 C75.497101,362.816040 81.866486,370.662140 88.501297,378.773499 z" />
      <path fill="black" d="M232.657776,635.552124 C232.882721,635.554688 233.255325,635.771362 233.391586,636.069580 C233.038651,636.022827 232.922043,635.894531 232.657776,635.552124 z" />
      <path fill="black" d="M285.220337,344.757233 C285.433868,344.986755 285.555725,345.318268 285.677582,345.649780 C285.454895,345.629608 285.232239,345.609436 284.976013,345.324890 C284.942444,345.060516 285.128662,344.859222 285.220337,344.757233 z" />
      <path fill="black" d="M668.896362,343.937256 C668.943237,344.267303 669.029297,344.616058 669.115417,344.964783 C668.888489,344.737488 668.661499,344.510162 668.721069,344.143860 C669.007568,344.004822 668.935669,343.955933 668.896362,343.937256 z" />
      <path fill="black" d="M296.588623,697.643677 C295.267731,701.463440 294.071472,704.895386 292.868195,708.324829 C292.814758,708.477112 292.697144,708.606812 292.609406,708.747009 C292.144104,708.695923 291.678802,708.644775 291.213501,708.593628 C292.276703,699.389343 293.339905,690.184998 294.403107,680.980713 C295.172699,681.003601 295.942322,681.026550 296.711914,681.049438 C296.711914,686.451416 296.711914,691.853333 296.588623,697.643677 z" />
      <path fill="black" d="M585.297241,486.334717 C584.671875,486.551880 583.880127,486.574219 583.088379,486.596558 C583.429810,486.339264 583.771240,486.082001 584.451172,485.791107 C584.903442,485.885010 585.017090,486.012482 585.297241,486.334717 z" />
      <path fill="black" d="M277.256592,632.272034 C277.069519,632.662537 276.708191,632.869873 276.346863,633.077148 C276.274414,632.719543 276.201965,632.361938 276.428162,631.866760 C276.845306,631.849060 276.963806,631.968933 277.256592,632.272034 z" />
      <path fill="black" d="M849.991821,236.958008 C850.090820,236.563019 850.423218,236.369049 850.755554,236.175064 C850.853577,236.448761 850.951538,236.722473 850.893188,237.249222 C850.566345,237.387848 850.395813,237.273438 849.991821,236.958008 z" />
      <path fill="black" d="M823.667053,435.544006 C823.928040,435.529388 824.364319,435.755127 824.517761,436.106049 C824.104065,436.082306 823.973206,435.933319 823.667053,435.544006 z" />
      <path fill="black" d="M711.964661,359.976685 C712.444336,359.629150 713.084106,359.462341 713.723938,359.295532 C713.493408,359.631439 713.262878,359.967346 712.735962,360.413574 C712.439453,360.523926 712.124817,360.157410 711.964661,359.976685 z" />
      <path fill="black" d="M243.473633,361.405029 C242.832779,361.098969 242.482376,360.562164 242.131973,360.025391 C242.710556,360.054047 243.289139,360.082672 244.089569,360.392426 C244.128967,360.840454 243.946518,361.007385 243.473633,361.405029 z" />
      <path fill="black" d="M746.094910,605.921753 C746.469238,606.033325 746.633606,606.370483 746.797974,606.707642 C746.531067,606.778870 746.264221,606.850037 745.752197,606.777893 C745.632996,606.472107 745.758972,606.309753 746.094910,605.921753 z" />
      <path fill="black" d="M629.183838,601.691223 C629.141052,601.950378 629.098267,602.209534 629.055542,602.468689 C628.939209,602.193787 628.822937,601.918884 628.973145,601.629028 C629.239563,601.614014 629.183899,601.691223 629.183838,601.691223 z" />
      <path fill="black" d="M628.025024,600.994385 C628.573730,600.790710 628.830566,600.956360 629.081482,601.489868 C629.183899,601.691223 629.239563,601.614014 629.260620,601.553589 C628.884155,601.725220 628.486755,601.957275 627.789612,601.902893 C627.607056,601.476746 627.724243,601.336975 628.025024,600.994385 z" />
      <path fill="black" d="M632.582886,540.585083 C633.510498,540.697144 634.134338,541.039307 635.995117,542.059998 C633.754822,541.924622 632.933411,541.875000 631.907227,541.569519 C631.894775,541.147522 632.086975,540.981384 632.582886,540.585083 z" />
      <path fill="black" d="M592.929443,548.075806 C593.302551,548.205872 593.527222,548.485229 593.751831,548.764648 C593.488037,548.805847 593.224243,548.847046 592.732056,548.715271 C592.503723,548.542297 592.780945,548.225159 592.929443,548.075806 z" />
    </mask>
  </defs>
  <!-- Inverted - Eagle cutout from cyan -->
  <g filter="url(#glow)">
    <rect x="0" y="0" width="962" height="1024" fill="#4dc9ff" mask="url(#eagle-mask)" opacity="0.9"/>
  </g>
</svg>