<?xml version="1.0" encoding="UTF-8"?>
<svg width="962" height="1024" viewBox="0 0 962 1024" xmlns="http://www.w3.org/2000/svg">
  <defs>
    <filter id="glow" x="-50%" y="-50%" width="200%" height="200%">
      <feGaussianBlur stdDeviation="4" result="blur"/>
      <feMerge>
        <feMergeNode in="blur"/>
        <feMergeNode in="SourceGraphic"/>
      </feMerge>
    </filter>
    <mask id="cutout-mask">
      <rect x="0" y="0" width="962" height="1024" fill="white"/>
      <path fill="black" d="M219.702972,528.895935 C226.305023,528.290344 232.511856,526.876038 238.550461,527.400146 C245.695892,528.020386 252.696152,530.313354 260.116394,531.960510 C229.463440,559.674011 152.217346,569.831543 109.867577,512.665588 C142.599075,502.574677 175.337906,494.684143 210.538605,497.538940 C208.070557,500.643127 205.962433,503.294647 203.186768,506.785736 C209.429977,510.750397 215.461655,514.580688 222.212387,518.867615 C204.258911,521.270508 186.963425,523.585327 169.667938,525.900208 C186.101562,530.203552 202.668182,529.559387 219.702972,528.895935 z" />
      <path fill="black" d="M247.904572,515.122742 C239.490204,511.610931 231.457520,508.218048 222.698898,504.518524 C234.648209,491.633972 247.670792,482.921051 263.233856,478.199463 C274.647614,474.736786 286.159607,473.365509 298.107941,475.786041 C303.323578,476.842621 306.909973,479.022369 309.144562,483.898743 C294.630981,488.458984 280.102417,493.023926 265.573853,497.588898 C265.677246,498.154022 265.780670,498.719147 265.884064,499.284271 C271.138367,498.782806 276.406250,498.393219 281.644135,497.756836 C292.858612,496.394257 304.032379,494.287598 315.277710,493.827484 C318.828583,493.682220 322.553986,497.803101 327.149994,500.536957 C302.096252,518.119080 276.562897,524.105164 247.904572,515.122742 z" />
      <path fill="black" d="M178.162872,620.796143 C176.415421,620.139221 175.069809,619.567139 173.758347,619.009644 C180.170486,596.124390 206.506760,562.768616 230.863571,563.143982 C228.016724,571.939880 225.277542,580.918457 222.115494,589.745483 C221.470367,591.546448 219.342392,592.907043 217.713150,594.245728 C214.282455,597.064636 210.729309,599.734497 207.640350,603.562378 C211.999466,602.012695 216.306763,600.288330 220.735977,598.975098 C223.665909,598.106384 226.840012,597.119141 229.785507,597.406738 C243.104263,598.707275 256.314514,599.074829 269.456482,595.154419 C258.952271,617.406921 211.520584,630.731628 178.162872,620.796143 z" />
      <path fill="black" d="M95.042770,498.985535 C90.421638,481.324158 85.854210,464.060547 81.315559,446.789337 C81.211426,446.393036 81.432381,445.911316 81.612289,444.764282 C98.476433,464.790436 118.492485,479.544922 144.375092,488.254761 C139.050995,489.522644 135.071045,490.434875 131.110199,491.423645 C127.103439,492.423798 123.098434,493.438721 119.123329,494.556244 C112.592682,496.392242 106.114311,498.423187 99.547508,500.114075 C98.216057,500.456879 96.590134,499.656006 95.042770,498.985535 z" />
      <path fill="black" d="M239.250031,577.274170 C246.907684,557.605957 261.361908,545.164551 279.353943,536.083801 C274.607574,547.046143 269.958252,557.784485 265.184784,568.809387 C272.480865,569.671753 280.433929,570.611755 288.162170,571.525146 C281.149231,581.007568 252.447342,588.830139 236.535126,585.038452 C237.411240,582.545898 238.272247,580.096375 239.250031,577.274170 z" />
      <path fill="black" d="M232.657776,635.552124 C232.882721,635.554688 233.255325,635.771362 233.391586,636.069580 C233.038651,636.022827 232.922043,635.894531 232.657776,635.552124 z" />
      <path fill="black" d="M296.588623,697.643677 C295.267731,701.463440 294.071472,704.895386 292.868195,708.324829 C292.814758,708.477112 292.697144,708.606812 292.609406,708.747009 C292.144104,708.695923 291.678802,708.644775 291.213501,708.593628 C292.276703,699.389343 293.339905,690.184998 294.403107,680.980713 C295.172699,681.003601 295.942322,681.026550 296.711914,681.049438 C296.711914,686.451416 296.711914,691.853333 296.588623,697.643677 z" />
      <path fill="black" d="M277.256592,632.272034 C277.069519,632.662537 276.708191,632.869873 276.346863,633.077148 C276.274414,632.719543 276.201965,632.361938 276.428162,631.866760 C276.845306,631.849060 276.963806,631.968933 277.256592,632.272034 z" />
      <path fill="black" d="M535.708496,903.709900 C559.386047,877.577515 571.752441,847.069336 573.931763,811.309631 C584.933044,824.870056 596.390137,836.718506 611.224243,845.519714 C643.348022,816.081238 658.355713,780.228577 652.876282,735.349243 C669.180054,749.752197 687.016052,759.132141 707.620544,764.234009 C731.642517,723.602295 736.685791,681.933899 715.014160,637.947021 C744.463989,648.055725 772.088928,643.532532 799.137817,630.109131 C792.414734,607.201904 781.825562,587.034546 764.377563,569.783386 C798.545715,568.056152 826.491333,554.926086 848.915039,529.717651 C848.679565,544.714844 798.903809,648.478882 774.585144,686.802612 C743.246033,736.189758 705.981689,780.558105 663.090576,820.176880 C623.602234,856.652527 540.400940,914.635498 519.618896,920.240479 C525.517273,914.178040 530.487671,909.069397 535.708496,903.709900 z" />
      <path fill="black" d="M726.525635,550.461914 C712.195679,547.474670 699.065125,542.922546 688.307373,532.255127 C698.303284,529.126770 708.086731,527.424194 718.523071,528.401794 C738.090271,530.234558 757.723816,531.042847 777.306091,528.219604 C779.716248,527.872192 782.103088,527.363464 784.420532,526.229797 C765.276855,523.975647 746.133240,521.721436 725.796021,519.326721 C733.096741,515.051453 739.382019,511.370789 746.051025,507.465454 C743.366150,504.016083 741.165283,501.188568 738.465210,497.719666 C775.177490,494.814728 809.582275,502.003601 844.203308,512.571472 C832.462219,527.852356 818.413086,539.144897 801.538330,546.726196 C778.781067,556.950378 755.172974,556.736145 731.288513,551.540466 C729.831970,551.223633 728.370850,550.928284 726.525635,550.461914 z" />
      <path fill="black" d="M635.573792,781.503784 C630.442627,798.953186 621.750793,813.856384 609.417297,826.622803 C585.249878,812.055847 560.960266,769.525085 568.568237,743.548889 C569.407898,744.165039 570.159912,744.655334 570.843262,745.227722 C581.009094,753.740967 591.191711,762.234558 601.283936,770.834290 C602.282959,771.685608 603.006409,773.121887 603.360840,774.422180 C604.752747,779.529114 605.945679,784.690308 607.212524,789.831360 C607.634338,789.831726 608.056091,789.832092 608.477905,789.832520 C608.985535,782.338440 609.248535,774.816162 610.109680,767.362915 C610.507751,763.917786 611.352112,760.124084 613.232788,757.318787 C621.972961,744.281616 628.365845,730.240662 632.789246,715.100708 C640.588867,736.855896 642.188171,758.799866 635.573792,781.503784 z" />
      <path fill="black" d="M666.926758,693.181519 C675.937378,694.881775 681.684998,699.783691 684.809204,708.044250 C685.763977,710.568909 687.650391,712.741211 690.244141,714.654175 C689.428467,710.754211 688.441833,706.878906 687.873596,702.943176 C687.612061,701.131775 687.687195,698.980042 688.431458,697.360168 C695.910156,681.082947 701.607117,664.399719 701.089600,646.155518 C701.083191,645.930908 701.402893,645.697021 701.850525,645.083557 C720.430725,679.283569 717.105591,712.912598 701.096924,746.514771 C671.415161,739.869385 633.887268,700.014893 634.267456,676.696411 C644.816956,682.055054 655.682129,687.574097 666.926758,693.181519 z" />
      <path fill="black" d="M746.304932,605.696167 C741.757568,602.099854 737.386047,598.244446 732.601746,594.997253 C729.350708,592.790649 727.797607,590.325439 726.794128,586.409729 C724.797607,578.618530 721.613464,571.131714 718.827271,563.257202 C729.267029,564.661865 739.149536,567.652466 747.916260,574.586060 C763.377869,586.814636 773.605652,602.566284 780.754395,620.613220 C780.926697,621.048157 780.829773,621.589783 780.856873,622.056213 C752.682251,637.506042 696.769653,624.348755 684.037781,598.937012 C688.669983,599.632874 693.030701,600.769470 697.407776,600.836365 C704.542847,600.945557 711.757263,600.857788 718.806702,599.892822 C723.856140,599.201660 728.189697,600.009399 732.684937,601.996643 C736.604004,603.729065 740.749023,604.950134 745.395752,606.659180 C746.264221,606.850037 746.531067,606.778870 746.797974,606.707642 C746.633606,606.370483 746.469238,606.033325 746.304932,605.696167 z" />
      <path fill="black" d="M592.966309,714.712341 C593.493103,716.095032 593.917847,717.105530 594.342590,718.116089 C594.716187,718.093567 595.089783,718.071045 595.463379,718.048523 C595.463379,711.350281 595.187134,704.635559 595.583923,697.960815 C595.772461,694.789673 596.578247,691.271484 598.251282,688.639465 C605.059570,677.928467 610.726868,666.794189 613.811523,654.177856 C620.136414,670.430847 623.532104,687.066833 620.865479,704.608215 C618.181580,722.263000 610.402466,737.617737 600.051208,751.814148 C581.303955,743.445496 552.035034,702.103394 560.838196,676.478943 C561.936768,677.279785 562.953735,677.940002 563.879333,678.710083 C567.587891,681.795654 570.892029,685.593445 575.032471,687.889709 C585.624390,693.764343 590.842407,702.882507 592.966309,714.712341 z" />
      <path fill="black" d="M697.288208,516.319885 C669.857849,523.320007 644.930664,518.097290 621.691650,503.275604 C620.734009,502.664856 619.840027,501.954346 618.665955,501.110291 C623.377991,496.293060 627.480103,492.435333 635.289856,493.912567 C647.843079,496.287079 660.680115,497.168243 673.402161,498.637665 C676.195435,498.960327 679.009399,499.103821 681.813843,499.329773 C681.962830,498.792206 682.111816,498.254639 682.260864,497.717072 C667.175476,493.045746 652.090088,488.374390 636.994873,483.700012 C640.042114,475.527252 647.685242,475.832733 654.307861,475.170288 C682.918030,472.308502 705.986084,483.669861 726.164185,504.003357 C716.921143,509.513336 707.620789,513.562866 697.288208,516.319885 z" />
      <path fill="black" d="M572.573120,629.387085 C574.982849,635.528748 577.255859,641.304688 579.528870,647.080688 C579.922729,646.973450 580.316589,646.866211 580.710510,646.759033 C579.995911,639.511841 579.281250,632.264709 578.520691,624.551636 C580.881104,624.961914 582.739441,625.284851 585.509277,625.766235 C586.954224,614.624390 588.388306,603.565918 589.818298,592.538879 C607.754883,611.257324 606.774719,653.138000 587.252319,680.503113 C575.988403,672.473389 565.912415,663.533936 558.859497,651.320557 C552.082581,639.585144 548.729492,627.574768 554.057617,613.893677 C560.531006,618.299500 571.068359,617.782166 572.573120,629.387085 z" />
      <path fill="black" d="M680.476929,618.570740 C691.284363,638.949829 689.516968,659.204407 681.517883,679.521729 C680.767700,681.426941 680.282227,683.565125 676.985840,682.497253 C652.052856,674.420105 631.826111,660.856445 621.070557,635.026123 C622.460754,635.434509 623.425232,635.721069 624.391602,636.001099 C632.476074,638.344299 640.444763,641.326782 648.683350,642.820007 C654.935547,643.953125 660.109314,645.580017 663.390015,651.374390 C664.418762,653.191345 666.060303,654.661377 668.351929,655.895813 C667.655212,653.508423 666.729126,651.160583 666.309814,648.725464 C665.450256,643.733398 663.974243,638.628479 664.341187,633.688110 C665.200500,622.116577 664.787292,610.755737 662.006042,599.488708 C661.865906,598.921204 661.932434,598.302734 661.840149,596.453247 C669.735657,603.188660 675.676880,610.133118 680.476929,618.570740 z" />
      <path fill="black" d="M628.208557,600.791626 C624.055054,594.270447 619.901611,587.749268 615.561829,580.935547 C622.047913,580.231262 628.130493,579.293091 634.238831,579.074829 C636.094666,579.008606 638.665466,580.454224 639.815247,582.013672 C650.177368,596.068542 653.057617,612.066223 651.571594,629.810486 C649.646057,629.615601 647.795715,629.803528 646.244324,629.209900 C636.834961,625.609253 627.452759,621.927917 618.167603,618.021362 C616.491638,617.316162 614.358459,615.630493 614.047729,614.075500 C611.619873,601.925537 605.411926,591.546265 599.295105,581.093323 C598.986328,580.565674 598.900024,579.907898 598.710144,579.310669 C599.061584,578.914795 599.412964,578.518921 599.764404,578.123047 C608.797607,585.866333 617.830811,593.609619 627.476685,601.771118 C628.486755,601.957275 628.884155,601.725220 628.994141,601.568604 C628.822937,601.918884 628.939209,602.193787 629.055542,602.468689 C629.098267,602.209534 629.141052,601.950378 629.081421,601.489868 C628.830566,600.956360 628.573730,600.790710 628.208557,600.791626 z" />
      <path fill="black" d="M661.130615,577.866028 C658.134155,576.126953 655.490906,574.507812 651.846924,572.275635 C663.580200,570.901062 674.099365,569.668762 685.259705,568.361389 C677.350586,564.749573 678.522095,556.479004 675.609497,550.186523 C673.768127,546.208374 671.945923,542.221375 670.021912,538.035645 C692.286255,546.802063 707.249634,563.493408 713.864624,587.479126 C695.362122,589.375000 677.914551,586.668762 661.130615,577.866028 z" />
      <path fill="black" d="M811.558838,487.684113 C835.381592,479.497986 855.383850,466.349335 871.416809,447.308014 C871.585388,447.107819 872.009155,447.122406 873.792480,446.620850 C868.939941,465.273438 864.285767,483.163605 859.586670,501.226593 C857.617188,500.955048 856.469055,500.919006 855.388977,500.629333 C841.305176,496.851440 827.227966,493.048676 813.163147,489.200714 C812.454590,489.006805 811.874268,488.344238 811.558838,487.684113 z" />
      <path fill="black" d="M632.886658,540.354919 C620.567322,532.978027 608.247986,525.601135 596.346619,518.474487 C626.343323,514.588623 657.338135,530.641479 664.769836,558.549377 C657.060913,558.549377 649.564453,558.678040 642.074585,558.511536 C635.201843,558.358704 630.347229,555.433533 627.906921,548.482605 C626.757568,545.208862 624.097168,542.465637 621.612549,538.713440 C625.276855,539.697815 628.109009,540.458679 631.526550,541.522400 C632.933411,541.875000 633.754822,541.924622 635.995117,542.059998 C634.134338,541.039307 633.510498,540.697144 632.886658,540.354919 z" />
      <path fill="black" d="M593.077942,547.926453 C589.828308,544.415344 586.723938,540.753845 583.288208,537.435486 C579.846985,534.111755 576.074768,531.130798 572.356689,526.656311 C575.521667,526.656311 578.846619,526.016479 581.825439,526.761047 C600.006958,531.306030 617.232666,548.343384 622.638550,567.176941 C608.691589,568.275269 595.360962,567.647766 583.552673,559.230591 C582.144165,558.226562 581.286316,556.418823 580.248840,554.930908 C576.124084,549.015320 572.029419,543.078796 567.715027,536.848877 C569.315857,537.258728 571.347351,537.417664 573.024109,538.272461 C579.356018,541.500488 585.572632,544.954712 592.396484,548.606201 C593.224243,548.847046 593.488037,548.805847 593.751831,548.764648 C593.527222,548.485229 593.302551,548.205872 593.077942,547.926453 z" />
      <path fill="black" d="M585.297241,486.334717 C584.671875,486.551880 583.880127,486.574219 583.088379,486.596558 C583.429810,486.339264 583.771240,486.082001 584.451172,485.791107 C584.903442,485.885010 585.017090,486.012482 585.297241,486.334717 z" />
      <path fill="black" d="M746.094910,605.921753 C746.469238,606.033325 746.633606,606.370483 746.797974,606.707642 C746.531067,606.778870 746.264221,606.850037 745.752197,606.777893 C745.632996,606.472107 745.758972,606.309753 746.094910,605.921753 z" />
      <path fill="black" d="M629.183838,601.691223 C629.141052,601.950378 629.098267,602.209534 629.055542,602.468689 C628.939209,602.193787 628.822937,601.918884 628.973145,601.629028 C629.239563,601.614014 629.183899,601.691223 629.183838,601.691223 z" />
      <path fill="black" d="M628.025024,600.994385 C628.573730,600.790710 628.830566,600.956360 629.081482,601.489868 C629.183899,601.691223 629.239563,601.614014 629.260620,601.553589 C628.884155,601.725220 628.486755,601.957275 627.789612,601.902893 C627.607056,601.476746 627.724243,601.336975 628.025024,600.994385 z" />
      <path fill="black" d="M632.582886,540.585083 C633.510498,540.697144 634.134338,541.039307 635.995117,542.059998 C633.754822,541.924622 632.933411,541.875000 631.907227,541.569519 C631.894775,541.147522 632.086975,540.981384 632.582886,540.585083 z" />
      <path fill="black" d="M592.929443,548.075806 C593.302551,548.205872 593.527222,548.485229 593.751831,548.764648 C593.488037,548.805847 593.224243,548.847046 592.732056,548.715271 C592.503723,548.542297 592.780945,548.225159 592.929443,548.075806 z" />
    </mask>
  </defs>
  <!-- Wings (Left + Right) -->
  <g filter="url(#glow)">
    <rect x="0" y="0" width="962" height="1024" fill="#4dc9ff" mask="url(#cutout-mask)" opacity="0.9"/>
  </g>
</svg>