<?xml version="1.0" encoding="UTF-8"?>
<svg width="648" height="880" viewBox="350 70 324 440" xmlns="http://www.w3.org/2000/svg">
  <defs>
    <filter id="glow" x="-50%" y="-50%" width="200%" height="200%">
      <feGaussianBlur stdDeviation="4" result="blur"/>
      <feMerge>
        <feMergeNode in="blur"/>
        <feMergeNode in="SourceGraphic"/>
      </feMerge>
    </filter>
  </defs>
  <!-- Circle - Outer Arc Decorations (円) -->
  <g filter="url(#glow)">
    <path fill="#4dc9ff" opacity="0.9" d="M502.455872,90.243164 C520.985168,89.063774 538.928772,90.409576 556.162109,96.149223 C574.033020,102.101196 590.150818,111.488724 604.409302,123.911018 C605.869568,125.183197 607.280945,126.511414 608.977051,128.051590 C607.531616,129.261993 605.878357,130.646362 604.042297,132.183853 C578.333801,110.413841 549.665283,96.775978 515.044922,96.815872 C480.787506,96.855354 451.914062,109.109932 426.133362,131.496811 C425.799347,131.186798 425.073486,130.386551 424.221710,129.756607 C423.284058,129.063156 422.230652,128.526260 419.754211,127.032173 C429.221771,120.320961 437.039307,114.371605 445.258636,109.041939 C460.170990,99.372383 476.949524,94.489151 494.198517,91.064278 C496.750641,90.557541 499.420319,90.642914 502.455872,90.243164 z" />
    <path fill="#4dc9ff" opacity="0.9" d="M546.098755,372.022705 C541.440063,373.027710 537.259766,374.397583 532.974915,374.936737 C502.719086,378.743896 474.051697,373.346283 447.439209,358.599792 C438.596161,353.699738 430.781433,346.941589 422.511414,341.012207 C421.341431,340.173340 420.256134,339.216400 418.365540,337.699402 C420.332886,336.515137 422.318939,335.319611 424.372986,334.083130 C473.956421,378.636841 546.114380,382.750549 601.332764,336.333344 C602.967712,337.760742 604.584290,339.172150 606.502502,340.846863 C588.629761,355.946350 568.937012,366.562592 546.098755,372.022705 z" />
    <path fill="#4dc9ff" opacity="0.9" d="M565.695679,89.279343 C585.023132,96.406181 601.547485,107.169754 615.612976,122.255753 C614.771240,122.029785 613.722168,122.049896 613.118530,121.541328 C602.208069,112.348633 590.924927,103.658607 577.967224,97.528595 C563.354187,90.615456 548.175232,85.769051 531.932007,83.869560 C502.086792,80.379440 473.795074,85.100731 447.516113,99.414467 C437.231903,105.016106 428.229614,112.970650 418.640381,119.849319 C417.015015,121.015266 415.374115,122.159599 412.730713,124.027275 C418.723511,112.262077 450.093903,90.136833 483.683868,83.133751 C511.428833,77.349274 538.706970,79.288727 565.695679,89.279343 z" />
    <path fill="#4dc9ff" opacity="0.9" d="M419.018127,347.002106 C438.260468,363.740692 460.249481,374.297394 484.687622,379.996765 C497.764893,383.046600 511.108063,383.937988 524.376770,382.859558 C548.145691,380.927734 570.515015,374.024658 590.569580,360.804565 C597.724304,356.088165 604.290527,350.483032 611.194031,345.376343 C612.049316,344.743683 613.328613,344.684235 614.542297,344.770447 C562.606873,396.849701 472.140961,402.057648 411.069824,343.433807 C415.480408,340.693604 416.054169,346.034454 419.018127,347.002106 z" />
    <path fill="#4dc9ff" opacity="0.9" d="M566.270630,113.709602 C583.192688,121.551941 600.041504,133.962082 599.937866,138.346039 C543.533142,93.106438 486.703796,92.399879 429.436523,137.338882 C456.576721,107.267380 514.410217,89.294701 566.270630,113.709602 z" />
    <path fill="#4dc9ff" opacity="0.9" d="M595.664307,330.839844 C597.634338,331.708191 597.801270,331.918427 596.307373,333.104645 C591.617126,336.828735 587.002563,340.712708 581.972961,343.931946 C569.869080,351.679077 556.733459,357.526825 542.737305,360.464905 C530.042297,363.129852 517.202576,364.740112 503.885345,363.272461 C487.298553,361.444550 471.575134,357.414948 456.852325,349.877411 C445.936310,344.288818 435.497986,337.760040 426.515137,327.884613 C427.945984,327.884613 428.963959,327.569763 429.346313,327.929810 C447.336456,344.871399 468.883942,354.996002 492.819031,359.754852 C505.257843,362.227966 517.929688,361.921356 530.755676,360.238159 C554.538635,357.117004 574.895996,347.035492 593.643860,332.830841 C594.299011,332.334473 594.817749,331.658234 595.664307,330.839844 z" />
  </g>
</svg>