<?xml version="1.0" encoding="UTF-8"?>
<svg width="648" height="880" viewBox="350 70 324 440" xmlns="http://www.w3.org/2000/svg">
  <defs>
    <filter id="glow" x="-50%" y="-50%" width="200%" height="200%">
      <feGaussianBlur stdDeviation="4" result="blur"/>
      <feMerge>
        <feMergeNode in="blur"/>
        <feMergeNode in="SourceGraphic"/>
      </feMerge>
    </filter>
  </defs>
  <!-- All AEGIS Parts Combined -->
  <g filter="url(#glow)">
    <!-- Circle (円) -->
    <path fill="#4dc9ff" opacity="0.9" d="M502.455872,90.243164 C520.985168,89.063774 538.928772,90.409576 556.162109,96.149223 C574.033020,102.101196 590.150818,111.488724 604.409302,123.911018 C605.869568,125.183197 607.280945,126.511414 608.977051,128.051590 C607.531616,129.261993 605.878357,130.646362 604.042297,132.183853 C578.333801,110.413841 549.665283,96.775978 515.044922,96.815872 C480.787506,96.855354 451.914062,109.109932 426.133362,131.496811 C425.799347,131.186798 425.073486,130.386551 424.221710,129.756607 C423.284058,129.063156 422.230652,128.526260 419.754211,127.032173 C429.221771,120.320961 437.039307,114.371605 445.258636,109.041939 C460.170990,99.372383 476.949524,94.489151 494.198517,91.064278 C496.750641,90.557541 499.420319,90.642914 502.455872,90.243164 z" />
    <path fill="#4dc9ff" opacity="0.9" d="M546.098755,372.022705 C541.440063,373.027710 537.259766,374.397583 532.974915,374.936737 C502.719086,378.743896 474.051697,373.346283 447.439209,358.599792 C438.596161,353.699738 430.781433,346.941589 422.511414,341.012207 C421.341431,340.173340 420.256134,339.216400 418.365540,337.699402 C420.332886,336.515137 422.318939,335.319611 424.372986,334.083130 C473.956421,378.636841 546.114380,382.750549 601.332764,336.333344 C602.967712,337.760742 604.584290,339.172150 606.502502,340.846863 C588.629761,355.946350 568.937012,366.562592 546.098755,372.022705 z" />
    <path fill="#4dc9ff" opacity="0.9" d="M565.695679,89.279343 C585.023132,96.406181 601.547485,107.169754 615.612976,122.255753 C614.771240,122.029785 613.722168,122.049896 613.118530,121.541328 C602.208069,112.348633 590.924927,103.658607 577.967224,97.528595 C563.354187,90.615456 548.175232,85.769051 531.932007,83.869560 C502.086792,80.379440 473.795074,85.100731 447.516113,99.414467 C437.231903,105.016106 428.229614,112.970650 418.640381,119.849319 C417.015015,121.015266 415.374115,122.159599 412.730713,124.027275 C418.723511,112.262077 450.093903,90.136833 483.683868,83.133751 C511.428833,77.349274 538.706970,79.288727 565.695679,89.279343 z" />
    <path fill="#4dc9ff" opacity="0.9" d="M419.018127,347.002106 C438.260468,363.740692 460.249481,374.297394 484.687622,379.996765 C497.764893,383.046600 511.108063,383.937988 524.376770,382.859558 C548.145691,380.927734 570.515015,374.024658 590.569580,360.804565 C597.724304,356.088165 604.290527,350.483032 611.194031,345.376343 C612.049316,344.743683 613.328613,344.684235 614.542297,344.770447 C562.606873,396.849701 472.140961,402.057648 411.069824,343.433807 C415.480408,340.693604 416.054169,346.034454 419.018127,347.002106 z" />
    <path fill="#4dc9ff" opacity="0.9" d="M566.270630,113.709602 C583.192688,121.551941 600.041504,133.962082 599.937866,138.346039 C543.533142,93.106438 486.703796,92.399879 429.436523,137.338882 C456.576721,107.267380 514.410217,89.294701 566.270630,113.709602 z" />
    <path fill="#4dc9ff" opacity="0.9" d="M595.664307,330.839844 C597.634338,331.708191 597.801270,331.918427 596.307373,333.104645 C591.617126,336.828735 587.002563,340.712708 581.972961,343.931946 C569.869080,351.679077 556.733459,357.526825 542.737305,360.464905 C530.042297,363.129852 517.202576,364.740112 503.885345,363.272461 C487.298553,361.444550 471.575134,357.414948 456.852325,349.877411 C445.936310,344.288818 435.497986,337.760040 426.515137,327.884613 C427.945984,327.884613 428.963959,327.569763 429.346313,327.929810 C447.336456,344.871399 468.883942,354.996002 492.819031,359.754852 C505.257843,362.227966 517.929688,361.921356 530.755676,360.238159 C554.538635,357.117004 574.895996,347.035492 593.643860,332.830841 C594.299011,332.334473 594.817749,331.658234 595.664307,330.839844 z" />
    <!-- Shield (盾) -->
    <path fill="#4dc9ff" opacity="0.9" d="M658.023560,196.911850 C659.362427,204.826202 661.537415,212.280212 661.802246,219.801483 C662.215271,231.525681 662.421204,243.458359 660.695496,255.000778 C658.927612,266.824890 655.684937,278.652924 651.387207,289.825012 C643.746948,309.686066 632.109985,327.221802 616.435669,342.014984 C606.182434,331.717712 595.953125,321.444550 585.678040,311.125336 C564.776123,329.557678 540.733887,339.472870 512.670532,339.024658 C484.493164,338.574646 460.849091,327.681580 439.583832,307.430176 C430.069641,318.077759 420.420288,328.876587 410.839050,339.599182 C362.233734,294.712067 342.962402,194.437149 409.954834,125.801041 C420.462524,135.841522 430.977722,145.889206 441.383881,155.832672 C462.243164,135.691711 487.449371,125.887711 515.867432,126.261673 C544.023682,126.632202 568.858337,136.990509 588.202759,156.327698 C598.417480,146.212418 608.292114,136.433914 618.692871,126.134460 C638.853271,146.134842 651.425354,169.605469 658.023560,196.911850 M604.997437,326.003601 C604.997437,326.003601 604.909790,325.920227 604.360962,326.515991 C607.586670,329.867615 610.872253,333.164246 614.016724,336.590363 C616.070435,338.828003 617.664917,338.170715 619.319092,336.186188 C630.831482,322.374512 641.075684,307.789917 648.038513,291.050446 C653.839417,277.104492 657.704712,262.676056 658.883606,247.662811 C659.533936,239.380203 659.484131,230.968582 658.867065,222.680862 C658.218567,213.970657 657.056824,205.218781 655.163574,196.697433 C650.929321,177.639740 642.651306,160.299149 631.042114,144.608963 C627.402588,139.690018 623.327820,135.093124 618.552368,129.247116 C607.885254,139.941833 598.069824,149.782669 588.391418,159.486130 C585.576721,157.105286 582.485718,154.402664 579.302612,151.813126 C563.664307,139.090683 545.844482,131.041443 525.806580,129.167328 C509.271301,127.620781 492.659424,129.044739 477.159515,135.492599 C456.972107,143.890411 440.105560,156.763336 427.956024,175.323151 C414.774139,195.460022 408.416687,217.254272 410.937714,241.469131 C412.117676,252.803116 414.810608,263.652802 419.503815,273.996979 C427.391418,291.381927 438.965546,305.704224 454.438507,317.058838 C470.498199,328.844055 488.420685,335.664948 508.087036,336.733032 C517.903015,337.266144 528.073730,335.929565 537.730713,333.820709 C562.807739,328.344482 582.587341,314.389587 597.757080,293.759613 C605.846985,282.757843 611.454834,270.620728 615.022095,257.463257 C618.955505,242.955383 619.440918,228.170288 616.651184,213.617981 C613.157532,195.394012 605.461792,178.812363 593.156372,164.614380 C592.703918,164.092377 592.839539,163.060715 592.701111,162.266556 C603.118530,171.641876 609.552551,183.117462 613.978210,195.747665 C618.885376,209.752243 622.000061,224.066650 619.982971,239.043320 C619.098267,245.612000 618.525208,252.278854 616.940002,258.685699 C613.219421,273.722717 606.636536,287.410522 596.384033,299.229553 C593.360474,302.715088 588.144104,307.173889 588.751709,310.227844 C589.566406,314.322693 594.977539,317.577759 598.587585,321.012177 C600.569153,322.897369 602.904724,324.410461 604.997437,326.003601 M405.963470,331.442657 C407.083710,332.657288 408.203979,333.871918 408.545593,334.242310 C418.332581,324.479095 427.953430,314.881592 437.475006,305.383148 C418.300659,284.655762 407.824585,259.718994 408.155518,230.968155 C408.485291,202.320343 419.422272,177.573242 437.999939,158.881882 C428.714081,148.153854 420.055908,138.150970 410.568695,127.190331 C402.910278,138.031921 395.937500,147.190842 389.726898,156.840286 C375.997803,178.171097 370.112122,202.026505 369.167664,227.067245 C368.804779,236.688293 369.952820,246.425491 371.089020,256.029724 C372.703125,269.673096 376.750122,282.667694 382.548828,295.180939 C388.571014,308.176239 396.222046,320.045807 405.963470,331.442657 z" />
    <path fill="#4dc9ff" opacity="0.9" d="M601.242737,315.684937 C599.058960,313.896271 597.141296,312.340393 595.252380,310.807800 C638.944214,264.724335 635.028870,197.592514 598.920227,158.027069 C600.948364,156.397552 602.994934,154.753189 605.761597,152.530273 C609.869080,158.670700 614.860596,165.486557 619.166077,172.711258 C626.807129,185.532867 631.833862,199.484161 633.869507,214.228424 C636.858765,235.879227 634.308899,256.991516 626.220459,277.449493 C620.488098,291.948425 612.007690,304.548279 601.242737,315.684937 z" />
    <path fill="#4dc9ff" opacity="0.9" d="M605.039062,326.047485 C606.717468,323.567780 608.048767,320.768463 610.039307,318.564484 C625.416443,301.538574 635.266235,281.841064 640.125061,259.395325 C642.798889,247.043137 643.753479,234.619537 642.843689,222.179977 C641.819519,208.176270 638.654907,194.487030 632.875977,181.557190 C627.517700,169.568451 620.919556,158.351151 612.109131,148.514236 C611.508606,147.843750 611.556458,146.592590 611.302734,145.611496 C611.878967,145.331894 612.455139,145.052292 613.031311,144.772675 C617.745911,151.710587 622.518799,158.609695 627.162537,165.594650 C636.131409,179.085190 641.354248,194.272003 643.621399,209.975082 C645.388611,222.216003 644.424805,234.929916 643.912292,247.402283 C643.197754,264.789368 637.342163,280.802124 628.973511,295.896637 C622.757324,307.108643 615.650085,317.697845 605.269958,325.956116 C604.909790,325.920227 604.997437,326.003601 605.039062,326.047485 z" />
    <path fill="#4dc9ff" opacity="0.9" d="M386.000000,225.073059 C385.104889,245.498016 387.999481,264.745819 395.941956,283.190887 C400.754272,294.366699 406.529816,304.880524 414.548645,314.102295 C415.828522,315.574158 416.703949,317.397705 417.384735,319.270020 C377.852570,282.941193 366.625244,195.816223 420.513306,142.515305 C420.026489,143.823730 419.891357,145.475174 419.000031,146.389038 C406.000183,159.717010 397.020935,175.564499 391.642303,193.139923 C388.548370,203.249756 387.802734,214.078278 386.000000,225.073059 z" />
    <!-- Cross (十字架) -->
    <path fill="#4dc9ff" opacity="0.9" d="M511.000488,155.167389 C512.207886,151.952621 513.415283,148.737854 514.725769,145.248657 C517.719788,159.466080 517.657410,174.436050 527.711609,186.423233 C527.258911,186.686066 526.806274,186.948898 526.353638,187.211746 C523.823059,185.447479 521.292480,183.683212 517.536011,181.064240 C518.073364,188.182541 518.727539,194.137726 518.920837,200.107834 C519.152588,207.264221 519.181213,214.440109 518.925293,221.594254 C518.782898,225.575256 519.730652,227.131836 524.145508,227.122498 C536.059021,227.097275 547.973328,227.684341 559.888550,227.978058 C561.437012,228.016220 562.992798,227.758270 565.221436,227.584869 C563.387024,224.627060 562.006714,222.401505 560.957886,220.710312 C572.703003,224.451187 584.593262,228.238266 596.057190,231.889572 C583.738586,234.479919 570.467590,236.379501 559.834229,245.651611 C559.589050,245.279404 559.343872,244.907181 559.098755,244.534973 C560.889343,241.851852 562.679932,239.168732 564.785889,236.013138 C550.527710,236.013138 536.482971,235.937454 522.442688,236.152390 C521.280212,236.170181 519.161804,238.144135 519.148743,239.229111 C518.940002,256.648590 519.001465,274.071320 519.001465,291.988556 C522.056702,289.718842 524.669617,287.777710 527.282532,285.836609 C527.688904,286.067108 528.095337,286.297607 528.501770,286.528137 C517.521240,298.942810 517.539307,314.644043 514.517029,329.567108 C511.336121,314.784851 511.539093,298.997040 500.627441,286.704315 C500.953766,286.411438 501.280121,286.118561 501.606445,285.825714 C504.428223,287.900665 507.250031,289.975616 511.183533,292.868011 C510.716156,288.450775 510.080170,285.068512 510.049072,281.680634 C509.928375,268.520447 509.912842,255.357590 510.049225,242.197708 C510.094116,237.867447 509.211945,235.629517 504.025696,235.869202 C494.217316,236.322510 484.372650,236.052078 474.544006,235.969681 C471.460388,235.943817 468.379791,235.556854 464.426422,235.272491 C466.164246,238.248856 467.668427,240.825027 468.778473,242.726196 C456.942780,238.802567 444.912018,234.814255 433.617340,231.069977 C438.754486,229.883774 445.154755,228.898224 451.205170,226.869492 C457.179810,224.866180 462.800781,221.808060 469.693878,218.710800 C467.393707,222.051392 465.666229,224.560211 463.321930,227.964859 C472.091278,227.964859 480.111816,228.082291 488.126923,227.923950 C493.548309,227.816833 498.970764,226.974716 504.376465,227.110397 C508.644897,227.217514 510.234070,226.131699 510.105103,221.569672 C509.785095,210.250000 509.986389,198.915192 510.014008,187.586533 C510.018311,185.822205 510.210419,184.058334 510.335205,181.967468 C507.712189,183.579773 505.069733,185.204041 501.558105,187.362595 C505.092346,178.772858 510.982025,171.877426 511.236755,162.233307 C511.320465,159.449387 511.160461,157.308380 511.000488,155.167389 z" />
    <path fill="#4dc9ff" opacity="0.9" d="M589.000000,192.154343 C589.000000,201.958405 589.044739,211.279648 588.967773,220.599915 C588.949097,222.863815 590.031738,226.096008 585.886780,225.967484 C581.774048,225.839966 583.066467,222.572662 583.045227,220.371567 C582.944275,209.886551 582.919067,199.399109 583.036438,188.914429 C583.089722,184.158295 581.504822,181.532471 576.492249,180.009811 C558.897156,174.664963 541.501160,168.668182 523.982117,163.067108 C519.971069,161.784729 518.478638,159.411804 519.209167,155.006851 C528.427673,158.436081 537.346802,162.203369 546.547119,165.067917 C559.390259,169.066666 572.457153,172.343552 585.380981,176.092636 C586.439270,176.399643 587.739258,177.872528 587.891785,178.950134 C588.487183,183.158493 588.666138,187.425797 589.000000,192.154343 z" />
    <path fill="#4dc9ff" opacity="0.9" d="M510.621216,155.092422 C511.160461,157.308380 511.320465,159.449387 511.195312,161.815384 C502.730896,164.774796 494.604706,167.682816 486.359863,170.202744 C474.104034,173.948593 461.739960,177.340988 449.493744,181.116592 C448.093933,181.548157 446.234528,183.410233 446.148376,184.712265 C445.537659,193.940735 445.172485,203.194427 445.075439,212.443710 C445.033264,216.464813 445.808868,220.494476 446.239929,224.788025 C443.921600,224.788025 442.179321,224.788025 440.562561,224.788025 C440.562561,208.668106 440.562561,192.651138 440.562561,176.593643 C465.130402,172.517395 487.704071,163.824646 510.621216,155.092422 z" />
    <path fill="#4dc9ff" opacity="0.9" d="M544.644287,305.767578 C536.612915,310.833710 528.888550,315.696350 520.812927,320.780121 C520.427002,315.559235 522.006226,313.241425 526.173401,310.636627 C535.620728,304.731232 544.677063,297.913025 552.876221,290.362579 C566.762329,277.575043 575.059753,261.197540 579.960693,243.072998 C581.156250,238.651901 581.085693,238.632828 587.125122,237.200424 C584.210388,251.641434 579.256897,264.988495 571.312134,277.210571 C564.166992,288.202515 554.858215,297.154510 544.644287,305.767578 z" />
    <path fill="#4dc9ff" opacity="0.9" d="M452.678223,255.222107 C461.364136,279.803955 483.871002,302.116638 507.634338,313.160583 C508.020172,315.333832 508.405304,317.505585 508.958130,320.623291 C473.200378,303.062256 449.530518,276.887756 441.895355,237.442307 C447.689972,238.358505 447.606110,238.380478 449.048798,243.886002 C450.022736,247.602844 451.274475,251.246887 452.678223,255.222107 z" />
    <path fill="#4dc9ff" opacity="0.9" d="M559.499878,218.912933 C559.679260,218.511047 560.163879,218.359299 560.659302,218.262711 C560.685791,218.257568 560.802917,218.717163 560.877869,218.960403 C560.521057,219.031815 560.164307,219.103226 559.499878,218.912933 z" />
    <!-- Text (文字) - A.E.G.I.S. -->
    <path fill="#4dc9ff" opacity="0.9" d="M405.46 445L405.46 445L405.46 417.54Q405.46 415.58 406.42 413.97Q407.38 412.36 409.02 411.40Q410.65 410.44 412.57 410.44L412.57 410.44L432.87 410.44Q434.84 410.44 436.45 411.40Q438.06 412.36 439.04 413.97Q440.02 415.58 440.02 417.54L440.02 417.54L440.02 445L432.49 445L432.49 433.86L412.90 433.86L412.90 445L405.46 445ZM412.90 426.38L412.90 426.38L432.49 426.38L432.49 417.93Q432.49 417.93 432.49 417.93Q432.49 417.93 432.49 417.93L432.49 417.93L412.90 417.93Q412.90 417.93 412.90 417.93Q412.90 417.93 412.90 417.93L412.90 417.93L412.90 426.38ZM452.74 445L445.40 445L445.40 445L445.40 437.66L452.74 437.66L452.74 445ZM488.70 445L456.78 445L456.78 410.44L488.70 410.44L488.70 417.93L464.31 417.93L464.31 423.98L483.94 423.98L483.94 431.46L464.31 431.46L464.31 437.51L488.70 437.51L488.70 445ZM500.70 445L493.35 445L493.35 445L493.35 437.66L500.70 437.66L500.70 445ZM532.04 445L511.74 445Q509.82 445 508.18 444.04Q506.55 443.08 505.59 441.45Q504.63 439.82 504.63 437.90L504.63 437.90L504.63 417.54Q504.63 415.58 505.59 413.97Q506.55 412.36 508.18 411.40Q509.82 410.44 511.74 410.44L511.74 410.44L532.04 410.44Q534.01 410.44 535.62 411.40Q537.22 412.36 538.21 413.97Q539.19 415.58 539.19 417.54L539.19 417.54L539.19 420.81L531.66 420.81L531.66 417.93Q531.66 417.93 531.66 417.93Q531.66 417.93 531.66 417.93L531.66 417.93L512.07 417.93Q512.07 417.93 512.07 417.93Q512.07 417.93 512.07 417.93L512.07 417.93L512.07 437.51Q512.07 437.51 512.07 437.51Q512.07 437.51 512.07 437.51L512.07 437.51L531.66 437.51Q531.66 437.51 531.66 437.51Q531.66 437.51 531.66 437.51L531.66 437.51L531.66 432.33L524.17 432.33L524.17 424.84L539.19 424.84L539.19 437.90Q539.19 439.82 538.21 441.45Q537.22 443.08 535.62 444.04Q534.01 445 532.04 445L532.04 445ZM551.72 445L544.38 445L544.38 445L544.38 437.66L551.72 437.66L551.72 445ZM561.80 445L554.46 445L554.46 410.44L561.80 410.44L561.80 445ZM573.18 445L565.83 445L565.83 445L565.83 437.66L573.18 437.66L573.18 445ZM604.47 445L584.12 445Q582.20 445 580.57 444.04Q578.94 443.08 577.98 441.45Q577.02 439.82 577.02 437.90L577.02 437.90L577.02 434.68L584.46 434.68L584.46 437.51Q584.46 437.51 584.46 437.51Q584.46 437.51 584.46 437.51L584.46 437.51L604.04 437.51Q604.04 437.51 604.04 437.51Q604.04 437.51 604.04 437.51L604.04 437.51L604.04 431.46Q604.04 431.46 604.04 431.46Q604.04 431.46 604.04 431.46L604.04 431.46L584.12 431.46Q582.20 431.46 580.57 430.50Q578.94 429.54 577.98 427.94Q577.02 426.33 577.02 424.36L577.02 424.36L577.02 417.54Q577.02 415.58 577.98 413.97Q578.94 412.36 580.57 411.40Q582.20 410.44 584.12 410.44L584.12 410.44L604.47 410.44Q606.39 410.44 608 411.40Q609.61 412.36 610.59 413.97Q611.58 415.58 611.58 417.54L611.58 417.54L611.58 420.76L604.04 420.76L604.04 417.93Q604.04 417.93 604.04 417.93Q604.04 417.93 604.04 417.93L604.04 417.93L584.46 417.93Q584.46 417.93 584.46 417.93Q584.46 417.93 584.46 417.93L584.46 417.93L584.46 423.98Q584.46 423.98 584.46 423.98Q584.46 423.98 584.46 423.98L584.46 423.98L604.47 423.98Q606.39 423.98 608 424.94Q609.61 425.90 610.59 427.50Q611.58 429.11 611.58 431.08L611.58 431.08L611.58 437.90Q611.58 439.82 610.59 441.45Q609.61 443.08 608 444.04Q606.39 445 604.47 445L604.47 445ZM624.10 445L616.76 445L616.76 445L616.76 437.66L624.10 437.66L624.10 445Z" />
    <path fill="#4dc9ff" opacity="0.9" d="M432.63 485L430.79 485L430.79 474.93L438.91 474.93Q439.44 474.93 439.89 475.20Q440.33 475.47 440.60 475.91Q440.87 476.35 440.87 476.88L440.87 476.88L440.87 479.60Q440.87 480.13 440.60 480.58Q440.33 481.02 439.89 481.28Q439.44 481.54 438.91 481.54L438.91 481.54L432.63 481.56L432.63 485ZM432.80 479.68L432.80 479.68L438.82 479.68Q438.89 479.68 438.95 479.64Q439.00 479.60 439.00 479.53L439.00 479.53L439.00 476.95Q439.00 476.88 438.95 476.83Q438.89 476.78 438.82 476.78L438.82 476.78L432.80 476.78Q432.73 476.78 432.68 476.83Q432.63 476.88 432.63 476.95L432.63 476.95L432.63 479.53Q432.63 479.60 432.68 479.64Q432.73 479.68 432.80 479.68ZM443.72 485L443.72 485Q443.19 485 442.76 484.73Q442.32 484.47 442.06 484.03Q441.79 483.60 441.79 483.07L441.79 483.07L441.79 478.81Q441.79 478.28 442.06 477.85Q442.32 477.41 442.76 477.15Q443.19 476.88 443.72 476.88L443.72 476.88L448.10 476.88Q448.64 476.88 449.08 477.15Q449.52 477.41 449.78 477.85Q450.04 478.28 450.04 478.81L450.04 478.81L450.04 481.86L443.62 481.86L443.62 483.00Q443.62 483.07 443.67 483.12Q443.72 483.17 443.79 483.17L443.79 483.17L450.04 483.17L450.04 485L443.72 485ZM443.62 478.88L443.62 480.21L448.20 480.21L448.20 478.88Q448.20 478.81 448.15 478.76Q448.10 478.71 448.03 478.71L448.03 478.71L443.79 478.71Q443.72 478.71 443.67 478.76Q443.62 478.81 443.62 478.88L443.62 478.88ZM453.24 485L451.41 485L451.41 485L451.41 478.81Q451.41 478.28 451.67 477.85Q451.94 477.41 452.38 477.15Q452.82 476.88 453.34 476.88L453.34 476.88L457.85 476.88L457.85 478.71L453.41 478.71Q453.34 478.71 453.29 478.76Q453.24 478.81 453.24 478.88L453.24 478.88L453.24 485ZM460.76 485L458.93 485L458.93 485L458.93 476.15Q458.93 475.62 459.19 475.19Q459.46 474.75 459.89 474.49Q460.33 474.22 460.86 474.22L460.86 474.22L463.92 474.22L463.92 476.07L460.93 476.07Q460.86 476.07 460.81 476.12Q460.76 476.17 460.76 476.24L460.76 476.24L460.76 476.88L463.92 476.88L463.92 478.71L460.76 478.71L460.76 485ZM466.95 485L466.95 485Q466.42 485 465.98 484.73Q465.55 484.47 465.28 484.03Q465.02 483.60 465.02 483.07L465.02 483.07L465.02 478.81Q465.02 478.28 465.28 477.85Q465.55 477.41 465.98 477.15Q466.42 476.88 466.95 476.88L466.95 476.88L471.33 476.88Q471.86 476.88 472.30 477.15Q472.74 477.41 473.00 477.85Q473.26 478.28 473.26 478.81L473.26 478.81L473.26 483.07Q473.26 483.60 473.00 484.03Q472.74 484.47 472.31 484.73Q471.88 485 471.33 485L471.33 485L466.95 485ZM467.02 483.17L467.02 483.17L471.26 483.17Q471.33 483.17 471.38 483.12Q471.43 483.07 471.43 483.00L471.43 483.00L471.43 478.88Q471.43 478.81 471.38 478.76Q471.33 478.71 471.26 478.71L471.26 478.71L467.02 478.71Q466.95 478.71 466.90 478.76Q466.85 478.81 466.85 478.88L466.85 478.88L466.85 483.00Q466.85 483.07 466.90 483.12Q466.95 483.17 467.02 483.17ZM476.24 485L474.41 485L474.41 485L474.41 478.81Q474.41 478.28 474.68 477.85Q474.94 477.41 475.38 477.15Q475.82 476.88 476.34 476.88L476.34 476.88L480.85 476.88L480.85 478.71L476.41 478.71Q476.34 478.71 476.29 478.76Q476.24 478.81 476.24 478.88L476.24 478.88L476.24 485ZM483.58 485L481.75 485L481.75 485L481.75 476.88L491.81 476.88Q492.36 476.88 492.79 477.15Q493.23 477.41 493.48 477.85Q493.74 478.28 493.74 478.81L493.74 478.81L493.74 485L491.92 485L491.92 478.88Q491.92 478.81 491.87 478.76Q491.81 478.71 491.74 478.71L491.74 478.71L488.84 478.71Q488.77 478.71 488.72 478.76Q488.68 478.81 488.68 478.88L488.68 478.88L488.68 485L486.83 485L486.83 478.88Q486.83 478.81 486.78 478.76Q486.73 478.71 486.66 478.71L486.66 478.71L483.75 478.71Q483.68 478.71 483.63 478.76Q483.58 478.81 483.58 478.88L483.58 478.88L483.58 485ZM503.36 485L497.05 485Q496.52 485 496.07 484.73Q495.63 484.47 495.38 484.03Q495.12 483.60 495.12 483.07L495.12 483.07L495.12 480.02L501.53 480.02L501.53 478.88Q501.53 478.81 501.48 478.76Q501.43 478.71 501.36 478.71L501.36 478.71L495.12 478.71L495.12 476.88L501.43 476.88Q501.96 476.88 502.40 477.15Q502.84 477.41 503.10 477.85Q503.36 478.28 503.36 478.81L503.36 478.81L503.36 485ZM497.12 483.17L497.12 483.17L501.53 483.17L501.53 481.67L496.95 481.67L496.95 483.00Q496.95 483.07 497.00 483.12Q497.05 483.17 497.12 483.17ZM506.54 485L504.71 485L504.71 485L504.71 476.88L511.02 476.88Q511.55 476.88 511.99 477.15Q512.43 477.41 512.69 477.85Q512.95 478.28 512.95 478.81L512.95 478.81L512.95 485L511.12 485L511.12 478.88Q511.12 478.81 511.07 478.76Q511.02 478.71 510.95 478.71L510.95 478.71L506.71 478.71Q506.64 478.71 506.59 478.76Q506.54 478.81 506.54 478.88L506.54 478.88L506.54 485ZM516.02 485L516.02 485Q515.49 485 515.05 484.73Q514.62 484.47 514.35 484.03Q514.09 483.60 514.09 483.07L514.09 483.07L514.09 478.81Q514.09 478.28 514.35 477.85Q514.62 477.41 515.05 477.15Q515.49 476.88 516.02 476.88L516.02 476.88L522.32 476.88L522.32 478.71L516.09 478.71Q516.02 478.71 515.97 478.76Q515.92 478.81 515.92 478.88L515.92 478.88L515.92 483.00Q515.92 483.07 515.97 483.12Q516.02 483.17 516.09 483.17L516.09 483.17L522.33 483.17L522.33 485L516.02 485ZM525.40 485L525.40 485Q524.87 485 524.43 484.73Q524.00 484.47 523.73 484.03Q523.47 483.60 523.47 483.07L523.47 483.07L523.47 478.81Q523.47 478.28 523.73 477.85Q524.00 477.41 524.43 477.15Q524.87 476.88 525.40 476.88L525.40 476.88L529.78 476.88Q530.31 476.88 530.75 477.15Q531.19 477.41 531.45 477.85Q531.71 478.28 531.71 478.81L531.71 478.81L531.71 481.86L525.30 481.86L525.30 483.00Q525.30 483.07 525.35 483.12Q525.40 483.17 525.47 483.17L525.47 483.17L531.71 483.17L531.71 485L525.40 485ZM525.30 478.88L525.30 480.21L529.88 480.21L529.88 478.88Q529.88 478.81 529.83 478.76Q529.78 478.71 529.71 478.71L529.71 478.71L525.47 478.71Q525.40 478.71 525.35 478.76Q525.30 478.81 525.30 478.88L525.30 478.88ZM539.36 485L537.51 485L537.51 474.92L539.54 474.92L543.19 479.27L546.83 474.92L548.88 474.92L548.88 485L547.01 485L547.01 477.61L543.19 482.16L539.36 477.62L539.36 485ZM552.36 485L552.36 485Q551.83 485 551.40 484.73Q550.96 484.47 550.70 484.03Q550.43 483.60 550.43 483.07L550.43 483.07L550.43 478.81Q550.43 478.28 550.70 477.85Q550.96 477.41 551.40 477.15Q551.83 476.88 552.36 476.88L552.36 476.88L556.74 476.88Q557.28 476.88 557.72 477.15Q558.16 477.41 558.42 477.85Q558.68 478.28 558.68 478.81L558.68 478.81L558.68 483.07Q558.68 483.60 558.42 484.03Q558.16 484.47 557.72 484.73Q557.29 485 556.74 485L556.74 485L552.36 485ZM552.43 483.17L552.43 483.17L556.67 483.17Q556.74 483.17 556.79 483.12Q556.84 483.07 556.84 483.00L556.84 483.00L556.84 478.88Q556.84 478.81 556.79 478.76Q556.74 478.71 556.67 478.71L556.67 478.71L552.43 478.71Q552.36 478.71 552.31 478.76Q552.26 478.81 552.26 478.88L552.26 478.88L552.26 483.00Q552.26 483.07 552.31 483.12Q552.36 483.17 552.43 483.17ZM561.64 485L559.81 485L559.81 485L559.81 476.88L566.12 476.88Q566.66 476.88 567.10 477.15Q567.54 477.41 567.80 477.85Q568.06 478.28 568.06 478.81L568.06 478.81L568.06 485L566.22 485L566.22 478.88Q566.22 478.81 566.17 478.76Q566.12 478.71 566.05 478.71L566.05 478.71L561.81 478.71Q561.74 478.71 561.69 478.76Q561.64 478.81 561.64 478.88L561.64 478.88L561.64 485ZM571.36 485L569.53 485L569.53 485L569.53 476.88L571.36 476.88L571.36 485ZM571.36 476.07L569.53 476.07L569.53 476.07L569.53 474.22L571.36 474.22L571.36 476.07ZM574.78 485L574.78 485Q574.24 485 573.81 484.73Q573.38 484.47 573.11 484.03Q572.84 483.60 572.84 483.07L572.84 483.07L572.84 474.39L574.68 474.39L574.68 476.88L577.84 476.88L577.84 478.71L574.68 478.71L574.68 483.00Q574.68 483.07 574.73 483.12Q574.78 483.17 574.85 483.17L574.85 483.17L577.84 483.17L577.84 485L574.78 485ZM580.88 485L580.88 485Q580.35 485 579.91 484.73Q579.48 484.47 579.21 484.03Q578.95 483.60 578.95 483.07L578.95 483.07L578.95 478.81Q578.95 478.28 579.21 477.85Q579.48 477.41 579.91 477.15Q580.35 476.88 580.88 476.88L580.88 476.88L585.26 476.88Q585.79 476.88 586.23 477.15Q586.68 477.41 586.93 477.85Q587.19 478.28 587.19 478.81L587.19 478.81L587.19 483.07Q587.19 483.60 586.93 484.03Q586.68 484.47 586.24 484.73Q585.81 485 585.26 485L585.26 485L580.88 485ZM580.95 483.17L580.95 483.17L585.19 483.17Q585.26 483.17 585.31 483.12Q585.36 483.07 585.36 483.00L585.36 483.00L585.36 478.88Q585.36 478.81 585.31 478.76Q585.26 478.71 585.19 478.71L585.19 478.71L580.95 478.71Q580.88 478.71 580.83 478.76Q580.78 478.81 580.78 478.88L580.78 478.88L580.78 483.00Q580.78 483.07 580.83 483.12Q580.88 483.17 580.95 483.17ZM590.18 485L588.34 485L588.34 485L588.34 478.81Q588.34 478.28 588.61 477.85Q588.87 477.41 589.31 477.15Q589.76 476.88 590.27 476.88L590.27 476.88L594.78 476.88L594.78 478.71L590.34 478.71Q590.27 478.71 590.22 478.76Q590.18 478.81 590.18 478.88L590.18 478.88L590.18 485Z" />
  </g>
</svg>