<?xml version="1.0" encoding="UTF-8"?>
<svg width="648" height="880" viewBox="350 70 324 440" xmlns="http://www.w3.org/2000/svg">
  <defs>
    <filter id="glow" x="-50%" y="-50%" width="200%" height="200%">
      <feGaussianBlur stdDeviation="4" result="blur"/>
      <feMerge>
        <feMergeNode in="blur"/>
        <feMergeNode in="SourceGraphic"/>
      </feMerge>
    </filter>
  </defs>
  <!-- Cross - Central Design (十字架) -->
  <g filter="url(#glow)">
    <path fill="#4dc9ff" opacity="0.9" d="M511.000488,155.167389 C512.207886,151.952621 513.415283,148.737854 514.725769,145.248657 C517.719788,159.466080 517.657410,174.436050 527.711609,186.423233 C527.258911,186.686066 526.806274,186.948898 526.353638,187.211746 C523.823059,185.447479 521.292480,183.683212 517.536011,181.064240 C518.073364,188.182541 518.727539,194.137726 518.920837,200.107834 C519.152588,207.264221 519.181213,214.440109 518.925293,221.594254 C518.782898,225.575256 519.730652,227.131836 524.145508,227.122498 C536.059021,227.097275 547.973328,227.684341 559.888550,227.978058 C561.437012,228.016220 562.992798,227.758270 565.221436,227.584869 C563.387024,224.627060 562.006714,222.401505 560.957886,220.710312 C572.703003,224.451187 584.593262,228.238266 596.057190,231.889572 C583.738586,234.479919 570.467590,236.379501 559.834229,245.651611 C559.589050,245.279404 559.343872,244.907181 559.098755,244.534973 C560.889343,241.851852 562.679932,239.168732 564.785889,236.013138 C550.527710,236.013138 536.482971,235.937454 522.442688,236.152390 C521.280212,236.170181 519.161804,238.144135 519.148743,239.229111 C518.940002,256.648590 519.001465,274.071320 519.001465,291.988556 C522.056702,289.718842 524.669617,287.777710 527.282532,285.836609 C527.688904,286.067108 528.095337,286.297607 528.501770,286.528137 C517.521240,298.942810 517.539307,314.644043 514.517029,329.567108 C511.336121,314.784851 511.539093,298.997040 500.627441,286.704315 C500.953766,286.411438 501.280121,286.118561 501.606445,285.825714 C504.428223,287.900665 507.250031,289.975616 511.183533,292.868011 C510.716156,288.450775 510.080170,285.068512 510.049072,281.680634 C509.928375,268.520447 509.912842,255.357590 510.049225,242.197708 C510.094116,237.867447 509.211945,235.629517 504.025696,235.869202 C494.217316,236.322510 484.372650,236.052078 474.544006,235.969681 C471.460388,235.943817 468.379791,235.556854 464.426422,235.272491 C466.164246,238.248856 467.668427,240.825027 468.778473,242.726196 C456.942780,238.802567 444.912018,234.814255 433.617340,231.069977 C438.754486,229.883774 445.154755,228.898224 451.205170,226.869492 C457.179810,224.866180 462.800781,221.808060 469.693878,218.710800 C467.393707,222.051392 465.666229,224.560211 463.321930,227.964859 C472.091278,227.964859 480.111816,228.082291 488.126923,227.923950 C493.548309,227.816833 498.970764,226.974716 504.376465,227.110397 C508.644897,227.217514 510.234070,226.131699 510.105103,221.569672 C509.785095,210.250000 509.986389,198.915192 510.014008,187.586533 C510.018311,185.822205 510.210419,184.058334 510.335205,181.967468 C507.712189,183.579773 505.069733,185.204041 501.558105,187.362595 C505.092346,178.772858 510.982025,171.877426 511.236755,162.233307 C511.320465,159.449387 511.160461,157.308380 511.000488,155.167389 z" />
    <path fill="#4dc9ff" opacity="0.9" d="M589.000000,192.154343 C589.000000,201.958405 589.044739,211.279648 588.967773,220.599915 C588.949097,222.863815 590.031738,226.096008 585.886780,225.967484 C581.774048,225.839966 583.066467,222.572662 583.045227,220.371567 C582.944275,209.886551 582.919067,199.399109 583.036438,188.914429 C583.089722,184.158295 581.504822,181.532471 576.492249,180.009811 C558.897156,174.664963 541.501160,168.668182 523.982117,163.067108 C519.971069,161.784729 518.478638,159.411804 519.209167,155.006851 C528.427673,158.436081 537.346802,162.203369 546.547119,165.067917 C559.390259,169.066666 572.457153,172.343552 585.380981,176.092636 C586.439270,176.399643 587.739258,177.872528 587.891785,178.950134 C588.487183,183.158493 588.666138,187.425797 589.000000,192.154343 z" />
    <path fill="#4dc9ff" opacity="0.9" d="M510.621216,155.092422 C511.160461,157.308380 511.320465,159.449387 511.195312,161.815384 C502.730896,164.774796 494.604706,167.682816 486.359863,170.202744 C474.104034,173.948593 461.739960,177.340988 449.493744,181.116592 C448.093933,181.548157 446.234528,183.410233 446.148376,184.712265 C445.537659,193.940735 445.172485,203.194427 445.075439,212.443710 C445.033264,216.464813 445.808868,220.494476 446.239929,224.788025 C443.921600,224.788025 442.179321,224.788025 440.562561,224.788025 C440.562561,208.668106 440.562561,192.651138 440.562561,176.593643 C465.130402,172.517395 487.704071,163.824646 510.621216,155.092422 z" />
    <path fill="#4dc9ff" opacity="0.9" d="M544.644287,305.767578 C536.612915,310.833710 528.888550,315.696350 520.812927,320.780121 C520.427002,315.559235 522.006226,313.241425 526.173401,310.636627 C535.620728,304.731232 544.677063,297.913025 552.876221,290.362579 C566.762329,277.575043 575.059753,261.197540 579.960693,243.072998 C581.156250,238.651901 581.085693,238.632828 587.125122,237.200424 C584.210388,251.641434 579.256897,264.988495 571.312134,277.210571 C564.166992,288.202515 554.858215,297.154510 544.644287,305.767578 z" />
    <path fill="#4dc9ff" opacity="0.9" d="M452.678223,255.222107 C461.364136,279.803955 483.871002,302.116638 507.634338,313.160583 C508.020172,315.333832 508.405304,317.505585 508.958130,320.623291 C473.200378,303.062256 449.530518,276.887756 441.895355,237.442307 C447.689972,238.358505 447.606110,238.380478 449.048798,243.886002 C450.022736,247.602844 451.274475,251.246887 452.678223,255.222107 z" />
    <path fill="#4dc9ff" opacity="0.9" d="M559.499878,218.912933 C559.679260,218.511047 560.163879,218.359299 560.659302,218.262711 C560.685791,218.257568 560.802917,218.717163 560.877869,218.960403 C560.521057,219.031815 560.164307,219.103226 559.499878,218.912933 z" />
  </g>
</svg>