<?xml version="1.0" encoding="UTF-8"?>
<svg width="648" height="880" viewBox="350 70 324 440" xmlns="http://www.w3.org/2000/svg">
  <defs>
    <filter id="glow" x="-50%" y="-50%" width="200%" height="200%">
      <feGaussianBlur stdDeviation="4" result="blur"/>
      <feMerge>
        <feMergeNode in="blur"/>
        <feMergeNode in="SourceGraphic"/>
      </feMerge>
    </filter>
  </defs>
  <!-- Shield - Shield with Side Elements (盾) -->
  <g filter="url(#glow)">
    <path fill="#4dc9ff" opacity="0.9" d="M658.023560,196.911850 C659.362427,204.826202 661.537415,212.280212 661.802246,219.801483 C662.215271,231.525681 662.421204,243.458359 660.695496,255.000778 C658.927612,266.824890 655.684937,278.652924 651.387207,289.825012 C643.746948,309.686066 632.109985,327.221802 616.435669,342.014984 C606.182434,331.717712 595.953125,321.444550 585.678040,311.125336 C564.776123,329.557678 540.733887,339.472870 512.670532,339.024658 C484.493164,338.574646 460.849091,327.681580 439.583832,307.430176 C430.069641,318.077759 420.420288,328.876587 410.839050,339.599182 C362.233734,294.712067 342.962402,194.437149 409.954834,125.801041 C420.462524,135.841522 430.977722,145.889206 441.383881,155.832672 C462.243164,135.691711 487.449371,125.887711 515.867432,126.261673 C544.023682,126.632202 568.858337,136.990509 588.202759,156.327698 C598.417480,146.212418 608.292114,136.433914 618.692871,126.134460 C638.853271,146.134842 651.425354,169.605469 658.023560,196.911850 M604.997437,326.003601 C604.997437,326.003601 604.909790,325.920227 604.360962,326.515991 C607.586670,329.867615 610.872253,333.164246 614.016724,336.590363 C616.070435,338.828003 617.664917,338.170715 619.319092,336.186188 C630.831482,322.374512 641.075684,307.789917 648.038513,291.050446 C653.839417,277.104492 657.704712,262.676056 658.883606,247.662811 C659.533936,239.380203 659.484131,230.968582 658.867065,222.680862 C658.218567,213.970657 657.056824,205.218781 655.163574,196.697433 C650.929321,177.639740 642.651306,160.299149 631.042114,144.608963 C627.402588,139.690018 623.327820,135.093124 618.552368,129.247116 C607.885254,139.941833 598.069824,149.782669 588.391418,159.486130 C585.576721,157.105286 582.485718,154.402664 579.302612,151.813126 C563.664307,139.090683 545.844482,131.041443 525.806580,129.167328 C509.271301,127.620781 492.659424,129.044739 477.159515,135.492599 C456.972107,143.890411 440.105560,156.763336 427.956024,175.323151 C414.774139,195.460022 408.416687,217.254272 410.937714,241.469131 C412.117676,252.803116 414.810608,263.652802 419.503815,273.996979 C427.391418,291.381927 438.965546,305.704224 454.438507,317.058838 C470.498199,328.844055 488.420685,335.664948 508.087036,336.733032 C517.903015,337.266144 528.073730,335.929565 537.730713,333.820709 C562.807739,328.344482 582.587341,314.389587 597.757080,293.759613 C605.846985,282.757843 611.454834,270.620728 615.022095,257.463257 C618.955505,242.955383 619.440918,228.170288 616.651184,213.617981 C613.157532,195.394012 605.461792,178.812363 593.156372,164.614380 C592.703918,164.092377 592.839539,163.060715 592.701111,162.266556 C603.118530,171.641876 609.552551,183.117462 613.978210,195.747665 C618.885376,209.752243 622.000061,224.066650 619.982971,239.043320 C619.098267,245.612000 618.525208,252.278854 616.940002,258.685699 C613.219421,273.722717 606.636536,287.410522 596.384033,299.229553 C593.360474,302.715088 588.144104,307.173889 588.751709,310.227844 C589.566406,314.322693 594.977539,317.577759 598.587585,321.012177 C600.569153,322.897369 602.904724,324.410461 604.997437,326.003601 M405.963470,331.442657 C407.083710,332.657288 408.203979,333.871918 408.545593,334.242310 C418.332581,324.479095 427.953430,314.881592 437.475006,305.383148 C418.300659,284.655762 407.824585,259.718994 408.155518,230.968155 C408.485291,202.320343 419.422272,177.573242 437.999939,158.881882 C428.714081,148.153854 420.055908,138.150970 410.568695,127.190331 C402.910278,138.031921 395.937500,147.190842 389.726898,156.840286 C375.997803,178.171097 370.112122,202.026505 369.167664,227.067245 C368.804779,236.688293 369.952820,246.425491 371.089020,256.029724 C372.703125,269.673096 376.750122,282.667694 382.548828,295.180939 C388.571014,308.176239 396.222046,320.045807 405.963470,331.442657 z" />
    <path fill="#4dc9ff" opacity="0.9" d="M601.242737,315.684937 C599.058960,313.896271 597.141296,312.340393 595.252380,310.807800 C638.944214,264.724335 635.028870,197.592514 598.920227,158.027069 C600.948364,156.397552 602.994934,154.753189 605.761597,152.530273 C609.869080,158.670700 614.860596,165.486557 619.166077,172.711258 C626.807129,185.532867 631.833862,199.484161 633.869507,214.228424 C636.858765,235.879227 634.308899,256.991516 626.220459,277.449493 C620.488098,291.948425 612.007690,304.548279 601.242737,315.684937 z" />
    <path fill="#4dc9ff" opacity="0.9" d="M605.039062,326.047485 C606.717468,323.567780 608.048767,320.768463 610.039307,318.564484 C625.416443,301.538574 635.266235,281.841064 640.125061,259.395325 C642.798889,247.043137 643.753479,234.619537 642.843689,222.179977 C641.819519,208.176270 638.654907,194.487030 632.875977,181.557190 C627.517700,169.568451 620.919556,158.351151 612.109131,148.514236 C611.508606,147.843750 611.556458,146.592590 611.302734,145.611496 C611.878967,145.331894 612.455139,145.052292 613.031311,144.772675 C617.745911,151.710587 622.518799,158.609695 627.162537,165.594650 C636.131409,179.085190 641.354248,194.272003 643.621399,209.975082 C645.388611,222.216003 644.424805,234.929916 643.912292,247.402283 C643.197754,264.789368 637.342163,280.802124 628.973511,295.896637 C622.757324,307.108643 615.650085,317.697845 605.269958,325.956116 C604.909790,325.920227 604.997437,326.003601 605.039062,326.047485 z" />
    <path fill="#4dc9ff" opacity="0.9" d="M386.000000,225.073059 C385.104889,245.498016 387.999481,264.745819 395.941956,283.190887 C400.754272,294.366699 406.529816,304.880524 414.548645,314.102295 C415.828522,315.574158 416.703949,317.397705 417.384735,319.270020 C377.852570,282.941193 366.625244,195.816223 420.513306,142.515305 C420.026489,143.823730 419.891357,145.475174 419.000031,146.389038 C406.000183,159.717010 397.020935,175.564499 391.642303,193.139923 C388.548370,203.249756 387.802734,214.078278 386.000000,225.073059 z" />
  </g>
</svg>