<?xml version="1.0" encoding="UTF-8"?>
<svg width="648" height="880" viewBox="350 70 324 440" xmlns="http://www.w3.org/2000/svg">
  <defs>
    <filter id="glow" x="-50%" y="-50%" width="200%" height="200%">
      <feGaussianBlur stdDeviation="4" result="blur"/>
      <feMerge>
        <feMergeNode in="blur"/>
        <feMergeNode in="SourceGraphic"/>
      </feMerge>
    </filter>
  </defs>
  <!-- AEGIS Text (文字) - Orbitron font converted to paths -->
  <g filter="url(#glow)">
    <!-- Main A.E.G.I.S. text -->
    <path fill="#4dc9ff" opacity="0.9" d="M405.46 445L405.46 445L405.46 417.54Q405.46 415.58 406.42 413.97Q407.38 412.36 409.02 411.40Q410.65 410.44 412.57 410.44L412.57 410.44L432.87 410.44Q434.84 410.44 436.45 411.40Q438.06 412.36 439.04 413.97Q440.02 415.58 440.02 417.54L440.02 417.54L440.02 445L432.49 445L432.49 433.86L412.90 433.86L412.90 445L405.46 445ZM412.90 426.38L412.90 426.38L432.49 426.38L432.49 417.93Q432.49 417.93 432.49 417.93Q432.49 417.93 432.49 417.93L432.49 417.93L412.90 417.93Q412.90 417.93 412.90 417.93Q412.90 417.93 412.90 417.93L412.90 417.93L412.90 426.38ZM452.74 445L445.40 445L445.40 445L445.40 437.66L452.74 437.66L452.74 445ZM488.70 445L456.78 445L456.78 410.44L488.70 410.44L488.70 417.93L464.31 417.93L464.31 423.98L483.94 423.98L483.94 431.46L464.31 431.46L464.31 437.51L488.70 437.51L488.70 445ZM500.70 445L493.35 445L493.35 445L493.35 437.66L500.70 437.66L500.70 445ZM532.04 445L511.74 445Q509.82 445 508.18 444.04Q506.55 443.08 505.59 441.45Q504.63 439.82 504.63 437.90L504.63 437.90L504.63 417.54Q504.63 415.58 505.59 413.97Q506.55 412.36 508.18 411.40Q509.82 410.44 511.74 410.44L511.74 410.44L532.04 410.44Q534.01 410.44 535.62 411.40Q537.22 412.36 538.21 413.97Q539.19 415.58 539.19 417.54L539.19 417.54L539.19 420.81L531.66 420.81L531.66 417.93Q531.66 417.93 531.66 417.93Q531.66 417.93 531.66 417.93L531.66 417.93L512.07 417.93Q512.07 417.93 512.07 417.93Q512.07 417.93 512.07 417.93L512.07 417.93L512.07 437.51Q512.07 437.51 512.07 437.51Q512.07 437.51 512.07 437.51L512.07 437.51L531.66 437.51Q531.66 437.51 531.66 437.51Q531.66 437.51 531.66 437.51L531.66 437.51L531.66 432.33L524.17 432.33L524.17 424.84L539.19 424.84L539.19 437.90Q539.19 439.82 538.21 441.45Q537.22 443.08 535.62 444.04Q534.01 445 532.04 445L532.04 445ZM551.72 445L544.38 445L544.38 445L544.38 437.66L551.72 437.66L551.72 445ZM561.80 445L554.46 445L554.46 410.44L561.80 410.44L561.80 445ZM573.18 445L565.83 445L565.83 445L565.83 437.66L573.18 437.66L573.18 445ZM604.47 445L584.12 445Q582.20 445 580.57 444.04Q578.94 443.08 577.98 441.45Q577.02 439.82 577.02 437.90L577.02 437.90L577.02 434.68L584.46 434.68L584.46 437.51Q584.46 437.51 584.46 437.51Q584.46 437.51 584.46 437.51L584.46 437.51L604.04 437.51Q604.04 437.51 604.04 437.51Q604.04 437.51 604.04 437.51L604.04 437.51L604.04 431.46Q604.04 431.46 604.04 431.46Q604.04 431.46 604.04 431.46L604.04 431.46L584.12 431.46Q582.20 431.46 580.57 430.50Q578.94 429.54 577.98 427.94Q577.02 426.33 577.02 424.36L577.02 424.36L577.02 417.54Q577.02 415.58 577.98 413.97Q578.94 412.36 580.57 411.40Q582.20 410.44 584.12 410.44L584.12 410.44L604.47 410.44Q606.39 410.44 608 411.40Q609.61 412.36 610.59 413.97Q611.58 415.58 611.58 417.54L611.58 417.54L611.58 420.76L604.04 420.76L604.04 417.93Q604.04 417.93 604.04 417.93Q604.04 417.93 604.04 417.93L604.04 417.93L584.46 417.93Q584.46 417.93 584.46 417.93Q584.46 417.93 584.46 417.93L584.46 417.93L584.46 423.98Q584.46 423.98 584.46 423.98Q584.46 423.98 584.46 423.98L584.46 423.98L604.47 423.98Q606.39 423.98 608 424.94Q609.61 425.90 610.59 427.50Q611.58 429.11 611.58 431.08L611.58 431.08L611.58 437.90Q611.58 439.82 610.59 441.45Q609.61 443.08 608 444.04Q606.39 445 604.47 445L604.47 445ZM624.10 445L616.76 445L616.76 445L616.76 437.66L624.10 437.66L624.10 445Z" />
    <!-- Subtitle: Performance Monitor -->
    <path fill="#4dc9ff" opacity="0.9" d="M432.63 485L430.79 485L430.79 474.93L438.91 474.93Q439.44 474.93 439.89 475.20Q440.33 475.47 440.60 475.91Q440.87 476.35 440.87 476.88L440.87 476.88L440.87 479.60Q440.87 480.13 440.60 480.58Q440.33 481.02 439.89 481.28Q439.44 481.54 438.91 481.54L438.91 481.54L432.63 481.56L432.63 485ZM432.80 479.68L432.80 479.68L438.82 479.68Q438.89 479.68 438.95 479.64Q439.00 479.60 439.00 479.53L439.00 479.53L439.00 476.95Q439.00 476.88 438.95 476.83Q438.89 476.78 438.82 476.78L438.82 476.78L432.80 476.78Q432.73 476.78 432.68 476.83Q432.63 476.88 432.63 476.95L432.63 476.95L432.63 479.53Q432.63 479.60 432.68 479.64Q432.73 479.68 432.80 479.68ZM443.72 485L443.72 485Q443.19 485 442.76 484.73Q442.32 484.47 442.06 484.03Q441.79 483.60 441.79 483.07L441.79 483.07L441.79 478.81Q441.79 478.28 442.06 477.85Q442.32 477.41 442.76 477.15Q443.19 476.88 443.72 476.88L443.72 476.88L448.10 476.88Q448.64 476.88 449.08 477.15Q449.52 477.41 449.78 477.85Q450.04 478.28 450.04 478.81L450.04 478.81L450.04 481.86L443.62 481.86L443.62 483.00Q443.62 483.07 443.67 483.12Q443.72 483.17 443.79 483.17L443.79 483.17L450.04 483.17L450.04 485L443.72 485ZM443.62 478.88L443.62 480.21L448.20 480.21L448.20 478.88Q448.20 478.81 448.15 478.76Q448.10 478.71 448.03 478.71L448.03 478.71L443.79 478.71Q443.72 478.71 443.67 478.76Q443.62 478.81 443.62 478.88L443.62 478.88ZM453.24 485L451.41 485L451.41 485L451.41 478.81Q451.41 478.28 451.67 477.85Q451.94 477.41 452.38 477.15Q452.82 476.88 453.34 476.88L453.34 476.88L457.85 476.88L457.85 478.71L453.41 478.71Q453.34 478.71 453.29 478.76Q453.24 478.81 453.24 478.88L453.24 478.88L453.24 485ZM460.76 485L458.93 485L458.93 485L458.93 476.15Q458.93 475.62 459.19 475.19Q459.46 474.75 459.89 474.49Q460.33 474.22 460.86 474.22L460.86 474.22L463.92 474.22L463.92 476.07L460.93 476.07Q460.86 476.07 460.81 476.12Q460.76 476.17 460.76 476.24L460.76 476.24L460.76 476.88L463.92 476.88L463.92 478.71L460.76 478.71L460.76 485ZM466.95 485L466.95 485Q466.42 485 465.98 484.73Q465.55 484.47 465.28 484.03Q465.02 483.60 465.02 483.07L465.02 483.07L465.02 478.81Q465.02 478.28 465.28 477.85Q465.55 477.41 465.98 477.15Q466.42 476.88 466.95 476.88L466.95 476.88L471.33 476.88Q471.86 476.88 472.30 477.15Q472.74 477.41 473.00 477.85Q473.26 478.28 473.26 478.81L473.26 478.81L473.26 483.07Q473.26 483.60 473.00 484.03Q472.74 484.47 472.31 484.73Q471.88 485 471.33 485L471.33 485L466.95 485ZM467.02 483.17L467.02 483.17L471.26 483.17Q471.33 483.17 471.38 483.12Q471.43 483.07 471.43 483.00L471.43 483.00L471.43 478.88Q471.43 478.81 471.38 478.76Q471.33 478.71 471.26 478.71L471.26 478.71L467.02 478.71Q466.95 478.71 466.90 478.76Q466.85 478.81 466.85 478.88L466.85 478.88L466.85 483.00Q466.85 483.07 466.90 483.12Q466.95 483.17 467.02 483.17ZM476.24 485L474.41 485L474.41 485L474.41 478.81Q474.41 478.28 474.68 477.85Q474.94 477.41 475.38 477.15Q475.82 476.88 476.34 476.88L476.34 476.88L480.85 476.88L480.85 478.71L476.41 478.71Q476.34 478.71 476.29 478.76Q476.24 478.81 476.24 478.88L476.24 478.88L476.24 485ZM483.58 485L481.75 485L481.75 485L481.75 476.88L491.81 476.88Q492.36 476.88 492.79 477.15Q493.23 477.41 493.48 477.85Q493.74 478.28 493.74 478.81L493.74 478.81L493.74 485L491.92 485L491.92 478.88Q491.92 478.81 491.87 478.76Q491.81 478.71 491.74 478.71L491.74 478.71L488.84 478.71Q488.77 478.71 488.72 478.76Q488.68 478.81 488.68 478.88L488.68 478.88L488.68 485L486.83 485L486.83 478.88Q486.83 478.81 486.78 478.76Q486.73 478.71 486.66 478.71L486.66 478.71L483.75 478.71Q483.68 478.71 483.63 478.76Q483.58 478.81 483.58 478.88L483.58 478.88L483.58 485ZM503.36 485L497.05 485Q496.52 485 496.07 484.73Q495.63 484.47 495.38 484.03Q495.12 483.60 495.12 483.07L495.12 483.07L495.12 480.02L501.53 480.02L501.53 478.88Q501.53 478.81 501.48 478.76Q501.43 478.71 501.36 478.71L501.36 478.71L495.12 478.71L495.12 476.88L501.43 476.88Q501.96 476.88 502.40 477.15Q502.84 477.41 503.10 477.85Q503.36 478.28 503.36 478.81L503.36 478.81L503.36 485ZM497.12 483.17L497.12 483.17L501.53 483.17L501.53 481.67L496.95 481.67L496.95 483.00Q496.95 483.07 497.00 483.12Q497.05 483.17 497.12 483.17ZM506.54 485L504.71 485L504.71 485L504.71 476.88L511.02 476.88Q511.55 476.88 511.99 477.15Q512.43 477.41 512.69 477.85Q512.95 478.28 512.95 478.81L512.95 478.81L512.95 485L511.12 485L511.12 478.88Q511.12 478.81 511.07 478.76Q511.02 478.71 510.95 478.71L510.95 478.71L506.71 478.71Q506.64 478.71 506.59 478.76Q506.54 478.81 506.54 478.88L506.54 478.88L506.54 485ZM516.02 485L516.02 485Q515.49 485 515.05 484.73Q514.62 484.47 514.35 484.03Q514.09 483.60 514.09 483.07L514.09 483.07L514.09 478.81Q514.09 478.28 514.35 477.85Q514.62 477.41 515.05 477.15Q515.49 476.88 516.02 476.88L516.02 476.88L522.32 476.88L522.32 478.71L516.09 478.71Q516.02 478.71 515.97 478.76Q515.92 478.81 515.92 478.88L515.92 478.88L515.92 483.00Q515.92 483.07 515.97 483.12Q516.02 483.17 516.09 483.17L516.09 483.17L522.33 483.17L522.33 485L516.02 485ZM525.40 485L525.40 485Q524.87 485 524.43 484.73Q524.00 484.47 523.73 484.03Q523.47 483.60 523.47 483.07L523.47 483.07L523.47 478.81Q523.47 478.28 523.73 477.85Q524.00 477.41 524.43 477.15Q524.87 476.88 525.40 476.88L525.40 476.88L529.78 476.88Q530.31 476.88 530.75 477.15Q531.19 477.41 531.45 477.85Q531.71 478.28 531.71 478.81L531.71 478.81L531.71 481.86L525.30 481.86L525.30 483.00Q525.30 483.07 525.35 483.12Q525.40 483.17 525.47 483.17L525.47 483.17L531.71 483.17L531.71 485L525.40 485ZM525.30 478.88L525.30 480.21L529.88 480.21L529.88 478.88Q529.88 478.81 529.83 478.76Q529.78 478.71 529.71 478.71L529.71 478.71L525.47 478.71Q525.40 478.71 525.35 478.76Q525.30 478.81 525.30 478.88L525.30 478.88ZM539.36 485L537.51 485L537.51 474.92L539.54 474.92L543.19 479.27L546.83 474.92L548.88 474.92L548.88 485L547.01 485L547.01 477.61L543.19 482.16L539.36 477.62L539.36 485ZM552.36 485L552.36 485Q551.83 485 551.40 484.73Q550.96 484.47 550.70 484.03Q550.43 483.60 550.43 483.07L550.43 483.07L550.43 478.81Q550.43 478.28 550.70 477.85Q550.96 477.41 551.40 477.15Q551.83 476.88 552.36 476.88L552.36 476.88L556.74 476.88Q557.28 476.88 557.72 477.15Q558.16 477.41 558.42 477.85Q558.68 478.28 558.68 478.81L558.68 478.81L558.68 483.07Q558.68 483.60 558.42 484.03Q558.16 484.47 557.72 484.73Q557.29 485 556.74 485L556.74 485L552.36 485ZM552.43 483.17L552.43 483.17L556.67 483.17Q556.74 483.17 556.79 483.12Q556.84 483.07 556.84 483.00L556.84 483.00L556.84 478.88Q556.84 478.81 556.79 478.76Q556.74 478.71 556.67 478.71L556.67 478.71L552.43 478.71Q552.36 478.71 552.31 478.76Q552.26 478.81 552.26 478.88L552.26 478.88L552.26 483.00Q552.26 483.07 552.31 483.12Q552.36 483.17 552.43 483.17ZM561.64 485L559.81 485L559.81 485L559.81 476.88L566.12 476.88Q566.66 476.88 567.10 477.15Q567.54 477.41 567.80 477.85Q568.06 478.28 568.06 478.81L568.06 478.81L568.06 485L566.22 485L566.22 478.88Q566.22 478.81 566.17 478.76Q566.12 478.71 566.05 478.71L566.05 478.71L561.81 478.71Q561.74 478.71 561.69 478.76Q561.64 478.81 561.64 478.88L561.64 478.88L561.64 485ZM571.36 485L569.53 485L569.53 485L569.53 476.88L571.36 476.88L571.36 485ZM571.36 476.07L569.53 476.07L569.53 476.07L569.53 474.22L571.36 474.22L571.36 476.07ZM574.78 485L574.78 485Q574.24 485 573.81 484.73Q573.38 484.47 573.11 484.03Q572.84 483.60 572.84 483.07L572.84 483.07L572.84 474.39L574.68 474.39L574.68 476.88L577.84 476.88L577.84 478.71L574.68 478.71L574.68 483.00Q574.68 483.07 574.73 483.12Q574.78 483.17 574.85 483.17L574.85 483.17L577.84 483.17L577.84 485L574.78 485ZM580.88 485L580.88 485Q580.35 485 579.91 484.73Q579.48 484.47 579.21 484.03Q578.95 483.60 578.95 483.07L578.95 483.07L578.95 478.81Q578.95 478.28 579.21 477.85Q579.48 477.41 579.91 477.15Q580.35 476.88 580.88 476.88L580.88 476.88L585.26 476.88Q585.79 476.88 586.23 477.15Q586.68 477.41 586.93 477.85Q587.19 478.28 587.19 478.81L587.19 478.81L587.19 483.07Q587.19 483.60 586.93 484.03Q586.68 484.47 586.24 484.73Q585.81 485 585.26 485L585.26 485L580.88 485ZM580.95 483.17L580.95 483.17L585.19 483.17Q585.26 483.17 585.31 483.12Q585.36 483.07 585.36 483.00L585.36 483.00L585.36 478.88Q585.36 478.81 585.31 478.76Q585.26 478.71 585.19 478.71L585.19 478.71L580.95 478.71Q580.88 478.71 580.83 478.76Q580.78 478.81 580.78 478.88L580.78 478.88L580.78 483.00Q580.78 483.07 580.83 483.12Q580.88 483.17 580.95 483.17ZM590.18 485L588.34 485L588.34 485L588.34 478.81Q588.34 478.28 588.61 477.85Q588.87 477.41 589.31 477.15Q589.76 476.88 590.27 476.88L590.27 476.88L594.78 476.88L594.78 478.71L590.34 478.71Q590.27 478.71 590.22 478.76Q590.18 478.81 590.18 478.88L590.18 478.88L590.18 485Z" />
  </g>
</svg>